SplineFontDB: 3.2
FontName: IthkuilFlow
FullName: Ithkuil Flow
FamilyName: IthkuilFlow
Weight: Regular
Copyright: Shankar Sivarajan\nBased on glyphs by Zachary Sakowitz.
UComments: "2023-2-19: Created with FontForge (http://fontforge.org)"
Version: 
ItalicAngle: 0
UnderlinePosition: -96
UnderlineWidth: 48
Ascent: 384
Descent: 128
InvalidEm: 0
LayerCount: 2
Layer: 0 0 "Back" 1
Layer: 1 0 "Fore" 0
XUID: [1021 73 1113128204 8431]
FSType: 0
OS2Version: 0
OS2_WeightWidthSlopeOnly: 0
OS2_UseTypoMetrics: 1
CreationTime: 1676795389
ModificationTime: 1694273778
PfmFamily: 17
TTFWeight: 400
TTFWidth: 5
LineGap: 48
VLineGap: 0
OS2TypoAscent: 0
OS2TypoAOffset: 1
OS2TypoDescent: 0
OS2TypoDOffset: 1
OS2TypoLinegap: 48
OS2WinAscent: 0
OS2WinAOffset: 1
OS2WinDescent: 0
OS2WinDOffset: 1
HheadAscent: 0
HheadAOffset: 1
HheadDescent: 0
HheadDOffset: 1
OS2Vendor: 'PfEd'
OS2CodePages: 00000000.00000000
OS2UnicodeRanges: 00000000.00000000.00000000.00000000
Lookup: 6 0 0 "OneQuote" { "OneQuote subtable"  } ['liga' ('grek' <'dflt' > 'latn' <'dflt' > 'DFLT' <'dflt' > ) ]
Lookup: 1 0 0 "Single Substitution lookup 1" { "Single Substitution lookup 1 subtable"  } []
Lookup: 4 0 1 "ExtraMoveDiacritic" { "ExtraMoveDiacritic subtable"  } ['liga' ('grek' <'dflt' > 'latn' <'dflt' > 'DFLT' <'dflt' > ) ]
Lookup: 4 0 1 "FlipCores" { "FlipCores subtable"  } ['liga' ('grek' <'dflt' > 'latn' <'dflt' > 'DFLT' <'dflt' > ) ]
Lookup: 4 0 1 "TertiaryLigature" { "TertiaryLigature subtable"  } ['liga' ('grek' <'dflt' > 'latn' <'dflt' > 'DFLT' <'dflt' > ) ]
Lookup: 4 0 1 "VowelLigature" { "VowelLigature subtable"  } ['liga' ('grek' <'dflt' > 'latn' <'dflt' > 'DFLT' <'dflt' > ) ]
Lookup: 4 0 1 "RegisterLigature" { "RegisterLigature subtable"  } ['liga' ('grek' <'dflt' > 'latn' <'dflt' > 'DFLT' <'dflt' > ) ]
Lookup: 6 0 0 "VowelAnchor" { "VowelAnchor contextual 0"  "VowelAnchor contextual 1"  } ['liga' ('grek' <'dflt' > 'latn' <'dflt' > 'DFLT' <'dflt' > ) ]

StartChar: RPV.VAR
Encoding: 65536 -1 0
Width: 1024
VWidth: 1024
Flags: H
LayerCount: 2
Back
SplineSet
-202 543 m 4
 -202 596 -159 639 -106 639 c 4
 -53 639 -10 596 -10 543 c 4
 -10 490 -53 447 -106 447 c 4
 -159 447 -202 490 -202 543 c 4
-250 495 m 4
 -250 548 -207 591 -154 591 c 4
 -101 591 -58 548 -58 495 c 4
 -58 442 -101 399 -154 399 c 4
 -207 399 -250 442 -250 495 c 4
EndSplineSet
Fore
Validated: 1
EndChar

StartChar: two.hund
Encoding: 65537 -1 1
Width: 320
GlyphClass: 4
Flags: HW
AnchorPoint: "Extension_mkmk" 0 384 mark 0
LayerCount: 2
Fore
SplineSet
10 384 m 0
 10 381 9 379 7 377 c 0
 3 373 -3 373 -7 377 c 0
 -9 379 -10 381 -10 384 c 0
 -10 409 -19 428 -33 442 c 0
 -52 461 -80 471 -103 473 c 0
 -113 474 -122 474 -129 472 c 0
 -135 471 -139 468 -140 467 c 0
 -141 466 -141 465 -141 465 c 0
 -141 465 -141 464 -141 462 c 0
 -140 460 -138 456 -133 451 c 0
 -129 447 -129 441 -133 437 c 0
 -137 433 -143 433 -147 437 c 0
 -154 444 -158 450 -160 457 c 0
 -161 462 -162 466 -160 471 c 0
 -159 475 -157 478 -154 481 c 0
 -149 486 -142 489 -134 491 c 0
 -124 493 -113 494 -101 493 c 0
 -74 490 -42 479 -19 456 c 0
 -2 439 10 414 10 384 c 0
EndSplineSet
EndChar

StartChar: one.ten
Encoding: 65538 -1 2
Width: 320
GlyphClass: 4
Flags: HW
AnchorPoint: "Extension_mkmk" 0 384 mark 0
LayerCount: 2
Fore
SplineSet
0 374 m 0
 -3 374 -5 375 -7 377 c 0
 -11 381 -11 387 -7 391 c 0
 -5 393 -3 394 -0 394 c 0
 93 394 140 359 159 340 c 0
 165 334 168 330 168 330 c 0
 171 326 170 320 167 317 c 0
 163 313 157 313 153 317 c 0
 153 317 152 317 152 318 c 2
 152 318 150 321 145 326 c 0
 130 341 87 374 0 374 c 0
EndSplineSet
Substitution2: "Single Substitution lookup 30 subtable" one.ten_coll
Substitution2: "Single Substitution lookup 29 subtable" one.ten_coll
EndChar

StartChar: two.ten
Encoding: 65539 -1 3
Width: 320
Flags: HW
AnchorPoint: "Extension_mkmk" 0 384 mark 0
LayerCount: 2
Fore
SplineSet
-10 384 m 0
 -10 387 -9 389 -7 391 c 0
 -3 395 3 395 7 391 c 0
 9 389 10 387 10 384 c 0
 10 359 19 340 33 326 c 0
 52 307 80 297 103 295 c 0
 113 294 122 294 129 296 c 0
 135 297 139 300 140 301 c 0
 141 302 141 303 141 303 c 0
 141 303 141 304 141 306 c 0
 140 308 138 312 133 317 c 0
 129 321 129 327 133 331 c 0
 137 335 143 335 147 331 c 0
 154 324 158 318 160 311 c 0
 161 306 162 302 160 297 c 0
 159 293 157 290 154 287 c 0
 149 282 142 279 134 277 c 0
 124 275 113 274 101 275 c 0
 74 278 42 289 19 312 c 0
 2 329 -10 354 -10 384 c 0
EndSplineSet
Substitution2: "Single Substitution lookup 30 subtable" two.ten_coll
Substitution2: "Single Substitution lookup 29 subtable" two.ten_coll
EndChar

StartChar: three.ten
Encoding: 65540 -1 4
Width: 320
Flags: HW
AnchorPoint: "Extension_mkmk" 0 384 mark 0
LayerCount: 2
Fore
SplineSet
-10 384 m 0
 -10 387 -9 389 -7 391 c 0
 -3 395 3 395 7 391 c 0
 9 389 10 387 10 384 c 0
 10 370 4 358 -5 349 c 0
 -7 347 -9 345 -12 343 c 1
 -3 338 3 333 9 327 c 0
 29 307 30 286 30 284 c 0
 30 281 29 279 27 277 c 0
 23 273 17 273 13 277 c 0
 11 279 10 281 10 284 c 0
 10 284 10 288 8 294 c 0
 6 299 2 305 -5 312 c 0
 -13 320 -24 329 -43 335 c 0
 -45 336 -47 336 -48 338 c 0
 -51 342 -50 349 -46 352 c 0
 -44 353 -42 354 -40 354 c 0
 -32 354 -24 358 -19 363 c 0
 -14 368 -10 376 -10 384 c 0
EndSplineSet
Substitution2: "Single Substitution lookup 30 subtable" three.ten_coll
Substitution2: "Single Substitution lookup 29 subtable" three.ten_coll
EndChar

StartChar: four.ten
Encoding: 65541 -1 5
Width: 320
Flags: HW
AnchorPoint: "Extension_mkmk" 0 384 mark 0
LayerCount: 2
Fore
SplineSet
-10 384 m 0
 -10 387 -9 389 -7 391 c 0
 -3 395 3 395 7 391 c 0
 9 389 10 387 10 384 c 0
 10 376 14 368 19 363 c 0
 24 358 32 354 40 354 c 0
 42 354 44 353 46 352 c 0
 50 349 51 342 48 338 c 0
 47 336 45 336 43 335 c 0
 24 329 13 320 5 312 c 0
 -2 305 -6 299 -8 294 c 0
 -10 288 -10 284 -10 284 c 0
 -10 281 -11 279 -13 277 c 0
 -17 273 -23 273 -27 277 c 0
 -29 279 -30 281 -30 284 c 0
 -30 286 -29 307 -9 327 c 0
 -3 333 3 338 12 343 c 1
 9 345 7 347 5 349 c 0
 -4 358 -10 370 -10 384 c 0
EndSplineSet
Substitution2: "Single Substitution lookup 30 subtable" four.ten_coll
Substitution2: "Single Substitution lookup 29 subtable" four.ten_coll
EndChar

StartChar: five.ten
Encoding: 65542 -1 6
Width: 320
Flags: HW
AnchorPoint: "Extension_mkmk" 0 384 mark 0
LayerCount: 2
Fore
SplineSet
-38 374 m 1
 -26 367 -16 359 -9 352 c 0
 4 339 9 329 9 328 c 0
 11 324 10 320 7 317 c 0
 3 313 -3 313 -7 317 c 0
 -8 318 -9 319 -9 320 c 2
 -9 320 -12 327 -23 338 c 0
 -39 354 -69 374 -120 374 c 0
 -126 374 -130 378 -130 384 c 0
 -130 390 -126 394 -120 394 c 2
 -0 394 l 2
 3 394 5 393 7 391 c 0
 11 387 11 381 7 377 c 0
 5 375 3 374 0 374 c 2
 -38 374 l 1
EndSplineSet
Substitution2: "Single Substitution lookup 30 subtable" five.ten_coll
Substitution2: "Single Substitution lookup 29 subtable" five.ten_coll
EndChar

StartChar: six.ten
Encoding: 65543 -1 7
Width: 320
Flags: HW
AnchorPoint: "Extension_mkmk" 0 384 mark 0
LayerCount: 2
Fore
SplineSet
120 394 m 2
 126 394 130 390 130 384 c 0
 130 378 126 374 120 374 c 0
 69 374 39 354 23 338 c 0
 12 327 9 320 9 320 c 2
 9 319 8 318 7 317 c 0
 3 313 -3 313 -7 317 c 0
 -10 320 -11 324 -9 328 c 0
 -9 329 -4 339 9 352 c 0
 16 359 26 367 38 374 c 1
 0 374 l 2
 -3 374 -5 375 -7 377 c 0
 -11 381 -11 387 -7 391 c 0
 -5 393 -3 394 -0 394 c 2
 120 394 l 2
EndSplineSet
Substitution2: "Single Substitution lookup 30 subtable" six.ten_coll
Substitution2: "Single Substitution lookup 29 subtable" six.ten_coll
EndChar

StartChar: seven.ten
Encoding: 65544 -1 8
Width: 320
Flags: HW
AnchorPoint: "Extension_mkmk" 0 384 mark 0
LayerCount: 2
Fore
SplineSet
1 374 m 0
 -2 374 -5 375 -7 377 c 0
 -11 381 -11 387 -7 391 c 0
 -5 393 -3 394 -1 394 c 0
 7 395 16 396 26 396 c 0
 44 396 62 393 76 388 c 0
 88 384 98 378 105 371 c 0
 112 364 116 356 116 346 c 0
 116 336 112 328 105 321 c 0
 98 314 88 308 76 304 c 0
 62 299 44 296 26 296 c 0
 -4 296 -29 303 -46 316 c 0
 -47 317 l 0
 -51 321 -51 327 -47 331 c 0
 -43 335 -38 335 -34 332 c 0
 -23 323 0 316 26 316 c 0
 42 316 57 319 69 323 c 0
 79 326 87 331 91 335 c 0
 95 339 96 343 96 346 c 0
 96 349 95 353 91 357 c 0
 87 361 79 366 69 369 c 0
 57 373 42 376 26 376 c 0
 18 376 9 375 1 374 c 0
EndSplineSet
Substitution2: "Single Substitution lookup 30 subtable" seven.ten_coll
Substitution2: "Single Substitution lookup 29 subtable" seven.ten_coll
EndChar

StartChar: eight.ten
Encoding: 65545 -1 9
Width: 320
Flags: HW
AnchorPoint: "Extension_mkmk" 0 384 mark 0
LayerCount: 2
Fore
SplineSet
1 394 m 0
 3 394 5 393 7 391 c 0
 11 387 11 381 7 377 c 0
 5 375 2 374 -1 374 c 0
 -9 375 -18 376 -26 376 c 0
 -42 376 -57 373 -69 369 c 0
 -79 366 -87 361 -91 357 c 0
 -95 353 -96 349 -96 346 c 0
 -96 343 -95 339 -91 335 c 0
 -87 331 -79 326 -69 323 c 0
 -57 319 -42 316 -26 316 c 0
 0 316 23 323 34 332 c 0
 38 335 43 335 47 331 c 0
 51 327 51 321 47 317 c 0
 46 316 l 0
 29 303 4 296 -26 296 c 0
 -44 296 -62 299 -76 304 c 0
 -88 308 -98 314 -105 321 c 0
 -112 328 -116 336 -116 346 c 0
 -116 356 -112 364 -105 371 c 0
 -98 378 -88 384 -76 388 c 0
 -62 393 -44 396 -26 396 c 0
 -16 396 -7 395 1 394 c 0
EndSplineSet
Substitution2: "Single Substitution lookup 30 subtable" eight.ten_coll
Substitution2: "Single Substitution lookup 29 subtable" eight.ten_coll
EndChar

StartChar: nine.ten
Encoding: 65546 -1 10
Width: 320
Flags: HW
AnchorPoint: "Extension_mkmk" 0 384 mark 0
LayerCount: 2
Fore
SplineSet
7 377 m 0
 3 373 -3 373 -7 377 c 0
 -11 381 -11 387 -7 391 c 0
 2 400 11 406 21 407 c 0
 33 409 45 404 53 396 c 0
 71 378 73 343 47 317 c 0
 43 313 37 313 33 317 c 0
 29 321 29 327 33 331 c 0
 52 350 48 373 39 382 c 0
 35 386 30 388 24 387 c 0
 19 386 14 384 7 377 c 0
EndSplineSet
Substitution2: "Single Substitution lookup 30 subtable" nine.ten_coll
Substitution2: "Single Substitution lookup 29 subtable" nine.ten_coll
EndChar

StartChar: one.hund
Encoding: 65547 -1 11
Width: 320
Flags: HW
HStem: 135 84G<78 84> 186 37<70 91>
VStem: 78 37<165 186>
AnchorPoint: "Extension_mkmk" 0 384 mark 0
LayerCount: 2
Fore
SplineSet
-0 394 m 0
 3 394 5 393 7 391 c 0
 11 387 11 381 7 377 c 0
 5 375 3 374 0 374 c 0
 -93 374 -140 409 -159 428 c 0
 -165 434 -168 438 -168 438 c 0
 -171 442 -170 448 -167 451 c 0
 -163 455 -157 455 -153 451 c 0
 -153 451 -152 451 -152 450 c 2
 -152 450 -150 447 -145 442 c 0
 -130 427 -87 394 -0 394 c 0
EndSplineSet
EndChar

StartChar: three.hund
Encoding: 65548 -1 12
Width: 320
Flags: HW
AnchorPoint: "Extension_mkmk" 0 384 mark 0
LayerCount: 2
Fore
SplineSet
10 384 m 0
 10 381 9 379 7 377 c 0
 3 373 -3 373 -7 377 c 0
 -9 379 -10 381 -10 384 c 0
 -10 398 -4 410 5 419 c 0
 7 421 9 423 12 425 c 1
 3 430 -3 435 -9 441 c 0
 -29 461 -30 482 -30 484 c 0
 -30 487 -29 489 -27 491 c 0
 -23 495 -17 495 -13 491 c 0
 -11 489 -10 487 -10 484 c 0
 -10 484 -10 480 -8 474 c 0
 -6 469 -2 463 5 456 c 0
 13 448 24 439 43 433 c 0
 45 432 47 432 48 430 c 0
 51 426 50 419 46 416 c 0
 44 415 42 414 40 414 c 0
 32 414 24 410 19 405 c 0
 14 400 10 392 10 384 c 0
EndSplineSet
EndChar

StartChar: four.hund
Encoding: 65549 -1 13
Width: 320
Flags: HW
AnchorPoint: "Extension_mkmk" 0 384 mark 0
LayerCount: 2
Fore
SplineSet
10 384 m 0
 10 381 9 379 7 377 c 0
 3 373 -3 373 -7 377 c 0
 -9 379 -10 381 -10 384 c 0
 -10 392 -14 400 -19 405 c 0
 -24 410 -32 414 -40 414 c 0
 -42 414 -44 415 -46 416 c 0
 -50 419 -51 426 -48 430 c 0
 -47 432 -45 432 -43 433 c 0
 -24 439 -13 448 -5 456 c 0
 2 463 6 469 8 474 c 0
 10 480 10 484 10 484 c 0
 10 487 11 489 13 491 c 0
 17 495 23 495 27 491 c 0
 29 489 30 487 30 484 c 0
 30 482 29 461 9 441 c 0
 3 435 -3 430 -12 425 c 1
 -9 423 -7 421 -5 419 c 0
 4 410 10 398 10 384 c 0
EndSplineSet
EndChar

StartChar: five.hund
Encoding: 65550 -1 14
Width: 320
Flags: HW
AnchorPoint: "Extension_mkmk" 0 384 mark 0
LayerCount: 2
Fore
SplineSet
38 394 m 1
 26 401 16 409 9 416 c 0
 -4 429 -9 439 -9 440 c 0
 -11 444 -10 448 -7 451 c 0
 -3 455 3 455 7 451 c 0
 8 450 9 449 9 448 c 2
 9 448 12 441 23 430 c 0
 39 414 69 394 120 394 c 0
 126 394 130 390 130 384 c 0
 130 378 126 374 120 374 c 2
 0 374 l 2
 -3 374 -5 375 -7 377 c 0
 -11 381 -11 387 -7 391 c 0
 -5 393 -3 394 -0 394 c 2
 38 394 l 1
EndSplineSet
EndChar

StartChar: six.hund
Encoding: 65551 -1 15
Width: 320
Flags: HW
AnchorPoint: "Extension_mkmk" 0 384 mark 0
LayerCount: 2
Fore
SplineSet
-120 374 m 2
 -126 374 -130 378 -130 384 c 0
 -130 390 -126 394 -120 394 c 0
 -69 394 -39 414 -23 430 c 0
 -12 441 -9 448 -9 448 c 2
 -9 449 -8 450 -7 451 c 0
 -3 455 3 455 7 451 c 0
 10 448 11 444 9 440 c 0
 9 439 4 429 -9 416 c 0
 -16 409 -26 401 -38 394 c 1
 -0 394 l 2
 3 394 5 393 7 391 c 0
 11 387 11 381 7 377 c 0
 5 375 3 374 0 374 c 2
 -120 374 l 2
EndSplineSet
EndChar

StartChar: seven.hund
Encoding: 65552 -1 16
Width: 320
Flags: HW
AnchorPoint: "Extension_mkmk" 0 384 mark 0
LayerCount: 2
Fore
SplineSet
-1 394 m 0
 2 394 5 393 7 391 c 0
 11 387 11 381 7 377 c 0
 5 375 3 374 1 374 c 0
 -7 373 -16 372 -26 372 c 0
 -44 372 -62 375 -76 380 c 0
 -88 384 -98 390 -105 397 c 0
 -112 404 -116 412 -116 422 c 0
 -116 432 -112 440 -105 447 c 0
 -98 454 -88 460 -76 464 c 0
 -62 469 -44 472 -26 472 c 0
 4 472 29 465 46 452 c 0
 47 451 l 0
 51 447 51 441 47 437 c 0
 43 433 38 433 34 436 c 0
 23 445 0 452 -26 452 c 0
 -42 452 -57 449 -69 445 c 0
 -79 442 -87 437 -91 433 c 0
 -95 429 -96 425 -96 422 c 0
 -96 419 -95 415 -91 411 c 0
 -87 407 -79 402 -69 399 c 0
 -57 395 -42 392 -26 392 c 0
 -18 392 -9 393 -1 394 c 0
EndSplineSet
EndChar

StartChar: eight.hund
Encoding: 65553 -1 17
Width: 320
Flags: HW
AnchorPoint: "Extension_mkmk" 0 384 mark 0
LayerCount: 2
Fore
SplineSet
-1 374 m 0
 -3 374 -5 375 -7 377 c 0
 -11 381 -11 387 -7 391 c 0
 -5 393 -2 394 1 394 c 0
 9 393 18 392 26 392 c 0
 42 392 57 395 69 399 c 0
 79 402 87 407 91 411 c 0
 95 415 96 419 96 422 c 0
 96 425 95 429 91 433 c 0
 87 437 79 442 69 445 c 0
 57 449 42 452 26 452 c 0
 0 452 -23 445 -34 436 c 0
 -38 433 -43 433 -47 437 c 0
 -51 441 -51 447 -47 451 c 0
 -46 452 l 0
 -29 465 -4 472 26 472 c 0
 44 472 62 469 76 464 c 0
 88 460 98 454 105 447 c 0
 112 440 116 432 116 422 c 0
 116 412 112 404 105 397 c 0
 98 390 88 384 76 380 c 0
 62 375 44 372 26 372 c 0
 16 372 7 373 -1 374 c 0
EndSplineSet
EndChar

StartChar: nine.hund
Encoding: 65554 -1 18
Width: 320
Flags: HW
AnchorPoint: "Extension_mkmk" 0 384 mark 0
LayerCount: 2
Fore
SplineSet
-7 391 m 0
 -3 395 3 395 7 391 c 0
 11 387 11 381 7 377 c 0
 -2 368 -11 362 -21 361 c 0
 -33 359 -45 364 -53 372 c 0
 -71 390 -73 425 -47 451 c 0
 -43 455 -37 455 -33 451 c 0
 -29 447 -29 441 -33 437 c 0
 -52 418 -48 395 -39 386 c 0
 -35 382 -30 380 -24 381 c 0
 -19 382 -14 384 -7 391 c 0
EndSplineSet
EndChar

StartChar: b
Encoding: 98 98 19
Width: 320
Flags: HW
AnchorPoint: "Diacritic_down" 160 -60 basechar 0
AnchorPoint: "Diacritic_up" 160 360 basechar 0
AnchorPoint: "Extension_up" 260 280 basechar 0
AnchorPoint: "Extension_down" 160 0 basechar 0
AnchorPoint: "Diacritic_left" 60 140 basechar 0
AnchorPoint: "Diacritic_right" 260 140 basechar 0
LayerCount: 2
Fore
SplineSet
182 163 m 1
 170 176 l 1
 170 160 l 1
 174 161 178 162 182 163 c 1
260 290 m 2
 263 290 265 289 267 287 c 0
 271 283 271 277 267 273 c 0
 265 271 263 270 260 270 c 2
 70 270 l 1
 72 236 86 203 107 182 c 0
 117 172 128 165 141 162 c 0
 144 161 147 160 150 160 c 1
 150 173 150 187 150 200 c 0
 150 201 150 203 151 204 c 0
 153 209 159 211 164 209 c 0
 165 208 166 208 167 207 c 2
 207 167 l 2
 208 166 l 0
 211 162 210 155 206 152 c 0
 204 151 l 0
 192 145 181 141 170 140 c 1
 170 0 l 2
 170 -3 169 -5 167 -7 c 0
 163 -11 157 -11 153 -7 c 0
 151 -5 150 -3 150 -0 c 0
 150 47 150 93 150 140 c 1
 145 140 140 141 136 142 c 0
 119 146 105 156 93 168 c 0
 66 195 50 238 50 280 c 0
 50 281 l 0
 51 286 55 290 60 290 c 2
 260 290 l 2
EndSplineSet
Substitution2: "Single Substitution lookup 19 subtable" b.ext.up
Substitution2: "Single Substitution lookup 18 subtable" b.ext.down
EndChar

StartChar: c
Encoding: 99 99 20
Width: 320
Flags: HW
AnchorPoint: "Diacritic_right" 200 140 basechar 0
AnchorPoint: "Diacritic_left" 0 140 basechar 0
AnchorPoint: "Diacritic_down" 160 -60 basechar 0
AnchorPoint: "Diacritic_up" 160 360 basechar 0
AnchorPoint: "Extension_up" 60 280 basechar 0
AnchorPoint: "Extension_down" 260 0 basechar 0
LayerCount: 2
Fore
SplineSet
50 280 m 2
 50 283 51 285 53 287 c 0
 57 291 63 291 67 287 c 0
 69 285 70 283 70 280 c 2
 70 10 l 1
 260 10 l 2
 263 10 265 9 267 7 c 0
 271 3 271 -3 267 -7 c 0
 265 -9 263 -10 260 -10 c 2
 60 -10 l 2
 59 -10 l 0
 54 -10 50 -5 50 -0 c 2
 50 280 l 2
EndSplineSet
Substitution2: "Single Substitution lookup 19 subtable" c.ext.up
Substitution2: "Single Substitution lookup 18 subtable" c.ext.down
EndChar

StartChar: d
Encoding: 100 100 21
Width: 320
Flags: HW
AnchorPoint: "Diacritic_left" 0 140 basechar 0
AnchorPoint: "Diacritic_right" 200 140 basechar 0
AnchorPoint: "Diacritic_down" 160 -60 basechar 0
AnchorPoint: "Diacritic_up" 160 360 basechar 0
AnchorPoint: "Extension_up" 260 280 basechar 0
AnchorPoint: "Extension_down" 100 0 basechar 0
LayerCount: 2
Fore
SplineSet
260 290 m 2
 263 290 265 289 267 287 c 0
 271 283 271 277 267 273 c 0
 265 271 263 270 260 270 c 2
 70 270 l 1
 70 164 l 1
 93 187 l 2
 94 188 95 188 96 189 c 0
 101 191 107 189 109 184 c 0
 110 183 110 181 110 180 c 2
 110 0 l 2
 110 -3 109 -5 107 -7 c 0
 103 -11 97 -11 93 -7 c 0
 91 -5 90 -3 90 -0 c 2
 90 156 l 1
 67 133 l 2
 66 132 65 132 64 131 c 0
 59 129 53 131 51 136 c 0
 50 137 50 139 50 140 c 2
 50 280 l 2
 50 281 l 0
 51 286 55 290 60 290 c 2
 260 290 l 2
EndSplineSet
Substitution2: "Single Substitution lookup 19 subtable" d.ext.up
Substitution2: "Single Substitution lookup 18 subtable" d.ext.down
EndChar

StartChar: f
Encoding: 102 102 22
Width: 320
Flags: HW
AnchorPoint: "Diacritic_left" 60 140 basechar 0
AnchorPoint: "Diacritic_right" 260 140 basechar 0
AnchorPoint: "Diacritic_down" 160 -60 basechar 0
AnchorPoint: "Diacritic_up" 160 360 basechar 0
AnchorPoint: "Extension_down" 180 0 basechar 0
AnchorPoint: "Extension_up" 260 280 basechar 0
LayerCount: 2
Fore
SplineSet
260 290 m 0
 263 290 265 289 267 287 c 0
 271 283 271 277 267 273 c 0
 265 271 263 270 260 270 c 0
 196 270 153 267 123 261 c 0
 99 256 85 249 78 242 c 0
 72 236 70 229 70 220 c 0
 70 205 75 194 82 187 c 0
 94 175 114 170 133 168 c 0
 157 166 178 170 178 170 c 2
 179 170 l 0
 185 170 190 166 190 161 c 0
 190 160 l 2
 190 0 l 2
 190 -3 189 -5 187 -7 c 0
 183 -11 177 -11 173 -7 c 0
 171 -5 170 -3 170 -0 c 2
 170 149 l 1
 161 148 146 148 131 149 c 0
 110 151 85 156 68 173 c 0
 57 184 50 200 50 220 c 0
 50 233 54 246 64 256 c 0
 75 267 94 275 119 280 c 0
 151 287 196 290 260 290 c 0
EndSplineSet
Substitution2: "Single Substitution lookup 19 subtable" f.ext.up
Substitution2: "Single Substitution lookup 18 subtable" f.ext.down
EndChar

StartChar: g
Encoding: 103 103 23
Width: 320
Flags: HW
HStem: -244 84G<351 446> -4 40<223 431>
AnchorPoint: "Diacritic_right" 260 140 basechar 0
AnchorPoint: "Diacritic_left" 60 140 basechar 0
AnchorPoint: "Diacritic_down" 160 -60 basechar 0
AnchorPoint: "Diacritic_up" 160 360 basechar 0
AnchorPoint: "Extension_down" 240 0 basechar 0
AnchorPoint: "Extension_up" 280 280 basechar 0
LayerCount: 2
Fore
SplineSet
280 290 m 2
 283 290 285 289 287 287 c 0
 291 283 291 277 287 273 c 0
 285 271 283 270 280 270 c 2
 50 270 l 1
 52 221 67 193 84 176 c 0
 95 165 108 158 118 154 c 0
 123 152 127 152 131 151 c 0
 133 158 137 163 142 168 c 0
 149 175 159 180 170 180 c 0
 187 180 201 173 212 162 c 0
 222 152 229 140 234 127 c 0
 240 110 245 93 247 75 c 0
 252 36 250 -1 250 -1 c 0
 250 -3 249 -5 247 -7 c 0
 243 -11 237 -11 233 -7 c 0
 231 -5 230 -2 230 1 c 2
 230 1 232 35 227 72 c 0
 225 89 221 106 215 120 c 0
 210 132 205 141 198 148 c 0
 190 156 182 160 170 160 c 0
 164 160 159 157 156 154 c 0
 153 151 150 146 150 140 c 0
 150 140 l 0
 150 134 146 130 140 130 c 0
 139 130 101 130 70 161 c 0
 48 183 30 220 30 280 c 0
 30 281 l 0
 30 286 35 290 40 290 c 2
 280 290 l 2
EndSplineSet
Substitution2: "Single Substitution lookup 19 subtable" g.ext.up
Substitution2: "Single Substitution lookup 18 subtable" g.ext.down
EndChar

StartChar: h
Encoding: 104 104 24
Width: 320
Flags: HW
AnchorPoint: "Diacritic_right" 290 140 basechar 0
AnchorPoint: "Diacritic_left" 30 140 basechar 0
AnchorPoint: "Diacritic_down" 160 -60 basechar 0
AnchorPoint: "Diacritic_up" 160 360 basechar 0
AnchorPoint: "Extension_down" 200 0 basechar 0
AnchorPoint: "Extension_up" 80 280 basechar 0
LayerCount: 2
Fore
SplineSet
216 130 m 1
 210 136 l 1
 210 130 l 1
 216 130 l 1
70 280 m 2
 70 283 71 285 73 287 c 0
 77 291 83 291 87 287 c 0
 89 285 90 283 90 280 c 2
 90 130 l 1
 190 130 l 1
 190 140 190 150 190 160 c 0
 190 161 190 163 191 164 c 0
 193 169 199 171 204 169 c 0
 205 168 206 168 207 167 c 2
 247 127 l 2
 248 126 248 125 249 124 c 0
 251 119 249 113 244 111 c 0
 243 110 241 110 240 110 c 0
 230 110 220 110 210 110 c 1
 210 0 l 2
 210 -3 209 -5 207 -7 c 0
 203 -11 197 -11 193 -7 c 0
 191 -5 190 -3 190 -0 c 0
 190 37 190 73 190 110 c 1
 153 110 117 110 80 110 c 0
 75 110 70 115 70 120 c 0
 70 120 l 2
 70 280 l 2
EndSplineSet
Substitution2: "Single Substitution lookup 19 subtable" h.ext.up
Substitution2: "Single Substitution lookup 18 subtable" h.ext.down
EndChar

StartChar: j
Encoding: 106 106 25
Width: 320
Flags: HW
AnchorPoint: "Diacritic_left" 10 140 basechar 0
AnchorPoint: "Diacritic_right" 240 140 basechar 0
AnchorPoint: "Diacritic_down" 160 -60 basechar 0
AnchorPoint: "Diacritic_up" 160 360 basechar 0
AnchorPoint: "Extension_down" 260 0 basechar 0
AnchorPoint: "Extension_up" 260 280 basechar 0
LayerCount: 2
Fore
SplineSet
260 290 m 0
 263 290 265 289 267 287 c 0
 271 283 271 277 267 273 c 0
 265 271 263 270 260 270 c 0
 208 270 171 265 144 257 c 0
 123 251 108 243 99 234 c 0
 86 221 82 205 84 186 c 0
 86 162 97 134 108 108 c 0
 117 87 126 67 129 48 c 0
 131 35 129 21 121 10 c 1
 260 10 l 2
 263 10 265 9 267 7 c 0
 271 3 271 -3 267 -7 c 0
 265 -9 263 -10 260 -10 c 2
 60 -10 l 2
 54 -10 50 -6 50 0 c 0
 50 6 54 10 60 10 c 0
 86 10 98 15 104 21 c 0
 109 26 111 33 109 45 c 0
 107 60 99 79 90 100 c 0
 79 126 66 156 64 184 c 0
 62 207 67 230 85 248 c 0
 97 260 114 269 138 276 c 0
 167 285 207 290 260 290 c 0
EndSplineSet
Substitution2: "Single Substitution lookup 19 subtable" j.ext.up
Substitution2: "Single Substitution lookup 18 subtable" j.ext.down
EndChar

StartChar: k
Encoding: 107 107 26
Width: 320
Flags: HW
AnchorPoint: "Diacritic_right" 200 140 basechar 0
AnchorPoint: "Diacritic_left" 0 140 basechar 0
AnchorPoint: "Diacritic_down" 160 -60 basechar 0
AnchorPoint: "Diacritic_up" 160 360 basechar 0
AnchorPoint: "Extension_down" 200 0 basechar 0
AnchorPoint: "Extension_up" 280 280 basechar 0
LayerCount: 2
Fore
SplineSet
280 290 m 2
 283 290 285 289 287 287 c 0
 291 283 291 277 287 273 c 0
 285 271 283 270 280 270 c 2
 48 270 l 1
 29 164 57 96 97 56 c 0
 129 24 168 10 200 10 c 0
 203 10 205 9 207 7 c 0
 211 3 211 -3 207 -7 c 0
 205 -9 203 -10 200 -10 c 0
 162 -10 117 6 82 41 c 0
 36 87 7 166 30 282 c 0
 31 287 35 290 40 290 c 2
 280 290 l 2
EndSplineSet
Substitution2: "Single Substitution lookup 19 subtable" k.ext.up
Substitution2: "Single Substitution lookup 18 subtable" k.ext.down
EndChar

StartChar: l
Encoding: 108 108 27
Width: 320
Flags: HW
AnchorPoint: "Diacritic_left" 20 140 basechar 0
AnchorPoint: "Diacritic_right" 220 140 basechar 0
AnchorPoint: "Diacritic_down" 160 -60 basechar 0
AnchorPoint: "Diacritic_up" 160 360 basechar 0
AnchorPoint: "Extension_up" 60 280 basechar 0
AnchorPoint: "Extension_down" 260 0 basechar 0
LayerCount: 2
Fore
SplineSet
50 280 m 2
 50 283 51 285 53 287 c 0
 57 291 63 291 67 287 c 0
 69 285 70 283 70 280 c 2
 70 150 l 1
 98 150 119 147 135 143 c 0
 149 139 160 134 167 127 c 0
 172 122 175 116 176 110 c 0
 178 101 175 92 171 84 c 0
 166 74 158 63 148 53 c 0
 131 36 111 21 94 10 c 1
 260 10 l 2
 263 10 265 9 267 7 c 0
 271 3 271 -3 267 -7 c 0
 265 -9 263 -10 260 -10 c 2
 60 -10 l 2
 58 -10 57 -10 55 -9 c 0
 50 -6 48 0 51 5 c 0
 52 7 54 8 55 9 c 2
 55 9 104 38 134 68 c 0
 143 77 149 85 153 92 c 0
 156 98 157 103 156 106 c 0
 156 108 155 111 153 113 c 0
 149 117 142 121 130 124 c 0
 115 128 91 130 60 130 c 0
 59 130 59 130 58 130 c 0
 53 131 50 135 50 140 c 2
 50 280 l 2
EndSplineSet
Substitution2: "Single Substitution lookup 19 subtable" l.ext.up
Substitution2: "Single Substitution lookup 18 subtable" l.ext.down
EndChar

StartChar: m
Encoding: 109 109 28
Width: 320
Flags: HW
AnchorPoint: "Diacritic_right" 230 140 basechar 0
AnchorPoint: "Diacritic_left" 30 140 basechar 0
AnchorPoint: "Diacritic_down" 160 -60 basechar 0
AnchorPoint: "Diacritic_up" 160 360 basechar 0
AnchorPoint: "Extension_up" 90 280 basechar 0
AnchorPoint: "Extension_down" 230 0 basechar 0
LayerCount: 2
Fore
SplineSet
80 280 m 2
 80 283 81 285 83 287 c 0
 87 291 93 291 97 287 c 0
 99 285 100 283 100 280 c 2
 100 150 l 1
 150 148 183 133 204 112 c 0
 240 76 240 24 240 0 c 0
 240 -3 239 -5 237 -7 c 0
 233 -11 227 -11 223 -7 c 0
 221 -5 220 -3 220 -0 c 0
 220 25 219 69 190 98 c 0
 172 116 142 130 90 130 c 0
 89 130 89 130 88 130 c 0
 83 131 80 135 80 140 c 2
 80 280 l 2
EndSplineSet
Substitution2: "Single Substitution lookup 19 subtable" m.ext.up
Substitution2: "Single Substitution lookup 18 subtable" m.ext.down
EndChar

StartChar: n
Encoding: 110 110 29
Width: 320
Flags: HW
AnchorPoint: "Diacritic_right" 240 140 basechar 0
AnchorPoint: "Diacritic_left" 40 140 basechar 0
AnchorPoint: "Diacritic_down" 160 -60 basechar 0
AnchorPoint: "Diacritic_up" 160 360 basechar 0
AnchorPoint: "Extension_up" 90 280 basechar 0
AnchorPoint: "Extension_down" 230 0 basechar 0
LayerCount: 2
Fore
SplineSet
80 280 m 2
 80 283 81 285 83 287 c 0
 87 291 93 291 97 287 c 0
 99 285 100 283 100 280 c 2
 100 160 l 2
 100 152 104 144 109 139 c 0
 112 136 116 132 121 131 c 1
 123 142 128 152 135 159 c 0
 142 166 150 170 160 170 c 0
 178 170 194 163 205 152 c 0
 219 138 227 118 232 95 c 0
 238 66 240 33 240 0 c 0
 240 -3 239 -5 237 -7 c 0
 233 -11 227 -11 223 -7 c 0
 221 -5 220 -3 220 -0 c 0
 220 32 218 65 212 91 c 0
 207 112 201 128 191 138 c 0
 183 146 173 150 160 150 c 0
 156 150 152 148 149 145 c 0
 144 140 140 131 140 120 c 0
 140 119 140 117 139 116 c 0
 137 112 134 110 130 110 c 0
 116 110 104 116 95 125 c 0
 86 134 80 146 80 160 c 2
 80 280 l 2
EndSplineSet
Substitution2: "Single Substitution lookup 19 subtable" n.ext.up
Substitution2: "Single Substitution lookup 18 subtable" n.ext.down
EndChar

StartChar: p
Encoding: 112 112 30
Width: 320
Flags: HW
AnchorPoint: "Diacritic_left" 40 140 basechar 0
AnchorPoint: "Diacritic_right" 240 140 basechar 0
AnchorPoint: "Diacritic_down" 160 -60 basechar 0
AnchorPoint: "Diacritic_up" 160 360 basechar 0
AnchorPoint: "Extension_down" 180 0 basechar 0
AnchorPoint: "Extension_up" 260 280 basechar 0
LayerCount: 2
Fore
SplineSet
260 290 m 2
 263 290 265 289 267 287 c 0
 271 283 271 277 267 273 c 0
 265 271 263 270 260 270 c 2
 70 270 l 1
 72 237 81 213 97 197 c 0
 114 180 142 170 180 170 c 0
 182 170 183 169 185 168 c 0
 188 166 190 163 190 160 c 2
 190 0 l 2
 190 -3 189 -5 187 -7 c 0
 183 -11 177 -11 173 -7 c 0
 171 -5 170 -3 170 -0 c 2
 170 150 l 1
 133 152 104 162 83 183 c 0
 60 206 50 238 50 280 c 0
 50 281 l 0
 51 286 55 290 60 290 c 2
 260 290 l 2
EndSplineSet
Substitution2: "Single Substitution lookup 19 subtable" p.ext.up
Substitution2: "Single Substitution lookup 18 subtable" p.ext.down
EndChar

StartChar: r
Encoding: 114 114 31
Width: 320
Flags: HW
AnchorPoint: "Diacritic_right" 260 140 basechar 0
AnchorPoint: "Diacritic_left" 60 140 basechar 0
AnchorPoint: "Diacritic_down" 160 -60 basechar 0
AnchorPoint: "Diacritic_up" 160 360 basechar 0
AnchorPoint: "Extension_up" 60 280 basechar 0
AnchorPoint: "Extension_down" 260 0 basechar 0
LayerCount: 2
Fore
SplineSet
60 270 m 0
 57 270 55 271 53 273 c 0
 49 277 49 283 53 287 c 0
 55 289 57 290 60 290 c 0
 102 290 135 277 157 255 c 0
 174 238 185 215 189 190 c 0
 196 141 176 83 131 38 c 0
 121 28 110 19 97 10 c 1
 260 10 l 2
 263 10 265 9 267 7 c 0
 271 3 271 -3 267 -7 c 0
 265 -9 263 -10 260 -10 c 2
 60 -10 l 2
 58 -10 57 -9 55 -8 c 0
 50 -5 49 0 52 5 c 0
 53 7 54 8 56 9 c 0
 80 21 100 36 116 52 c 0
 158 94 175 145 169 187 c 0
 166 208 157 226 143 240 c 0
 125 258 98 270 60 270 c 0
EndSplineSet
Substitution2: "Single Substitution lookup 19 subtable" r.ext.up
Substitution2: "Single Substitution lookup 18 subtable" r.ext.down
EndChar

StartChar: s
Encoding: 115 115 32
Width: 320
Flags: HW
AnchorPoint: "Diacritic_left" 0 140 basechar 0
AnchorPoint: "Diacritic_right" 240 140 basechar 0
AnchorPoint: "Diacritic_down" 160 -60 basechar 0
AnchorPoint: "Diacritic_up" 160 360 basechar 0
AnchorPoint: "Extension_up" 260 280 basechar 0
AnchorPoint: "Extension_down" 220 0 basechar 0
LayerCount: 2
Fore
SplineSet
250 282 m 0
 250 284 252 286 253 287 c 0
 257 291 263 291 267 287 c 0
 269 285 271 281 270 278 c 0
 261 226 245 193 224 172 c 0
 201 149 172 144 147 147 c 0
 124 150 104 160 88 169 c 0
 82 173 76 176 71 179 c 1
 75 114 94 76 119 51 c 0
 154 16 199 10 220 10 c 0
 223 10 225 9 227 7 c 0
 231 3 231 -3 227 -7 c 0
 225 -9 223 -10 220 -10 c 0
 196 -10 145 -3 105 37 c 0
 74 68 50 119 50 200 c 0
 50 201 51 203 51 204 c 0
 53 209 59 211 64 209 c 0
 65 209 66 209 67 208 c 2
 67 208 107 173 150 167 c 0
 171 164 192 168 210 186 c 0
 227 203 241 232 250 282 c 0
EndSplineSet
Substitution2: "Single Substitution lookup 19 subtable" s.ext.up
Substitution2: "Single Substitution lookup 18 subtable" s.ext.down
EndChar

StartChar: t
Encoding: 116 116 33
Width: 320
Flags: HW
AnchorPoint: "Diacritic_left" 0 140 basechar 0
AnchorPoint: "Diacritic_right" 200 140 basechar 0
AnchorPoint: "Diacritic_down" 160 -60 basechar 0
AnchorPoint: "Diacritic_up" 160 360 basechar 0
AnchorPoint: "Extension_up" 260 280 basechar 0
AnchorPoint: "Extension_down" 60 0 basechar 0
LayerCount: 2
Fore
SplineSet
260 290 m 2
 263 290 265 289 267 287 c 0
 271 283 271 277 267 273 c 0
 265 271 263 270 260 270 c 2
 70 270 l 1
 70 0 l 2
 70 -3 69 -5 67 -7 c 0
 63 -11 57 -11 53 -7 c 0
 51 -5 50 -3 50 -0 c 2
 50 280 l 2
 50 281 l 0
 51 286 55 290 60 290 c 2
 260 290 l 2
EndSplineSet
Substitution2: "Single Substitution lookup 19 subtable" t.ext.up
Substitution2: "Single Substitution lookup 18 subtable" t.ext.down
EndChar

StartChar: v
Encoding: 118 118 34
Width: 320
Flags: HW
HStem: -244 84G<300 340> -104 40<271 300> -4 40<240 400>
VStem: 200 40<-94 -4> 300 40<-204 -104>
AnchorPoint: "Diacritic_left" 60 140 basechar 0
AnchorPoint: "Diacritic_right" 260 140 basechar 0
AnchorPoint: "Diacritic_down" 160 -60 basechar 0
AnchorPoint: "Diacritic_up" 160 360 basechar 0
AnchorPoint: "Extension_up" 260 280 basechar 0
AnchorPoint: "Extension_down" 60 0 basechar 0
LayerCount: 2
Fore
SplineSet
112 157 m 1
 120 147 l 1
 120 150 121 154 121 157 c 0
 118 157 115 157 112 157 c 1
260 290 m 0
 263 290 265 289 267 287 c 0
 271 283 271 277 267 273 c 0
 265 271 263 270 260 270 c 0
 212 270 184 260 168 244 c 0
 158 234 150 220 146 202 c 0
 144 194 143 185 142 175 c 1
 154 173 164 171 173 168 c 0
 190 163 202 156 211 147 c 0
 221 137 226 125 226 112 c 0
 226 102 222 91 217 81 c 0
 211 70 203 60 193 50 c 0
 175 32 150 15 124 4 c 0
 103 -5 81 -10 60 -10 c 0
 57 -10 55 -9 53 -7 c 0
 49 -3 49 3 53 7 c 0
 55 9 57 10 60 10 c 0
 78 10 97 15 116 23 c 0
 140 33 163 48 179 64 c 0
 188 73 194 82 199 91 c 0
 203 99 206 106 206 112 c 0
 206 120 204 126 197 133 c 0
 191 139 181 145 167 149 c 0
 160 151 151 154 141 155 c 1
 141 144 140 132 140 120 c 0
 140 119 140 117 139 116 c 0
 137 111 131 109 126 111 c 0
 125 112 123 113 122 114 c 2
 82 162 l 2
 81 163 81 164 81 165 c 0
 79 170 82 175 87 177 c 0
 88 177 89 178 90 178 c 0
 102 178 112 178 122 177 c 1
 123 188 125 198 127 207 c 0
 132 227 139 244 153 258 c 0
 175 280 209 290 260 290 c 0
EndSplineSet
Substitution2: "Single Substitution lookup 19 subtable" v.ext.up
Substitution2: "Single Substitution lookup 18 subtable" v.ext.down
EndChar

StartChar: x
Encoding: 120 120 35
Width: 320
Flags: HW
HStem: -244 84G<269 379> -4 40<229 431>
AnchorPoint: "Diacritic_left" 40 140 basechar 0
AnchorPoint: "Diacritic_right" 240 140 basechar 0
AnchorPoint: "Diacritic_up" 160 360 basechar 0
AnchorPoint: "Diacritic_down" 160 -60 basechar 0
AnchorPoint: "Extension_up" 280 280 basechar 0
AnchorPoint: "Extension_down" 280 0 basechar 0
LayerCount: 2
Fore
SplineSet
280 290 m 2
 283 290 285 289 287 287 c 0
 291 283 291 277 287 273 c 0
 285 271 283 270 280 270 c 2
 50 270 l 1
 51 214 63 185 78 170 c 0
 97 151 127 150 160 150 c 0
 162 150 163 149 165 148 c 0
 168 146 170 143 170 140 c 0
 170 78 182 46 198 30 c 0
 217 11 247 10 280 10 c 0
 283 10 285 9 287 7 c 0
 291 3 291 -3 287 -7 c 0
 285 -9 283 -10 280 -10 c 0
 248 -10 211 -11 184 16 c 0
 163 37 151 72 150 130 c 1
 120 130 88 132 64 156 c 0
 42 178 30 216 30 280 c 0
 30 281 l 0
 30 286 35 290 40 290 c 2
 280 290 l 2
EndSplineSet
Substitution2: "Single Substitution lookup 19 subtable" x.ext.up
Substitution2: "Single Substitution lookup 18 subtable" x.ext.down
EndChar

StartChar: z
Encoding: 122 122 36
Width: 320
Flags: HW
AnchorPoint: "Diacritic_left" 0 140 basechar 0
AnchorPoint: "Diacritic_right" 300 140 basechar 0
AnchorPoint: "Diacritic_up" 160 360 basechar 0
AnchorPoint: "Diacritic_down" 160 -60 basechar 0
AnchorPoint: "Extension_up" 80 280 basechar 0
AnchorPoint: "Extension_down" 240 0 basechar 0
LayerCount: 2
Fore
SplineSet
71 157 m 1
 64 150 l 1
 71 150 l 1
 71 152 71 155 71 157 c 1
80 270 m 0
 77 270 75 271 73 273 c 0
 69 277 69 283 73 287 c 0
 75 289 77 290 80 290 c 0
 140 290 180 271 206 245 c 0
 250 201 250 140 250 140 c 1
 250 134 246 130 240 130 c 0
 191 130 143 130 94 130 c 1
 101 91 115 66 133 48 c 0
 164 17 207 10 240 10 c 0
 243 10 245 9 247 7 c 0
 251 3 251 -3 247 -7 c 0
 245 -9 243 -10 240 -10 c 0
 205 -10 155 -4 118 33 c 0
 97 54 81 86 74 130 c 1
 63 130 51 130 40 130 c 0
 39 130 37 130 36 131 c 0
 31 133 29 139 31 144 c 0
 32 145 32 146 33 147 c 2
 73 187 l 2
 74 188 75 188 76 189 c 0
 81 191 87 189 89 184 c 0
 90 183 90 181 90 180 c 0
 90 169 90 159 91 150 c 1
 229 150 l 1
 227 167 220 203 192 231 c 0
 170 253 136 270 80 270 c 0
EndSplineSet
Substitution2: "Single Substitution lookup 19 subtable" z.ext.up
Substitution2: "Single Substitution lookup 18 subtable" z.ext.down
EndChar

StartChar: zcaron
Encoding: 382 382 37
Width: 320
Flags: HW
AnchorPoint: "Diacritic_right" 280 140 basechar 0
AnchorPoint: "Diacritic_left" 40 140 basechar 0
AnchorPoint: "Diacritic_up" 160 360 basechar 0
AnchorPoint: "Diacritic_down" 160 -60 basechar 0
AnchorPoint: "Extension_up" 100 280 basechar 0
AnchorPoint: "Extension_down" 220 0 basechar 0
LayerCount: 2
Fore
SplineSet
90 280 m 0
 90 283 91 285 93 287 c 0
 97 291 103 291 107 287 c 0
 109 285 110 283 110 280 c 0
 110 237 122 201 145 178 c 0
 163 160 187 150 220 150 c 0
 226 150 230 146 230 140 c 0
 230 134 226 130 220 130 c 0
 172 130 140 117 124 101 c 0
 113 90 109 78 110 67 c 0
 111 58 115 48 124 39 c 0
 140 23 172 10 220 10 c 0
 223 10 225 9 227 7 c 0
 231 3 231 -3 227 -7 c 0
 225 -9 223 -10 220 -10 c 0
 168 -10 131 4 110 25 c 0
 96 39 88 57 90 75 c 0
 91 89 99 104 110 115 c 0
 122 127 139 137 161 143 c 1
 150 149 140 155 131 164 c 0
 103 192 90 233 90 280 c 0
EndSplineSet
Substitution2: "Single Substitution lookup 19 subtable" zcaron.ext.up
Substitution2: "Single Substitution lookup 18 subtable" zcaron.ext.down
EndChar

StartChar: zdotaccent
Encoding: 380 380 38
Width: 320
Flags: HW
AnchorPoint: "Diacritic_right" 260 140 basechar 0
AnchorPoint: "Diacritic_left" 20 140 basechar 0
AnchorPoint: "Diacritic_up" 160 360 basechar 0
AnchorPoint: "Diacritic_down" 160 -60 basechar 0
AnchorPoint: "Extension_up" 120 280 basechar 0
AnchorPoint: "Extension_down" 260 0 basechar 0
LayerCount: 2
Fore
SplineSet
110 280 m 2
 110 283 111 285 113 287 c 0
 117 291 123 291 127 287 c 0
 129 285 130 283 130 280 c 2
 130 48 l 2
 130 34 124 21 114 11 c 0
 113 10 l 1
 260 10 l 2
 263 10 265 9 267 7 c 0
 271 3 271 -3 267 -7 c 0
 265 -9 263 -10 260 -10 c 2
 60 -10 l 2
 54 -10 50 -6 50 0 c 0
 50 6 54 10 60 10 c 0
 76 10 91 16 100 25 c 0
 107 32 110 40 110 48 c 2
 110 280 l 2
EndSplineSet
Substitution2: "Single Substitution lookup 19 subtable" zdotaccent.ext.up
Substitution2: "Single Substitution lookup 18 subtable" zdotaccent.ext.down
EndChar

StartChar: tcedilla
Encoding: 355 355 39
Width: 320
Flags: HW
AnchorPoint: "Diacritic_right" 260 140 basechar 0
AnchorPoint: "Diacritic_left" 20 140 basechar 0
AnchorPoint: "Diacritic_up" 160 360 basechar 0
AnchorPoint: "Diacritic_down" 160 -60 basechar 0
AnchorPoint: "Extension_up" 260 280 basechar 0
AnchorPoint: "Extension_down" 200 0 basechar 0
LayerCount: 2
Fore
SplineSet
260 290 m 0
 263 290 265 289 267 287 c 0
 271 283 271 277 267 273 c 0
 265 271 263 270 260 270 c 0
 169 270 122 249 98 225 c 0
 74 201 71 171 70 150 c 1
 120 148 153 133 174 112 c 0
 210 76 210 24 210 0 c 0
 210 -3 209 -5 207 -7 c 0
 203 -11 197 -11 193 -7 c 0
 191 -5 190 -3 190 -0 c 0
 190 25 189 69 160 98 c 0
 142 116 112 130 60 130 c 0
 59 130 59 130 58 130 c 0
 53 131 50 135 50 140 c 0
 50 162 49 204 84 239 c 0
 113 268 166 290 260 290 c 0
EndSplineSet
Substitution2: "Single Substitution lookup 19 subtable" tcedilla.ext.up
Substitution2: "Single Substitution lookup 18 subtable" tcedilla.ext.down
EndChar

StartChar: scaron
Encoding: 353 353 40
Width: 320
Flags: HW
AnchorPoint: "Diacritic_right" 260 140 basechar 0
AnchorPoint: "Diacritic_left" 20 140 basechar 0
AnchorPoint: "Diacritic_up" 160 360 basechar 0
AnchorPoint: "Diacritic_down" 160 -60 basechar 0
AnchorPoint: "Extension_up" 180 280 basechar 0
AnchorPoint: "Extension_down" 260 0 basechar 0
LayerCount: 2
Fore
SplineSet
260 10 m 0
 263 10 265 9 267 7 c 0
 271 3 271 -3 267 -7 c 0
 265 -9 263 -10 260 -10 c 0
 196 -10 151 -7 119 -0 c 0
 94 5 75 13 64 24 c 0
 54 34 50 47 50 60 c 0
 50 80 57 96 68 107 c 0
 85 124 110 129 131 131 c 0
 146 132 161 132 170 131 c 1
 170 280 l 2
 170 283 171 285 173 287 c 0
 177 291 183 291 187 287 c 0
 189 285 190 283 190 280 c 2
 190 120 l 2
 190 119 l 0
 190 114 185 110 179 110 c 0
 178 110 l 2
 178 110 157 114 133 112 c 0
 114 110 94 105 82 93 c 0
 75 86 70 75 70 60 c 0
 70 51 72 44 78 38 c 0
 85 31 99 24 123 19 c 0
 153 13 196 10 260 10 c 0
EndSplineSet
Substitution2: "Single Substitution lookup 19 subtable" scaron.ext.up
Substitution2: "Single Substitution lookup 18 subtable" scaron.ext.down
EndChar

StartChar: rcaron
Encoding: 345 345 41
Width: 320
Flags: HW
AnchorPoint: "Diacritic_right" 260 140 basechar 0
AnchorPoint: "Diacritic_left" 20 140 basechar 0
AnchorPoint: "Diacritic_up" 160 360 basechar 0
AnchorPoint: "Diacritic_down" 160 -60 basechar 0
AnchorPoint: "Extension_up" 60 280 basechar 0
AnchorPoint: "Extension_down" 260 0 basechar 0
LayerCount: 2
Fore
SplineSet
200 147 m 1
 208 157 l 1
 205 157 202 157 199 157 c 0
 199 154 200 150 200 147 c 1
60 270 m 0
 57 270 55 271 53 273 c 0
 49 277 49 283 53 287 c 0
 55 289 57 290 60 290 c 0
 111 290 145 280 167 258 c 0
 181 244 188 227 193 207 c 0
 195 198 197 188 198 177 c 1
 208 178 218 178 230 178 c 0
 231 178 232 177 233 177 c 0
 238 175 241 170 239 165 c 0
 239 164 239 163 238 162 c 2
 198 114 l 2
 197 113 195 112 194 111 c 0
 189 109 183 111 181 116 c 0
 180 117 180 119 180 120 c 0
 180 132 179 144 179 155 c 1
 169 154 160 151 153 149 c 0
 139 145 129 139 123 133 c 0
 116 126 114 120 114 112 c 0
 114 106 117 99 121 91 c 0
 126 82 132 73 141 64 c 0
 157 48 180 33 204 23 c 0
 223 15 242 10 260 10 c 0
 263 10 265 9 267 7 c 0
 271 3 271 -3 267 -7 c 0
 265 -9 263 -10 260 -10 c 0
 239 -10 217 -5 196 4 c 0
 170 15 145 32 127 50 c 0
 117 60 109 70 103 81 c 0
 98 91 94 102 94 112 c 0
 94 125 99 137 109 147 c 0
 118 156 130 163 147 168 c 0
 156 171 166 173 178 175 c 1
 177 185 176 194 174 202 c 0
 170 220 162 234 152 244 c 0
 136 260 108 270 60 270 c 0
EndSplineSet
Substitution2: "Single Substitution lookup 19 subtable" rcaron.ext.up
Substitution2: "Single Substitution lookup 18 subtable" rcaron.ext.down
EndChar

StartChar: ncaron
Encoding: 328 328 42
Width: 320
Flags: HW
AnchorPoint: "Diacritic_right" 260 140 basechar 0
AnchorPoint: "Diacritic_left" 20 140 basechar 0
AnchorPoint: "Diacritic_up" 160 360 basechar 0
AnchorPoint: "Diacritic_down" 160 -60 basechar 0
AnchorPoint: "Extension_up" 120 280 basechar 0
AnchorPoint: "Extension_down" 240 0 basechar 0
LayerCount: 2
Fore
SplineSet
103 131 m 1
 110 124 l 1
 110 131 l 1
 108 131 105 131 103 131 c 1
130 149 m 1
 163 144 187 131 205 113 c 0
 225 93 236 68 242 47 c 0
 250 21 250 1 250 0 c 0
 250 -3 249 -5 247 -7 c 0
 243 -11 237 -11 233 -7 c 0
 231 -5 230 -3 230 -0 c 2
 230 0 230 60 191 99 c 0
 177 113 158 124 130 129 c 1
 130 100 l 2
 130 99 130 97 129 96 c 0
 127 91 121 89 116 91 c 0
 115 92 114 92 113 93 c 2
 73 133 l 2
 72 134 72 135 71 136 c 0
 69 141 71 147 76 149 c 0
 77 150 78 150 79 150 c 0
 90 151 100 151 110 151 c 1
 110 280 l 2
 110 283 111 285 113 287 c 0
 117 291 123 291 127 287 c 0
 129 285 130 283 130 280 c 2
 130 149 l 1
EndSplineSet
Substitution2: "Single Substitution lookup 19 subtable" ncaron.ext.up
Substitution2: "Single Substitution lookup 18 subtable" ncaron.ext.down
EndChar

StartChar: lcedilla
Encoding: 316 316 43
Width: 320
Flags: HW
HStem: -244 84G<295 405> -124 40<275 306> -44 80G<235 275> -44 80G<235 275>
VStem: 235 40<-84 -4>
AnchorPoint: "Diacritic_left" 20 140 basechar 0
AnchorPoint: "Diacritic_right" 260 140 basechar 0
AnchorPoint: "Diacritic_up" 160 360 basechar 0
AnchorPoint: "Diacritic_down" 160 -60 basechar 0
AnchorPoint: "Extension_up" 60 280 basechar 0
AnchorPoint: "Extension_down" 260 0 basechar 0
LayerCount: 2
Fore
SplineSet
157 129 m 1
 149 137 l 1
 149 134 149 131 149 129 c 1
 151 129 154 129 157 129 c 1
50 280 m 0
 50 283 51 285 53 287 c 0
 57 291 63 291 67 287 c 0
 69 285 70 283 70 280 c 0
 70 236 73 204 79 182 c 0
 84 164 91 152 98 145 c 0
 106 137 116 133 129 131 c 1
 129 140 129 150 130 161 c 0
 130 162 130 163 131 164 c 0
 133 169 139 171 144 169 c 0
 145 168 146 168 147 167 c 2
 187 127 l 2
 188 126 188 125 189 124 c 0
 191 119 189 113 184 111 c 0
 183 110 182 110 181 110 c 0
 170 109 160 109 150 109 c 1
 151 91 152 76 155 64 c 0
 159 47 166 35 173 28 c 0
 182 19 195 14 212 12 c 0
 226 10 242 10 260 10 c 0
 263 10 265 9 267 7 c 0
 271 3 271 -3 267 -7 c 0
 265 -9 263 -10 260 -10 c 0
 242 -10 225 -10 210 -8 c 0
 191 -6 173 0 159 14 c 0
 148 25 141 39 136 59 c 0
 132 73 130 90 129 110 c 1
 112 112 96 118 83 131 c 0
 72 142 65 156 60 176 c 0
 53 201 50 235 50 280 c 0
EndSplineSet
Substitution2: "Single Substitution lookup 19 subtable" lcedilla.ext.up
Substitution2: "Single Substitution lookup 18 subtable" lcedilla.ext.down
EndChar

StartChar: ccedilla
Encoding: 231 231 44
Width: 320
Flags: HW
AnchorPoint: "Diacritic_left" 20 140 basechar 0
AnchorPoint: "Diacritic_right" 270 140 basechar 0
AnchorPoint: "Diacritic_up" 160 360 basechar 0
AnchorPoint: "Diacritic_down" 160 -60 basechar 0
AnchorPoint: "Extension_up" 260 280 basechar 0
AnchorPoint: "Extension_down" 180 0 basechar 0
LayerCount: 2
Fore
SplineSet
260 289.998039105 m 2
 265.518067753 289.998039105 269.998039105 285.518067753 269.998039105 280 c 0
 269.998039105 274.481932247 265.518067753 270.001960895 260 270.001960895 c 2
 100.215746771 270.001960895 l 1
 102.144539213 226.542977403 116.645245744 199.629853868 133.933584214 182.341515399 c 0
 166.167250474 150.107849139 209.555520282 149.998039105 209.996609638 149.998039105 c 2
 210 149.998039105 l 2
 212.559876812 149.998039104 215.119753618 149.022382006 217.071067812 147.071067812 c 0
 220.973696203 143.16843942 220.973696203 136.83156058 217.071067812 132.928932188 c 0
 215.119753616 130.977617992 212.559876808 130.001960895 210 130.001960895 c 2
 209.999999809 130.001960895 l 1
 209.30992821 130.001960895 l 1
 70.2157467708 130.001960895 l 1
 72.1445392133 86.5429774029 86.6452457443 59.6298538683 103.933584214 42.341515399 c 0
 136.332246569 9.94285304357 180.000000006 9.9980391054 180.000000006 9.9980391054 c 1
 185.518067759 9.9980391054 189.998039112 5.5180677527 189.998039112 -3.51896289885e-10 c 0
 189.998039112 -5.51806775341 185.518067759 -9.99803910611 179.999999994 -9.9980391054 c 0
 179.123746771 -9.9980391049 128.809960254 -10.8191318892 89.7914485899 28.1993797752 c 0
 67.219739431 50.7710889342 50.0019608946 86.2330100926 50.0019608946 140 c 0
 50.0019608946 142.559876808 50.9776179924 145.119753616 52.9289321881 147.071067812 c 0
 54.8802463838 149.022382008 57.4401231919 149.998039105 60 149.998039105 c 2
 142.833077744 149.998039105 l 1
 135.022481948 154.813428113 127.203183573 160.787644793 119.79144859 168.199379775 c 0
 97.219739431 190.771088934 80.0019608946 226.233010093 80.0019608946 280 c 0
 80.0019608946 282.559876808 80.9776179924 285.119753616 82.9289321881 287.071067812 c 0
 84.8802463838 289.022382008 87.4401231919 289.998039105 90 289.998039105 c 2
 260 289.998039105 l 2
EndSplineSet
Substitution2: "Single Substitution lookup 19 subtable" ccedilla.ext.up
Substitution2: "Single Substitution lookup 18 subtable" ccedilla.ext.down
EndChar

StartChar: ccaron
Encoding: 269 269 45
Width: 320
Flags: HW
AnchorPoint: "Diacritic_right" 230 140 basechar 0
AnchorPoint: "Diacritic_left" 20 140 basechar 0
AnchorPoint: "Diacritic_up" 160 360 basechar 0
AnchorPoint: "Diacritic_down" 160 -60 basechar 0
AnchorPoint: "Extension_up" 242 280 basechar 0
AnchorPoint: "Extension_down" 242 0 basechar 0
LayerCount: 2
Fore
SplineSet
242 290 m 0
 245 290 247 289 249 287 c 0
 253 283 253 277 249 273 c 0
 247 271 245 270 242 270 c 0
 188 270 148 252 123 227 c 0
 75 179 75 101 123 53 c 0
 148 28 188 10 242 10 c 0
 245 10 247 9 249 7 c 0
 253 3 253 -3 249 -7 c 0
 247 -9 245 -10 242 -10 c 0
 183 -10 139 9 109 39 c 0
 53 95 53 185 109 241 c 0
 139 271 183 290 242 290 c 0
EndSplineSet
Substitution2: "Single Substitution lookup 19 subtable" ccaron.ext.up
Substitution2: "Single Substitution lookup 18 subtable" ccaron.ext.down
EndChar

StartChar: Z
Encoding: 90 90 46
Width: 320
Flags: HW
AnchorPoint: "Diacritic_down" 160 -60 basechar 0
AnchorPoint: "Diacritic_up" 160 360 basechar 0
AnchorPoint: "Extension_down" 240 0 basechar 0
AnchorPoint: "Extension_up" 80 280 basechar 0
AnchorPoint: "Diacritic_right" 320 140 basechar 0
AnchorPoint: "Diacritic_left" 100 140 basechar 0
LayerCount: 2
Fore
SplineSet
72 10 m 1
 240 10 l 2
 243 10 245 9 247 7 c 0
 251 3 251 -3 247 -7 c 0
 245 -9 243 -10 240 -10 c 2
 20 -10 l 2
 18 -10 16 -9 14 -8 c 0
 10 -5 9 2 12 6 c 0
 13 8 16 9 18 10 c 0
 37 15 65 27 95 45 c 0
 133 68 175 100 210 135 c 0
 236 161 258 188 272 216 c 0
 282 234 288 253 290 270 c 1
 80 270 l 2
 77 270 75 271 73 273 c 0
 69 277 69 283 73 287 c 0
 75 289 77 290 80 290 c 2
 300 290 l 2
 300 290 l 0
 305 290 310 285 310 280 c 0
 310 255 303 231 290 207 c 0
 274 177 251 148 224 121 c 0
 187 84 144 52 105 28 c 0
 94 21 82 15 72 10 c 1
EndSplineSet
LCarets2: 1 0
EndChar

StartChar: bar
Encoding: 124 124 47
Width: 320
Flags: HW
AnchorPoint: "Extension_down" 160 0 basechar 0
AnchorPoint: "Extension_up" 160 280 basechar 0
AnchorPoint: "Diacritic_down" 160 -60 basechar 0
AnchorPoint: "Diacritic_up" 160 360 basechar 0
AnchorPoint: "Diacritic_right" 260 140 basechar 0
AnchorPoint: "Diacritic_left" 60 140 basechar 0
LayerCount: 2
Fore
SplineSet
150 280 m 2
 150 283 151 285 153 287 c 0
 157 291 163 291 167 287 c 0
 169 285 170 283 170 280 c 2
 170 0 l 2
 170 -3 169 -5 167 -7 c 0
 163 -11 157 -11 153 -7 c 0
 151 -5 150 -3 150 -0 c 2
 150 280 l 2
EndSplineSet
Ligature2: "FlipCores subtable" bar quotesingle
LCarets2: 1 160
EndChar

StartChar: braceleft
Encoding: 123 123 48
Width: 320
Flags: HW
AnchorPoint: "Diacritic_left" 60 140 basechar 0
AnchorPoint: "Diacritic_right" 260 140 basechar 0
AnchorPoint: "Diacritic_up" 160 360 basechar 0
AnchorPoint: "Diacritic_down" 160 -60 basechar 0
AnchorPoint: "Extension_up" 180 280 basechar 0
AnchorPoint: "Extension_down" 140 0 basechar 0
LayerCount: 2
Fore
SplineSet
150 0 m 2
 150 -3 149 -5 147 -7 c 0
 143 -11 137 -11 133 -7 c 0
 131 -5 130 -3 130 -0 c 2
 130 100 l 2
 130 110 132 119 136 126 c 0
 141 135 147 141 153 147 c 0
 159 153 163 157 166 163 c 0
 168 167 170 173 170 180 c 2
 170 280 l 2
 170 283 171 285 173 287 c 0
 177 291 183 291 187 287 c 0
 189 285 190 283 190 280 c 2
 190 180 l 2
 190 170 188 161 184 154 c 0
 179 145 173 139 167 133 c 0
 161 127 157 123 154 117 c 0
 152 113 150 107 150 100 c 2
 150 0 l 2
EndSplineSet
Ligature2: "FlipCores subtable" braceright quotesingle
LCarets2: 1 160
EndChar

StartChar: braceright
Encoding: 125 125 49
Width: 320
Flags: HW
AnchorPoint: "Diacritic_left" 60 140 basechar 0
AnchorPoint: "Diacritic_right" 260 140 basechar 0
AnchorPoint: "Diacritic_up" 160 360 basechar 0
AnchorPoint: "Diacritic_down" 160 -60 basechar 0
AnchorPoint: "Extension_up" 140 280 basechar 0
AnchorPoint: "Extension_down" 180 0 basechar 0
LayerCount: 2
Fore
SplineSet
130 280 m 2
 130 283 131 285 133 287 c 0
 137 291 143 291 147 287 c 0
 149 285 150 283 150 280 c 2
 150 143 l 1
 172 176 l 2
 173 177 173 178 175 179 c 0
 180 182 186 180 189 175 c 0
 190 173 190 172 190 170 c 2
 190 0 l 2
 190 -3 189 -5 187 -7 c 0
 183 -11 177 -11 173 -7 c 0
 171 -5 170 -3 170 -0 c 2
 170 137 l 1
 148 104 l 2
 147 103 147 102 145 101 c 0
 140 98 134 100 131 105 c 0
 130 107 130 108 130 110 c 2
 130 280 l 2
EndSplineSet
Ligature2: "FlipCores subtable" braceleft quotesingle
LCarets2: 1 160
EndChar

StartChar: zero
Encoding: 48 48 51
Width: 320
Flags: HW
HStem: -222 84G<240 249> -12 80G<372 409>
VStem: 240 37<-185 -142> 372 37<-12 31>
AnchorPoint: "Extension_down" 80 0 basechar 0
AnchorPoint: "Extension_up" 240 280 basechar 0
AnchorPoint: "Diacritic_left" 130 230 basechar 0
LayerCount: 2
Fore
SplineSet
90 0 m 0
 90 -3 89 -5 87 -7 c 0
 83 -11 77 -11 73 -7 c 0
 71 -5 70 -3 70 -0 c 0
 70 56 89 90 114 115 c 0
 127 128 141 138 154 148 c 0
 167 158 180 168 191 179 c 0
 213 201 230 229 230 280 c 0
 230 283 231 285 233 287 c 0
 237 291 243 291 247 287 c 0
 249 285 250 283 250 280 c 0
 250 224 231 190 206 165 c 0
 193 152 179 142 166 132 c 0
 153 122 140 112 129 101 c 0
 107 79 90 51 90 0 c 0
EndSplineSet
Substitution2: "Single Substitution lookup 16 subtable" zero.thou
Substitution2: "Single Substitution lookup 15 subtable" zero.hund
Substitution2: "Single Substitution lookup 14 subtable" zero.ten
EndChar

StartChar: one
Encoding: 49 49 52
Width: 320
Flags: HW
HStem: -222 84G<240 277> -12 80G<370 407>
VStem: 370 37<-174 31>
AnchorPoint: "Diacritic_left" 130 230 basechar 0
AnchorPoint: "Extension_down" 80 0 basechar 0
AnchorPoint: "Extension_up" 240 280 basechar 0
LayerCount: 2
Fore
SplineSet
90 0 m 0
 90 -3 89 -5 87 -7 c 0
 83 -11 77 -11 73 -7 c 0
 71 -5 70 -3 70 -0 c 0
 70 16 75 29 85 39 c 0
 96 50 110 55 127 55 c 0
 156 56 193 43 230 19 c 1
 230 280 l 2
 230 283 231 285 233 287 c 0
 237 291 243 291 247 287 c 0
 249 285 250 283 250 280 c 2
 250 0 l 2
 250 -1 249 -2 249 -3 c 0
 247 -8 242 -11 237 -9 c 0
 236 -9 235 -9 234 -8 c 0
 194 22 155 36 128 35 c 0
 115 35 105 31 99 25 c 0
 94 20 90 12 90 0 c 0
EndSplineSet
Substitution2: "Single Substitution lookup 16 subtable" one.thou
Substitution2: "Single Substitution lookup 15 subtable" one.hund
Substitution2: "Single Substitution lookup 14 subtable" one.ten
EndChar

StartChar: two
Encoding: 50 50 53
Width: 320
Flags: HW
AnchorPoint: "Diacritic_left" 130 230 basechar 0
AnchorPoint: "Extension_down" 80 0 basechar 0
AnchorPoint: "Extension_up" 240 280 basechar 0
LayerCount: 2
Fore
SplineSet
90 0 m 0
 90 -3 89 -5 87 -7 c 0
 83 -11 77 -11 73 -7 c 0
 71 -5 70 -3 70 -0 c 0
 70 13 74 24 82 32 c 0
 91 41 104 44 117 45 c 0
 125 45 133 45 142 44 c 1
 138 47 135 51 132 54 c 0
 121 65 113 76 109 88 c 0
 104 103 105 118 110 131 c 0
 117 150 131 167 147 183 c 0
 156 192 166 201 176 210 c 0
 185 218 194 227 202 235 c 0
 212 245 219 254 224 262 c 0
 228 269 230 275 230 280 c 0
 230 283 231 285 233 287 c 0
 237 291 243 291 247 287 c 0
 249 285 250 283 250 280 c 0
 250 270 247 261 242 252 c 0
 236 241 226 231 216 221 c 0
 208 213 198 203 189 195 c 0
 179 186 170 178 161 169 c 0
 146 154 134 138 129 124 c 0
 125 114 125 105 128 95 c 0
 131 87 136 78 146 68 c 0
 161 53 184 37 220 20 c 0
 235 14 244 9 244 9 c 0
 246 8 248 5 249 3 c 0
 251 -2 248 -7 243 -9 c 0
 241 -10 238 -10 236 -9 c 0
 227 -5 220 -2 212 2 c 0
 199 8 181 14 163 19 c 0
 147 23 131 26 118 25 c 0
 108 24 100 22 96 18 c 0
 93 15 90 10 90 0 c 0
EndSplineSet
Substitution2: "Single Substitution lookup 16 subtable" two.thou
Substitution2: "Single Substitution lookup 15 subtable" two.hund
Substitution2: "Single Substitution lookup 14 subtable" two.ten
EndChar

StartChar: three
Encoding: 51 51 54
Width: 320
Flags: HW
HStem: -222 84G<240 277> -131 80G<257 330> -12 80G<363 400>
VStem: 240 37<-185 -171> 363 37<7 31>
AnchorPoint: "Diacritic_left" 130 230 basechar 0
AnchorPoint: "Extension_up" 240 280 basechar 0
AnchorPoint: "Extension_down" 80 0 basechar 0
LayerCount: 2
Fore
SplineSet
90 0 m 0
 90 -3 89 -5 87 -7 c 0
 83 -11 77 -11 73 -7 c 0
 71 -5 70 -3 70 -0 c 0
 70 16 75 29 85 39 c 0
 96 50 110 55 127 55 c 0
 156 56 192 44 229 20 c 1
 226 56 215 79 199 95 c 0
 171 123 127 130 80 130 c 0
 74 130 70 134 70 140 c 0
 70 146 74 150 80 150 c 0
 138 150 176 165 198 187 c 0
 220 209 230 242 230 280 c 0
 230 283 231 285 233 287 c 0
 237 291 243 291 247 287 c 0
 249 285 250 283 250 280 c 0
 250 238 240 201 212 173 c 0
 198 159 180 148 158 141 c 1
 179 135 197 125 213 109 c 0
 236 86 250 51 250 0 c 0
 250 -1 249 -2 249 -3 c 0
 247 -8 242 -11 237 -9 c 0
 236 -9 235 -9 234 -8 c 0
 194 22 155 36 128 35 c 0
 115 35 105 31 99 25 c 0
 94 20 90 12 90 0 c 0
EndSplineSet
Substitution2: "Single Substitution lookup 16 subtable" three.thou
Substitution2: "Single Substitution lookup 15 subtable" three.hund
Substitution2: "Single Substitution lookup 14 subtable" three.ten
EndChar

StartChar: four
Encoding: 52 52 55
Width: 320
Flags: HW
AnchorPoint: "Diacritic_left" 130 230 basechar 0
AnchorPoint: "Extension_up" 240 280 basechar 0
AnchorPoint: "Extension_down" 80 0 basechar 0
LayerCount: 2
Fore
SplineSet
90 127 m 1
 90 0 l 2
 90 -3 89 -5 87 -7 c 0
 83 -11 77 -11 73 -7 c 0
 71 -5 70 -3 70 -0 c 2
 70 140 l 2
 70 141 70 141 70 142 c 0
 71 147 77 151 82 150 c 0
 83 150 82 149 83 149 c 0
 106 141 127 140 143 142 c 0
 163 144 179 152 192 165 c 0
 219 192 230 238 230 280 c 0
 230 283 231 285 233 287 c 0
 237 291 243 291 247 287 c 0
 249 285 250 283 250 280 c 0
 250 235 239 184 206 151 c 0
 191 136 170 125 145 122 c 0
 129 120 110 122 90 127 c 1
EndSplineSet
Substitution2: "Single Substitution lookup 16 subtable" four.thou
Substitution2: "Single Substitution lookup 15 subtable" four.hund
Substitution2: "Single Substitution lookup 14 subtable" four.ten
EndChar

StartChar: five
Encoding: 53 53 56
Width: 320
Flags: HW
AnchorPoint: "Diacritic_left" 130 230 basechar 0
AnchorPoint: "Extension_up" 240 280 basechar 0
AnchorPoint: "Extension_down" 80 0 basechar 0
LayerCount: 2
Fore
SplineSet
230 10 m 1
 230 280 l 2
 230 283 231 285 233 287 c 0
 237 291 243 291 247 287 c 0
 249 285 250 283 250 280 c 2
 250 0 l 2
 250 -0 l 0
 250 -5 245 -10 240 -10 c 0
 185 -10 141 7 111 37 c 0
 103 45 96 54 90 64 c 1
 90 0 l 2
 90 -3 89 -5 87 -7 c 0
 83 -11 77 -11 73 -7 c 0
 71 -5 70 -3 70 -0 c 2
 70 140 l 2
 70 146 74 150 80 150 c 0
 86 150 90 146 90 140 c 0
 90 105 102 74 125 51 c 0
 149 27 184 12 230 10 c 1
EndSplineSet
Substitution2: "Single Substitution lookup 16 subtable" five.thou
Substitution2: "Single Substitution lookup 15 subtable" five.hund
Substitution2: "Single Substitution lookup 14 subtable" five.ten
EndChar

StartChar: six
Encoding: 54 54 57
Width: 320
Flags: HW
HStem: -222 84G<240 277> -129 80G<317 414> -70 84G<332 339> -12 80G<372 409>
VStem: 372 37<7 31>
AnchorPoint: "Diacritic_left" 130 230 basechar 0
AnchorPoint: "Extension_up" 240 280 basechar 0
AnchorPoint: "Extension_down" 80 0 basechar 0
LayerCount: 2
Fore
SplineSet
170 170 m 0
 164 170 160 174 160 180 c 0
 160 186 164 190 170 190 c 0
 187 190 202 196 213 207 c 0
 224 218 230 233 230 250 c 2
 230 280 l 2
 230 283 231 285 233 287 c 0
 237 291 243 291 247 287 c 0
 249 285 250 283 250 280 c 2
 250 250 l 2
 250 228 241 207 227 193 c 0
 222 188 216 184 209 180 c 1
 216 176 222 172 227 167 c 0
 241 153 250 132 250 110 c 0
 250 71 239 36 216 13 c 0
 202 -1 182 -10 160 -10 c 0
 138 -10 118 -1 104 13 c 0
 99 18 94 24 90 31 c 1
 90 0 l 2
 90 -3 89 -5 87 -7 c 0
 83 -11 77 -11 73 -7 c 0
 71 -5 70 -3 70 -0 c 2
 70 110 l 2
 70 116 74 120 80 120 c 0
 86 120 90 116 90 110 c 0
 90 75 100 45 118 27 c 0
 129 16 143 10 160 10 c 0
 177 10 191 16 202 27 c 0
 220 45 230 75 230 110 c 0
 230 127 224 142 213 153 c 0
 202 164 187 170 170 170 c 0
EndSplineSet
Substitution2: "Single Substitution lookup 16 subtable" six.thou
Substitution2: "Single Substitution lookup 15 subtable" six.hund
Substitution2: "Single Substitution lookup 14 subtable" six.ten
EndChar

StartChar: seven
Encoding: 55 55 58
Width: 320
Flags: HW
AnchorPoint: "Diacritic_left" 130 230 basechar 0
AnchorPoint: "Extension_up" 240 280 basechar 0
AnchorPoint: "Extension_down" 80 0 basechar 0
LayerCount: 2
Fore
SplineSet
90 0 m 0
 90 -3 89 -5 87 -7 c 0
 83 -11 77 -11 73 -7 c 0
 71 -5 70 -3 70 -0 c 0
 70 45 81 96 114 129 c 0
 129 144 150 155 175 158 c 0
 191 160 210 158 230 153 c 1
 230 280 l 2
 230 283 231 285 233 287 c 0
 237 291 243 291 247 287 c 0
 249 285 250 283 250 280 c 2
 250 140 l 2
 250 139 250 139 250 138 c 0
 249 133 243 129 238 130 c 0
 237 130 238 131 237 131 c 0
 214 139 193 140 177 138 c 0
 157 136 141 128 128 115 c 0
 101 88 90 42 90 0 c 0
EndSplineSet
Substitution2: "Single Substitution lookup 16 subtable" seven.thou
Substitution2: "Single Substitution lookup 15 subtable" seven.hund
Substitution2: "Single Substitution lookup 14 subtable" seven.ten
EndChar

StartChar: eight
Encoding: 56 56 59
Width: 320
Flags: HW
AnchorPoint: "Diacritic_left" 130 230 basechar 0
AnchorPoint: "Extension_up" 240 280 basechar 0
AnchorPoint: "Extension_down" 80 0 basechar 0
LayerCount: 2
Fore
SplineSet
90 0 m 0
 90 -3 89 -5 87 -7 c 0
 83 -11 77 -11 73 -7 c 0
 71 -5 70 -3 70 -0 c 0
 70 38 86 71 112 97 c 0
 125 110 141 121 158 130 c 1
 80 130 l 2
 74 130 70 134 70 140 c 0
 70 146 74 150 80 150 c 0
 122 150 165 168 194 197 c 0
 216 219 230 248 230 280 c 0
 230 283 231 285 233 287 c 0
 237 291 243 291 247 287 c 0
 249 285 250 283 250 280 c 0
 250 242 234 209 208 183 c 0
 195 170 179 159 162 150 c 1
 240 150 l 2
 246 150 250 146 250 140 c 0
 250 134 246 130 240 130 c 0
 198 130 155 112 126 83 c 0
 104 61 90 32 90 0 c 0
EndSplineSet
Substitution2: "Single Substitution lookup 16 subtable" eight.thou
Substitution2: "Single Substitution lookup 15 subtable" eight.hund
Substitution2: "Single Substitution lookup 14 subtable" eight.ten
EndChar

StartChar: nine
Encoding: 57 57 60
Width: 320
Flags: HW
HStem: -222 84G<240 277> -12 80G<375 411>
VStem: 240 37<-185 -148> 375 37<-49 31>
AnchorPoint: "Diacritic_left" 130 230 basechar 0
AnchorPoint: "Extension_up" 240 280 basechar 0
AnchorPoint: "Extension_down" 80 0 basechar 0
LayerCount: 2
Fore
SplineSet
90 0 m 0
 90 -3 89 -5 87 -7 c 0
 83 -11 77 -11 73 -7 c 0
 71 -5 70 -3 70 -0 c 0
 70 55 87 92 108 113 c 0
 126 131 147 138 164 137 c 0
 173 136 181 133 187 127 c 0
 188 126 188 125 189 124 c 0
 191 119 189 113 184 111 c 0
 183 110 181 110 180 110 c 0
 171 110 164 106 159 101 c 0
 151 93 146 80 145 65 c 0
 144 47 149 29 159 19 c 0
 164 14 171 10 180 10 c 0
 195 10 204 14 211 21 c 0
 219 29 223 41 226 58 c 0
 230 80 230 108 230 140 c 2
 230 280 l 2
 230 283 231 285 233 287 c 0
 237 291 243 291 247 287 c 0
 249 285 250 283 250 280 c 2
 250 140 l 2
 250 108 250 79 246 55 c 0
 243 36 237 18 225 6 c 0
 214 -5 199 -10 180 -10 c 0
 166 -10 154 -5 145 4 c 0
 132 17 126 35 125 53 c 0
 124 74 129 97 143 113 c 1
 136 110 129 106 122 99 c 0
 105 82 90 51 90 0 c 0
EndSplineSet
Substitution2: "Single Substitution lookup 16 subtable" nine.thou
Substitution2: "Single Substitution lookup 15 subtable" nine.hund
Substitution2: "Single Substitution lookup 14 subtable" nine.ten
EndChar

StartChar: b.flip
Encoding: 65555 -1 61
Width: 320
Flags: HW
AnchorPoint: "Diacritic_left" 40 140 basechar 0
AnchorPoint: "Diacritic_right" 280 140 basechar 0
AnchorPoint: "Diacritic_up" 160 360 basechar 0
AnchorPoint: "Diacritic_down" 160 -60 basechar 0
AnchorPoint: "Extension_up" 160 280 basechar 0
AnchorPoint: "Extension_down" 60 0 basechar 0
LayerCount: 2
Fore
SplineSet
138 117 m 1
 150 104 l 1
 150 120 l 1
 146 119 142 118 138 117 c 1
60 -10 m 2
 57 -10 55 -9 53 -7 c 0
 49 -3 49 3 53 7 c 0
 55 9 57 10 60 10 c 2
 250 10 l 1
 248 44 234 77 213 98 c 0
 203 108 192 115 179 118 c 0
 176 119 173 120 170 120 c 1
 170 107 170 93 170 80 c 0
 170 79 170 77 169 76 c 0
 167 71 161 69 156 71 c 0
 155 72 154 72 153 73 c 2
 113 113 l 2
 112 114 l 0
 109 118 110 125 114 128 c 0
 116 129 l 0
 128 135 139 139 150 140 c 1
 150 280 l 2
 150 283 151 285 153 287 c 0
 157 291 163 291 167 287 c 0
 169 285 170 283 170 280 c 0
 170 233 170 187 170 140 c 1
 175 140 180 139 184 138 c 0
 201 134 215 124 227 112 c 0
 254 85 270 42 270 0 c 0
 270 -0 l 0
 270 -5 265 -10 260 -10 c 2
 60 -10 l 2
EndSplineSet
Ligature2: "FlipCores subtable" b quotesingle
LCarets2: 1 320
EndChar

StartChar: c.flip
Encoding: 65556 -1 62
Width: 320
Flags: HW
AnchorPoint: "Diacritic_left" 120 140 basechar 0
AnchorPoint: "Diacritic_right" 320 140 basechar 0
AnchorPoint: "Diacritic_up" 160 360 basechar 0
AnchorPoint: "Diacritic_down" 160 -60 basechar 0
AnchorPoint: "Extension_down" 260 0 basechar 0
AnchorPoint: "Extension_up" 60 280 basechar 0
LayerCount: 2
Fore
SplineSet
270 0 m 2
 270 -3 269 -5 267 -7 c 0
 263 -11 257 -11 253 -7 c 0
 251 -5 250 -3 250 -0 c 2
 250 270 l 1
 60 270 l 2
 57 270 55 271 53 273 c 0
 49 277 49 283 53 287 c 0
 55 289 57 290 60 290 c 2
 260 290 l 2
 262 290 263 290 265 289 c 0
 268 287 270 283 270 280 c 2
 270 0 l 2
EndSplineSet
Ligature2: "FlipCores subtable" c quotesingle
LCarets2: 1 320
EndChar

StartChar: d.flip
Encoding: 65557 -1 63
Width: 320
Flags: HW
AnchorPoint: "Diacritic_right" 320 140 basechar 0
AnchorPoint: "Diacritic_left" 120 140 basechar 0
AnchorPoint: "Diacritic_up" 160 360 basechar 0
AnchorPoint: "Diacritic_down" 160 -60 basechar 0
AnchorPoint: "Extension_down" 60 0 basechar 0
AnchorPoint: "Extension_up" 220 280 basechar 0
LayerCount: 2
Fore
SplineSet
60 -10 m 2
 57 -10 55 -9 53 -7 c 0
 49 -3 49 3 53 7 c 0
 55 9 57 10 60 10 c 2
 250 10 l 1
 250 116 l 1
 227 93 l 2
 226 92 225 92 224 91 c 0
 219 89 213 91 211 96 c 0
 210 97 210 99 210 100 c 2
 210 280 l 2
 210 283 211 285 213 287 c 0
 217 291 223 291 227 287 c 0
 229 285 230 283 230 280 c 2
 230 124 l 1
 253 147 l 2
 254 148 255 148 256 149 c 0
 261 151 267 149 269 144 c 0
 270 143 270 141 270 140 c 2
 270 0 l 2
 270 -0 l 0
 270 -5 265 -10 260 -10 c 2
 60 -10 l 2
EndSplineSet
Ligature2: "FlipCores subtable" d quotesingle
LCarets2: 1 320
EndChar

StartChar: f.flip
Encoding: 65558 -1 64
Width: 320
Flags: HW
AnchorPoint: "Diacritic_right" 300 140 basechar 0
AnchorPoint: "Diacritic_left" 70 140 basechar 0
AnchorPoint: "Diacritic_up" 160 360 basechar 0
AnchorPoint: "Diacritic_down" 160 -60 basechar 0
AnchorPoint: "Extension_down" 60 0 basechar 0
AnchorPoint: "Extension_up" 140 280 basechar 0
LayerCount: 2
Fore
SplineSet
60 -10 m 0
 57 -10 55 -9 53 -7 c 0
 49 -3 49 3 53 7 c 0
 55 9 57 10 60 10 c 0
 124 10 167 13 197 19 c 0
 221 24 235 31 242 38 c 0
 248 44 250 51 250 60 c 0
 250 75 245 86 238 93 c 0
 226 105 206 110 187 112 c 0
 163 114 142 110 142 110 c 2
 141 110 l 0
 135 110 130 114 130 119 c 0
 130 120 l 2
 130 280 l 2
 130 283 131 285 133 287 c 0
 137 291 143 291 147 287 c 0
 149 285 150 283 150 280 c 2
 150 131 l 1
 159 132 174 132 189 131 c 0
 210 129 235 124 252 107 c 0
 263 96 270 80 270 60 c 0
 270 47 266 34 256 24 c 0
 245 13 226 5 201 -0 c 0
 169 -7 124 -10 60 -10 c 0
EndSplineSet
Ligature2: "FlipCores subtable" f quotesingle
LCarets2: 1 320
EndChar

StartChar: g.flip
Encoding: 65559 -1 65
Width: 320
Flags: HW
HStem: 440 84G<-126 -31> 244 40<-111 97>
AnchorPoint: "Diacritic_right" 320 140 basechar 0
AnchorPoint: "Diacritic_left" 40 140 basechar 0
AnchorPoint: "Diacritic_up" 160 360 basechar 0
AnchorPoint: "Diacritic_down" 160 -60 basechar 0
AnchorPoint: "Extension_down" 40 0 basechar 0
AnchorPoint: "Extension_up" 80 280 basechar 0
LayerCount: 2
Fore
SplineSet
40 -10 m 2
 37 -10 35 -9 33 -7 c 0
 29 -3 29 3 33 7 c 0
 35 9 37 10 40 10 c 2
 270 10 l 1
 268 59 253 87 236 104 c 0
 225 115 212 122 202 126 c 0
 197 128 193 128 189 129 c 0
 187 122 183 117 178 112 c 0
 171 105 161 100 150 100 c 0
 133 100 119 107 108 118 c 0
 98 128 91 140 86 153 c 0
 80 170 75 187 73 205 c 0
 68 244 70 281 70 281 c 0
 70 283 71 285 73 287 c 0
 77 291 83 291 87 287 c 0
 89 285 90 282 90 279 c 2
 90 279 88 245 93 208 c 0
 95 191 99 174 105 160 c 0
 110 148 115 139 122 132 c 0
 130 124 138 120 150 120 c 0
 156 120 161 123 164 126 c 0
 167 129 170 134 170 140 c 0
 170 145 174 150 180 150 c 0
 180 150 l 0
 181 150 219 150 250 119 c 0
 272 97 290 60 290 0 c 0
 290 -0 l 0
 290 -6 285 -10 280 -10 c 2
 40 -10 l 2
EndSplineSet
Ligature2: "FlipCores subtable" g quotesingle
LCarets2: 1 320
EndChar

StartChar: h.flip
Encoding: 65560 -1 66
Width: 320
Flags: HW
AnchorPoint: "Diacritic_right" 300 140 basechar 0
AnchorPoint: "Diacritic_left" 40 140 basechar 0
AnchorPoint: "Diacritic_up" 160 360 basechar 0
AnchorPoint: "Diacritic_down" 160 -60 basechar 0
AnchorPoint: "Extension_down" 240 0 basechar 0
AnchorPoint: "Extension_up" 120 280 basechar 0
LayerCount: 2
Fore
SplineSet
104 150 m 1
 110 144 l 1
 110 150 l 1
 104 150 l 1
250 0 m 2
 250 -3 249 -5 247 -7 c 0
 243 -11 237 -11 233 -7 c 0
 231 -5 230 -3 230 -0 c 2
 230 150 l 1
 130 150 l 1
 130 140 130 130 130 120 c 0
 130 119 130 117 129 116 c 0
 127 111 121 109 116 111 c 0
 115 112 114 112 113 113 c 2
 73 153 l 2
 72 154 72 155 71 156 c 0
 69 161 71 167 76 169 c 0
 77 170 79 170 80 170 c 0
 90 170 100 170 110 170 c 1
 110 280 l 2
 110 283 111 285 113 287 c 0
 117 291 123 291 127 287 c 0
 129 285 130 283 130 280 c 0
 130 243 130 207 130 170 c 1
 167 170 203 170 240 170 c 0
 241 170 l 0
 246 169 250 165 250 160 c 2
 250 0 l 2
EndSplineSet
Ligature2: "FlipCores subtable" h quotesingle
LCarets2: 1 320
EndChar

StartChar: j.flip
Encoding: 65561 -1 67
Width: 320
Flags: HW
AnchorPoint: "Diacritic_right" 320 140 basechar 0
AnchorPoint: "Diacritic_left" 120 140 basechar 0
AnchorPoint: "Diacritic_up" 160 360 basechar 0
AnchorPoint: "Diacritic_down" 160 -60 basechar 0
AnchorPoint: "Extension_down" 60 0 basechar 0
AnchorPoint: "Extension_up" 60 280 basechar 0
LayerCount: 2
Fore
SplineSet
60 -10 m 0
 57 -10 55 -9 53 -7 c 0
 49 -3 49 3 53 7 c 0
 55 9 57 10 60 10 c 0
 112 10 149 15 176 23 c 0
 197 29 212 37 221 46 c 0
 234 59 238 75 236 94 c 0
 234 118 223 146 212 172 c 0
 203 193 194 213 191 232 c 0
 189 245 191 259 199 270 c 1
 60 270 l 2
 57 270 55 271 53 273 c 0
 49 277 49 283 53 287 c 0
 55 289 57 290 60 290 c 2
 260 290 l 2
 266 290 270 286 270 280 c 0
 270 274 266 270 260 270 c 0
 234 270 222 265 216 259 c 0
 211 254 209 247 211 235 c 0
 213 220 221 201 230 180 c 0
 241 154 254 124 256 96 c 0
 258 73 253 50 235 32 c 0
 223 20 206 11 182 4 c 0
 153 -5 113 -10 60 -10 c 0
EndSplineSet
Ligature2: "FlipCores subtable" j quotesingle
LCarets2: 1 320
EndChar

StartChar: k.flip
Encoding: 65562 -1 68
Width: 320
Flags: HW
AnchorPoint: "Diacritic_right" 320 140 basechar 0
AnchorPoint: "Diacritic_left" 120 140 basechar 0
AnchorPoint: "Diacritic_up" 160 360 basechar 0
AnchorPoint: "Diacritic_down" 160 -60 basechar 0
AnchorPoint: "Extension_down" 40 0 basechar 0
AnchorPoint: "Extension_up" 120 280 basechar 0
LayerCount: 2
Fore
SplineSet
40 -10 m 2
 37 -10 35 -9 33 -7 c 0
 29 -3 29 3 33 7 c 0
 35 9 37 10 40 10 c 2
 272 10 l 1
 291 116 263 184 223 224 c 0
 191 256 152 270 120 270 c 0
 117 270 115 271 113 273 c 0
 109 277 109 283 113 287 c 0
 115 289 117 290 120 290 c 0
 158 290 203 274 238 239 c 0
 284 193 313 114 290 -2 c 0
 289 -7 285 -10 280 -10 c 2
 40 -10 l 2
EndSplineSet
Ligature2: "FlipCores subtable" k quotesingle
LCarets2: 1 320
EndChar

StartChar: l.flip
Encoding: 65563 -1 69
Width: 320
Flags: HW
AnchorPoint: "Diacritic_right" 320 140 basechar 0
AnchorPoint: "Diacritic_left" 120 140 basechar 0
AnchorPoint: "Diacritic_up" 160 360 basechar 0
AnchorPoint: "Diacritic_down" 160 -60 basechar 0
AnchorPoint: "Extension_down" 260 0 basechar 0
AnchorPoint: "Extension_up" 60 280 basechar 0
LayerCount: 2
Fore
SplineSet
270 0 m 2
 270 -3 269 -5 267 -7 c 0
 263 -11 257 -11 253 -7 c 0
 251 -5 250 -3 250 -0 c 2
 250 130 l 1
 222 130 201 133 185 137 c 0
 171 141 160 146 153 153 c 0
 148 158 145 164 144 170 c 0
 142 179 145 188 149 196 c 0
 154 206 162 217 172 227 c 0
 189 244 209 259 226 270 c 1
 60 270 l 2
 57 270 55 271 53 273 c 0
 49 277 49 283 53 287 c 0
 55 289 57 290 60 290 c 2
 260 290 l 2
 262 290 263 290 265 289 c 0
 270 286 272 280 269 275 c 0
 268 273 266 272 265 271 c 2
 265 271 216 242 186 212 c 0
 177 203 171 195 167 188 c 0
 164 182 163 177 164 174 c 0
 164 172 165 169 167 167 c 0
 171 163 178 159 190 156 c 0
 205 152 228 150 260 150 c 0
 262 150 263 150 265 149 c 0
 268 147 270 144 270 140 c 2
 270 0 l 2
EndSplineSet
Ligature2: "FlipCores subtable" l quotesingle
LCarets2: 1 320
EndChar

StartChar: m.flip
Encoding: 65564 -1 70
Width: 320
Flags: HW
AnchorPoint: "Diacritic_right" 280 140 basechar 0
AnchorPoint: "Diacritic_left" 80 140 basechar 0
AnchorPoint: "Diacritic_up" 160 360 basechar 0
AnchorPoint: "Diacritic_down" 160 -60 basechar 0
AnchorPoint: "Extension_down" 230 0 basechar 0
AnchorPoint: "Extension_up" 90 280 basechar 0
LayerCount: 2
Fore
SplineSet
240 0 m 2
 240 -3 239 -5 237 -7 c 0
 233 -11 227 -11 223 -7 c 0
 221 -5 220 -3 220 -0 c 2
 220 130 l 1
 170 132 137 147 116 168 c 0
 80 204 80 256 80 280 c 0
 80 283 81 285 83 287 c 0
 87 291 93 291 97 287 c 0
 99 285 100 283 100 280 c 0
 100 255 101 211 130 182 c 0
 148 164 178 150 230 150 c 0
 231 150 l 0
 236 149 240 145 240 140 c 2
 240 0 l 2
EndSplineSet
Ligature2: "FlipCores subtable" m quotesingle
LCarets2: 1 320
EndChar

StartChar: n.flip
Encoding: 65565 -1 71
Width: 320
Flags: HW
AnchorPoint: "Diacritic_right" 290 140 basechar 0
AnchorPoint: "Diacritic_left" 70 140 basechar 0
AnchorPoint: "Diacritic_down" 160 -60 basechar 0
AnchorPoint: "Diacritic_up" 160 360 basechar 0
AnchorPoint: "Extension_down" 230 0 basechar 0
AnchorPoint: "Extension_up" 90 280 basechar 0
LayerCount: 2
Fore
SplineSet
240 0 m 2
 240 -3 239 -5 237 -7 c 0
 233 -11 227 -11 223 -7 c 0
 221 -5 220 -3 220 -0 c 2
 220 120 l 2
 220 128 216 136 211 141 c 0
 208 144 204 148 199 149 c 1
 197 138 192 128 185 121 c 0
 178 114 170 110 160 110 c 0
 142 110 126 117 115 128 c 0
 101 142 93 162 88 185 c 0
 82 214 80 247 80 280 c 0
 80 283 81 285 83 287 c 0
 87 291 93 291 97 287 c 0
 99 285 100 283 100 280 c 0
 100 248 102 215 108 189 c 0
 113 168 119 152 129 142 c 0
 137 134 147 130 160 130 c 0
 164 130 168 132 171 135 c 0
 176 140 180 149 180 160 c 0
 180 161 180 162 180 163 c 0
 181 167 186 170 190 170 c 0
 204 170 216 164 225 155 c 0
 234 146 240 134 240 120 c 2
 240 0 l 2
EndSplineSet
Ligature2: "FlipCores subtable" n quotesingle
LCarets2: 1 320
EndChar

StartChar: p.flip
Encoding: 65566 -1 72
Width: 320
Flags: HW
AnchorPoint: "Diacritic_right" 270 140 basechar 0
AnchorPoint: "Diacritic_left" 70 140 basechar 0
AnchorPoint: "Diacritic_down" 160 -60 basechar 0
AnchorPoint: "Diacritic_up" 160 360 basechar 0
AnchorPoint: "Extension_down" 60 0 basechar 0
AnchorPoint: "Extension_up" 140 280 basechar 0
LayerCount: 2
Fore
SplineSet
60 -10 m 2
 57 -10 55 -9 53 -7 c 0
 49 -3 49 3 53 7 c 0
 55 9 57 10 60 10 c 2
 250 10 l 1
 248 43 239 67 223 83 c 0
 206 100 178 110 140 110 c 0
 139 110 137 110 136 111 c 0
 132 113 130 116 130 120 c 2
 130 280 l 2
 130 283 131 285 133 287 c 0
 137 291 143 291 147 287 c 0
 149 285 150 283 150 280 c 2
 150 130 l 1
 187 128 216 118 237 97 c 0
 260 74 270 42 270 0 c 0
 270 -0 l 0
 270 -5 265 -10 260 -10 c 2
 60 -10 l 2
EndSplineSet
Ligature2: "FlipCores subtable" p quotesingle
LCarets2: 1 320
EndChar

StartChar: r.flip
Encoding: 65567 -1 73
Width: 320
Flags: HW
AnchorPoint: "Diacritic_right" 260 140 basechar 0
AnchorPoint: "Diacritic_left" 60 140 basechar 0
AnchorPoint: "Diacritic_down" 160 -60 basechar 0
AnchorPoint: "Diacritic_up" 160 360 basechar 0
AnchorPoint: "Extension_down" 260 0 basechar 0
AnchorPoint: "Extension_up" 60 280 basechar 0
LayerCount: 2
Fore
SplineSet
260 10 m 0
 263 10 265 9 267 7 c 0
 271 3 271 -3 267 -7 c 0
 265 -9 263 -10 260 -10 c 0
 218 -10 185 3 163 25 c 0
 146 42 135 65 131 90 c 0
 124 139 144 197 189 242 c 0
 199 252 210 261 223 270 c 1
 60 270 l 2
 57 270 55 271 53 273 c 0
 49 277 49 283 53 287 c 0
 55 289 57 290 60 290 c 2
 260 290 l 2
 262 290 263 289 265 288 c 0
 270 285 271 280 268 275 c 0
 267 273 266 272 264 271 c 0
 240 259 220 244 204 228 c 0
 162 186 145 135 151 93 c 0
 154 72 163 54 177 40 c 0
 195 22 222 10 260 10 c 0
EndSplineSet
Ligature2: "FlipCores subtable" r quotesingle
LCarets2: 1 320
EndChar

StartChar: s.flip
Encoding: 65568 -1 74
Width: 320
Flags: HW
AnchorPoint: "Diacritic_right" 320 140 basechar 0
AnchorPoint: "Diacritic_left" 70 140 basechar 0
AnchorPoint: "Diacritic_down" 160 -60 basechar 0
AnchorPoint: "Diacritic_up" 160 360 basechar 0
AnchorPoint: "Extension_down" 60 0 basechar 0
AnchorPoint: "Extension_up" 100 280 basechar 0
LayerCount: 2
Fore
SplineSet
70 -2 m 0
 70 -4 68 -6 67 -7 c 0
 63 -11 57 -11 53 -7 c 0
 51 -5 49 -1 50 2 c 0
 59 54 75 87 96 108 c 0
 119 131 148 136 173 133 c 0
 196 130 216 120 232 111 c 0
 238 107 244 104 249 101 c 1
 245 166 226 204 201 229 c 0
 166 264 121 270 100 270 c 0
 97 270 95 271 93 273 c 0
 89 277 89 283 93 287 c 0
 95 289 97 290 100 290 c 0
 124 290 175 283 215 243 c 0
 246 212 270 161 270 80 c 0
 270 79 269 77 269 76 c 0
 267 71 261 69 256 71 c 0
 255 71 254 71 253 72 c 2
 253 72 213 107 170 113 c 0
 149 116 128 112 110 94 c 0
 93 77 79 48 70 -2 c 0
EndSplineSet
Ligature2: "FlipCores subtable" s quotesingle
LCarets2: 1 320
EndChar

StartChar: t.flip
Encoding: 65569 -1 75
Width: 320
Flags: HW
AnchorPoint: "Diacritic_right" 320 140 basechar 0
AnchorPoint: "Diacritic_left" 120 140 basechar 0
AnchorPoint: "Diacritic_down" 160 -60 basechar 0
AnchorPoint: "Diacritic_up" 160 360 basechar 0
AnchorPoint: "Extension_down" 60 0 basechar 0
AnchorPoint: "Extension_up" 260 280 basechar 0
LayerCount: 2
Fore
SplineSet
60 -10 m 2
 57 -10 55 -9 53 -7 c 0
 49 -3 49 3 53 7 c 0
 55 9 57 10 60 10 c 2
 250 10 l 1
 250 280 l 2
 250 283 251 285 253 287 c 0
 257 291 263 291 267 287 c 0
 269 285 270 283 270 280 c 2
 270 0 l 2
 270 -0 l 0
 270 -5 265 -10 260 -10 c 2
 60 -10 l 2
EndSplineSet
Ligature2: "FlipCores subtable" t quotesingle
LCarets2: 1 320
EndChar

StartChar: v.flip
Encoding: 65570 -1 76
Width: 320
Flags: HW
HStem: 440 84G<-20 20> 344 40<20 49> 244 40<-80 80>
VStem: 80 40<284 374> -20 40<384 484>
AnchorPoint: "Diacritic_right" 280 140 basechar 0
AnchorPoint: "Diacritic_left" 60 140 basechar 0
AnchorPoint: "Diacritic_down" 160 -60 basechar 0
AnchorPoint: "Diacritic_up" 160 360 basechar 0
AnchorPoint: "Extension_down" 60 0 basechar 0
AnchorPoint: "Extension_up" 260 280 basechar 0
LayerCount: 2
Fore
SplineSet
208 123 m 1
 200 133 l 1
 200 130 199 126 199 123 c 0
 202 123 205 123 208 123 c 1
60 -10 m 0
 57 -10 55 -9 53 -7 c 0
 49 -3 49 3 53 7 c 0
 55 9 57 10 60 10 c 0
 108 10 136 20 152 36 c 0
 162 46 170 60 174 78 c 0
 176 86 177 95 178 105 c 1
 166 107 156 109 147 112 c 0
 130 117 118 124 109 133 c 0
 99 143 94 155 94 168 c 0
 94 178 98 189 103 199 c 0
 109 210 117 220 127 230 c 0
 145 248 170 265 196 276 c 0
 217 285 239 290 260 290 c 0
 263 290 265 289 267 287 c 0
 271 283 271 277 267 273 c 0
 265 271 263 270 260 270 c 0
 242 270 223 265 204 257 c 0
 180 247 157 232 141 216 c 0
 132 207 126 198 121 189 c 0
 117 181 114 174 114 168 c 0
 114 160 116 154 123 147 c 0
 129 141 139 135 153 131 c 0
 160 129 169 126 179 125 c 1
 179 136 180 148 180 160 c 0
 180 161 180 163 181 164 c 0
 183 169 189 171 194 169 c 0
 195 168 197 167 198 166 c 2
 238 118 l 2
 239 117 239 116 239 115 c 0
 241 110 238 105 233 103 c 0
 232 103 231 102 230 102 c 0
 218 102 208 102 198 103 c 1
 197 92 195 82 193 73 c 0
 188 53 181 36 167 22 c 0
 145 0 111 -10 60 -10 c 0
EndSplineSet
Ligature2: "FlipCores subtable" v quotesingle
LCarets2: 1 320
EndChar

StartChar: x.flip
Encoding: 65571 -1 77
Width: 320
Flags: HW
HStem: 440 84G<-59 51> 244 40<-111 91>
AnchorPoint: "Diacritic_right" 310 140 basechar 0
AnchorPoint: "Diacritic_left" 70 140 basechar 0
AnchorPoint: "Diacritic_down" 160 -60 basechar 0
AnchorPoint: "Diacritic_up" 160 360 basechar 0
AnchorPoint: "Extension_down" 40 0 basechar 0
AnchorPoint: "Extension_up" 40 280 basechar 0
LayerCount: 2
Fore
SplineSet
40 -10 m 2
 37 -10 35 -9 33 -7 c 0
 29 -3 29 3 33 7 c 0
 35 9 37 10 40 10 c 2
 270 10 l 1
 269 66 257 95 242 110 c 0
 223 129 193 130 160 130 c 0
 158 130 157 131 155 132 c 0
 152 134 150 137 150 140 c 0
 150 202 138 234 122 250 c 0
 103 269 73 270 40 270 c 0
 37 270 35 271 33 273 c 0
 29 277 29 283 33 287 c 0
 35 289 37 290 40 290 c 0
 72 290 109 291 136 264 c 0
 157 243 169 208 170 150 c 1
 200 150 232 148 256 124 c 0
 278 102 290 64 290 0 c 0
 290 -0 l 0
 290 -6 285 -10 280 -10 c 2
 40 -10 l 2
EndSplineSet
Ligature2: "FlipCores subtable" x quotesingle
LCarets2: 1 320
EndChar

StartChar: z.flip
Encoding: 65572 -1 78
Width: 320
Flags: HW
AnchorPoint: "Diacritic_right" 320 140 basechar 0
AnchorPoint: "Diacritic_left" 30 140 basechar 0
AnchorPoint: "Diacritic_down" 160 -60 basechar 0
AnchorPoint: "Diacritic_up" 160 360 basechar 0
AnchorPoint: "Extension_down" 240 0 basechar 0
AnchorPoint: "Extension_up" 80 280 basechar 0
LayerCount: 2
Fore
SplineSet
249 123 m 1
 256 130 l 1
 249 130 l 1
 249 128 249 125 249 123 c 1
240 10 m 0
 243 10 245 9 247 7 c 0
 251 3 251 -3 247 -7 c 0
 245 -9 243 -10 240 -10 c 0
 180 -10 140 9 114 35 c 0
 70 79 70 140 70 140 c 1
 70 146 74 150 80 150 c 0
 129 150 177 150 226 150 c 1
 219 189 205 214 187 232 c 0
 156 263 113 270 80 270 c 0
 77 270 75 271 73 273 c 0
 69 277 69 283 73 287 c 0
 75 289 77 290 80 290 c 0
 115 290 165 284 202 247 c 0
 223 226 239 194 246 150 c 1
 280 150 l 2
 281 150 283 150 284 149 c 0
 289 147 291 141 289 136 c 0
 288 135 288 134 287 133 c 2
 247 93 l 2
 246 92 245 92 244 91 c 0
 239 89 233 91 231 96 c 0
 230 97 230 99 230 100 c 0
 230 111 230 121 229 130 c 1
 91 130 l 1
 93 113 100 77 128 49 c 0
 150 27 184 10 240 10 c 0
EndSplineSet
Ligature2: "FlipCores subtable" z quotesingle
LCarets2: 1 320
EndChar

StartChar: ccedilla.flip
Encoding: 65573 -1 79
Width: 320
Flags: HW
AnchorPoint: "Diacritic_right" 310 140 basechar 0
AnchorPoint: "Diacritic_left" 70 140 basechar 0
AnchorPoint: "Diacritic_down" 160 -60 basechar 0
AnchorPoint: "Diacritic_up" 160 360 basechar 0
AnchorPoint: "Extension_down" 60 0 basechar 0
AnchorPoint: "Extension_up" 140 280 basechar 0
LayerCount: 2
Fore
SplineSet
60 -9.9980391054 m 2
 54.4819322471 -9.9980391054 50.0019608946 -5.51806775286 50.0019608946 0 c 0
 50.0019608946 5.51806775286 54.4819322471 9.9980391054 60 9.9980391054 c 2
 219.784253229 9.9980391054 l 1
 217.855460787 53.4570225971 203.354754256 80.3701461317 186.066415786 97.658484601 c 0
 153.832749526 129.892150861 110.444479718 130.001960895 110.003390362 130.001960895 c 2
 110 130.001960895 l 2
 107.440123188 130.001960896 104.880246382 130.977617994 102.928932188 132.928932188 c 0
 99.0263037967 136.83156058 99.0263037967 143.16843942 102.928932188 147.071067812 c 0
 104.880246384 149.022382008 107.440123192 149.998039105 110 149.998039105 c 2
 110.000000191 149.998039105 l 1
 110.69007179 149.998039105 l 1
 249.784253229 149.998039105 l 1
 247.855460787 193.457022597 233.354754256 220.370146132 216.066415786 237.658484601 c 0
 183.667753431 270.057146956 139.999999994 270.001960895 139.999999994 270.001960895 c 1
 134.481932241 270.001960895 130.001960888 274.481932247 130.001960888 280 c 0
 130.001960888 285.518067753 134.481932241 289.998039106 140.000000006 289.998039105 c 0
 140.876253229 289.998039105 191.190039746 290.819131889 230.20855141 251.800620225 c 0
 252.780260569 229.228911066 269.998039105 193.766989907 269.998039105 140 c 0
 269.998039105 137.440123192 269.022382008 134.880246384 267.071067812 132.928932188 c 0
 265.119753616 130.977617992 262.559876808 130.001960895 260 130.001960895 c 2
 177.166922256 130.001960895 l 1
 184.977518052 125.186571887 192.796816427 119.212355207 200.20855141 111.800620225 c 0
 222.780260569 89.2289110658 239.998039105 53.7669899074 239.998039105 3.5527136788e-15 c 0
 239.998039105 -2.55987680809 239.022382008 -5.11975361617 237.071067812 -7.07106781187 c 0
 235.119753616 -9.02238200756 232.559876808 -9.9980391054 230 -9.9980391054 c 2
 60 -9.9980391054 l 2
EndSplineSet
Ligature2: "FlipCores subtable" ccedilla quotesingle
LCarets2: 1 320
EndChar

StartChar: ccaron.flip
Encoding: 65574 -1 80
Width: 320
Flags: HW
AnchorPoint: "Diacritic_right" 300 140 basechar 0
AnchorPoint: "Diacritic_left" 100 140 basechar 0
AnchorPoint: "Diacritic_down" 160 -60 basechar 0
AnchorPoint: "Diacritic_up" 160 360 basechar 0
AnchorPoint: "Extension_down" 78 0 basechar 0
AnchorPoint: "Extension_up" 78 280 basechar 0
LayerCount: 2
Fore
SplineSet
78 -10 m 0
 75 -10 73 -9 71 -7 c 0
 67 -3 67 3 71 7 c 0
 73 9 75 10 78 10 c 0
 132 10 172 28 197 53 c 0
 245 101 245 179 197 227 c 0
 172 252 132 270 78 270 c 0
 75 270 73 271 71 273 c 0
 67 277 67 283 71 287 c 0
 73 289 75 290 78 290 c 0
 137 290 181 271 211 241 c 0
 267 185 267 95 211 39 c 0
 181 9 137 -10 78 -10 c 0
EndSplineSet
Ligature2: "FlipCores subtable" ccaron quotesingle
LCarets2: 1 320
EndChar

StartChar: lcedilla.flip
Encoding: 65575 -1 81
Width: 320
Flags: HW
HStem: 440 84G<-85 25> 364 40<14 45> 244 80G<45 85> 244 80G<45 85>
VStem: 45 40<284 364>
AnchorPoint: "Diacritic_right" 310 140 basechar 0
AnchorPoint: "Diacritic_left" 60 140 basechar 0
AnchorPoint: "Diacritic_down" 160 -60 basechar 0
AnchorPoint: "Diacritic_up" 160 360 basechar 0
AnchorPoint: "Extension_down" 260 0 basechar 0
AnchorPoint: "Extension_up" 60 280 basechar 0
LayerCount: 2
Fore
SplineSet
163 151 m 1
 171 143 l 1
 171 146 171 149 171 151 c 1
 169 151 166 151 163 151 c 1
270 0 m 0
 270 -3 269 -5 267 -7 c 0
 263 -11 257 -11 253 -7 c 0
 251 -5 250 -3 250 -0 c 0
 250 44 247 76 241 98 c 0
 236 116 229 128 222 135 c 0
 214 143 204 147 191 149 c 1
 191 140 191 130 190 119 c 0
 190 118 190 117 189 116 c 0
 187 111 181 109 176 111 c 0
 175 112 174 112 173 113 c 2
 133 153 l 2
 132 154 132 155 131 156 c 0
 129 161 131 167 136 169 c 0
 137 170 138 170 139 170 c 0
 150 171 160 171 170 171 c 1
 169 189 168 204 165 216 c 0
 161 233 154 245 147 252 c 0
 138 261 125 266 108 268 c 0
 94 270 78 270 60 270 c 0
 57 270 55 271 53 273 c 0
 49 277 49 283 53 287 c 0
 55 289 57 290 60 290 c 0
 78 290 95 290 110 288 c 0
 129 286 147 280 161 266 c 0
 172 255 179 241 184 221 c 0
 188 207 190 190 191 170 c 1
 208 168 224 162 237 149 c 0
 248 138 255 124 260 104 c 0
 267 79 270 45 270 0 c 0
EndSplineSet
Ligature2: "FlipCores subtable" lcedilla quotesingle
LCarets2: 1 320
EndChar

StartChar: ncaron.flip
Encoding: 65576 -1 82
Width: 320
Flags: HW
AnchorPoint: "Diacritic_right" 280 140 basechar 0
AnchorPoint: "Diacritic_left" 80 140 basechar 0
AnchorPoint: "Diacritic_down" 160 -60 basechar 0
AnchorPoint: "Diacritic_up" 160 360 basechar 0
AnchorPoint: "Extension_down" 200 0 basechar 0
AnchorPoint: "Extension_up" 80 280 basechar 0
LayerCount: 2
Fore
SplineSet
217 149 m 1
 210 156 l 1
 210 149 l 1
 212 149 215 149 217 149 c 1
190 131 m 1
 157 136 133 149 115 167 c 0
 95 187 84 212 78 233 c 0
 70 259 70 279 70 280 c 0
 70 283 71 285 73 287 c 0
 77 291 83 291 87 287 c 0
 89 285 90 283 90 280 c 2
 90 280 90 220 129 181 c 0
 143 167 162 156 190 151 c 1
 190 180 l 2
 190 181 190 183 191 184 c 0
 193 189 199 191 204 189 c 0
 205 188 206 188 207 187 c 2
 247 147 l 2
 248 146 248 145 249 144 c 0
 251 139 249 133 244 131 c 0
 243 130 242 130 241 130 c 0
 230 129 220 129 210 129 c 1
 210 0 l 2
 210 -3 209 -5 207 -7 c 0
 203 -11 197 -11 193 -7 c 0
 191 -5 190 -3 190 -0 c 2
 190 131 l 1
EndSplineSet
Ligature2: "FlipCores subtable" ncaron quotesingle
LCarets2: 1 320
EndChar

StartChar: rcaron.flip
Encoding: 65577 -1 83
Width: 320
Flags: HW
AnchorPoint: "Diacritic_right" 280 140 basechar 0
AnchorPoint: "Diacritic_left" 50 140 basechar 0
AnchorPoint: "Diacritic_down" 160 -60 basechar 0
AnchorPoint: "Diacritic_up" 160 360 basechar 0
AnchorPoint: "Extension_down" 260 0 basechar 0
AnchorPoint: "Extension_up" 60 280 basechar 0
LayerCount: 2
Fore
SplineSet
120 133 m 1
 112 123 l 1
 115 123 118 123 121 123 c 0
 121 126 120 130 120 133 c 1
260 10 m 0
 263 10 265 9 267 7 c 0
 271 3 271 -3 267 -7 c 0
 265 -9 263 -10 260 -10 c 0
 209 -10 175 0 153 22 c 0
 139 36 132 53 127 73 c 0
 125 82 123 92 122 103 c 1
 112 102 102 102 90 102 c 0
 89 102 88 103 87 103 c 0
 82 105 79 110 81 115 c 0
 81 116 81 117 82 118 c 2
 122 166 l 2
 123 167 125 168 126 169 c 0
 131 171 137 169 139 164 c 0
 140 163 140 161 140 160 c 0
 140 148 141 136 141 125 c 1
 151 126 160 129 167 131 c 0
 181 135 191 141 197 147 c 0
 204 154 206 160 206 168 c 0
 206 174 203 181 199 189 c 0
 194 198 188 207 179 216 c 0
 163 232 140 247 116 257 c 0
 97 265 78 270 60 270 c 0
 57 270 55 271 53 273 c 0
 49 277 49 283 53 287 c 0
 55 289 57 290 60 290 c 0
 81 290 103 285 124 276 c 0
 150 265 175 248 193 230 c 0
 203 220 211 210 217 199 c 0
 222 189 226 178 226 168 c 0
 226 155 221 143 211 133 c 0
 202 124 190 117 173 112 c 0
 164 109 154 107 142 105 c 1
 143 95 144 86 146 78 c 0
 150 60 158 46 168 36 c 0
 184 20 212 10 260 10 c 0
EndSplineSet
Ligature2: "FlipCores subtable" rcaron quotesingle
LCarets2: 1 320
EndChar

StartChar: scaron.flip
Encoding: 65578 -1 84
Width: 320
Flags: HW
AnchorPoint: "Diacritic_right" 260 140 basechar 0
AnchorPoint: "Diacritic_left" 60 140 basechar 0
AnchorPoint: "Diacritic_down" 160 -60 basechar 0
AnchorPoint: "Diacritic_up" 160 360 basechar 0
AnchorPoint: "Extension_down" 140 0 basechar 0
AnchorPoint: "Extension_up" 60 280 basechar 0
LayerCount: 2
Fore
SplineSet
60 270 m 0
 57 270 55 271 53 273 c 0
 49 277 49 283 53 287 c 0
 55 289 57 290 60 290 c 0
 124 290 169 287 201 280 c 0
 226 275 245 267 256 256 c 0
 266 246 270 233 270 220 c 0
 270 200 263 184 252 173 c 0
 235 156 210 151 189 149 c 0
 174 148 159 148 150 149 c 1
 150 0 l 2
 150 -3 149 -5 147 -7 c 0
 143 -11 137 -11 133 -7 c 0
 131 -5 130 -3 130 -0 c 2
 130 160 l 2
 130 161 l 0
 130 166 135 170 141 170 c 0
 142 170 l 2
 142 170 163 166 187 168 c 0
 206 170 226 175 238 187 c 0
 245 194 250 205 250 220 c 0
 250 229 248 236 242 242 c 0
 235 249 221 256 197 261 c 0
 167 267 124 270 60 270 c 0
EndSplineSet
Ligature2: "FlipCores subtable" scaron quotesingle
LCarets2: 1 320
EndChar

StartChar: tcedilla.flip
Encoding: 65579 -1 85
Width: 320
Flags: HW
AnchorPoint: "Diacritic_right" 320 140 basechar 0
AnchorPoint: "Diacritic_left" 100 140 basechar 0
AnchorPoint: "Diacritic_down" 160 -60 basechar 0
AnchorPoint: "Diacritic_up" 160 360 basechar 0
AnchorPoint: "Extension_down" 60 0 basechar 0
AnchorPoint: "Extension_up" 120 280 basechar 0
LayerCount: 2
Fore
SplineSet
60 -10 m 0
 57 -10 55 -9 53 -7 c 0
 49 -3 49 3 53 7 c 0
 55 9 57 10 60 10 c 0
 151 10 198 31 222 55 c 0
 246 79 249 109 250 130 c 1
 200 132 167 147 146 168 c 0
 110 204 110 256 110 280 c 0
 110 283 111 285 113 287 c 0
 117 291 123 291 127 287 c 0
 129 285 130 283 130 280 c 0
 130 255 131 211 160 182 c 0
 178 164 208 150 260 150 c 0
 262 150 263 150 265 149 c 0
 268 147 270 144 270 140 c 0
 270 118 271 76 236 41 c 0
 207 12 154 -10 60 -10 c 0
EndSplineSet
Ligature2: "FlipCores subtable" tcedilla quotesingle
LCarets2: 1 320
EndChar

StartChar: zdotaccent.flip
Encoding: 65580 -1 86
Width: 320
Flags: HW
AnchorPoint: "Diacritic_right" 290 140 basechar 0
AnchorPoint: "Diacritic_left" 90 140 basechar 0
AnchorPoint: "Diacritic_down" 160 -60 basechar 0
AnchorPoint: "Diacritic_up" 160 360 basechar 0
AnchorPoint: "Extension_down" 200 0 basechar 0
AnchorPoint: "Extension_up" 60 280 basechar 0
LayerCount: 2
Fore
SplineSet
210 0 m 2
 210 -3 209 -5 207 -7 c 0
 203 -11 197 -11 193 -7 c 0
 191 -5 190 -3 190 -0 c 2
 190 232 l 2
 190 246 196 259 206 269 c 0
 207 270 l 1
 60 270 l 2
 57 270 55 271 53 273 c 0
 49 277 49 283 53 287 c 0
 55 289 57 290 60 290 c 2
 260 290 l 2
 266 290 270 286 270 280 c 0
 270 274 266 270 260 270 c 0
 244 270 229 264 220 255 c 0
 213 248 210 240 210 232 c 2
 210 0 l 2
EndSplineSet
Ligature2: "FlipCores subtable" zdotaccent quotesingle
LCarets2: 1 320
EndChar

StartChar: zcaron.flip
Encoding: 65581 -1 87
Width: 320
Flags: HW
AnchorPoint: "Diacritic_right" 280 140 basechar 0
AnchorPoint: "Diacritic_left" 50 140 basechar 0
AnchorPoint: "Diacritic_down" 160 -60 basechar 0
AnchorPoint: "Diacritic_up" 160 360 basechar 0
AnchorPoint: "Extension_down" 220 0 basechar 0
AnchorPoint: "Extension_up" 100 280 basechar 0
LayerCount: 2
Fore
SplineSet
230 0 m 0
 230 -3 229 -5 227 -7 c 0
 223 -11 217 -11 213 -7 c 0
 211 -5 210 -3 210 -0 c 0
 210 43 198 79 175 102 c 0
 157 120 133 130 100 130 c 0
 94 130 90 134 90 140 c 0
 90 146 94 150 100 150 c 0
 148 150 180 163 196 179 c 0
 205 188 209 198 210 207 c 0
 211 218 207 230 196 241 c 0
 180 257 148 270 100 270 c 0
 97 270 95 271 93 273 c 0
 89 277 89 283 93 287 c 0
 95 289 97 290 100 290 c 0
 152 290 189 276 210 255 c 0
 221 244 229 229 230 215 c 0
 232 197 224 179 210 165 c 0
 198 153 181 143 159 137 c 1
 170 131 180 125 189 116 c 0
 217 88 230 47 230 0 c 0
EndSplineSet
Ligature2: "FlipCores subtable" zcaron quotesingle
LCarets2: 1 320
EndChar

StartChar: esh.flip
Encoding: 65582 -1 88
Width: 320
Flags: HW
AnchorPoint: "Diacritic_down" 160 -60 basechar 0
AnchorPoint: "Diacritic_up" 160 360 basechar 0
AnchorPoint: "Extension_down" 70 0 basechar 0
AnchorPoint: "Extension_up" 50 280 basechar 0
AnchorPoint: "Diacritic_right" 260 140 basechar 0
AnchorPoint: "Diacritic_left" 100 220 basechar 0
LayerCount: 2
Fore
SplineSet
169 147 m 1
 208 140 241 127 260 108 c 0
 270 98 277 84 277 70 c 0
 277 56 270 43 260 33 c 0
 247 20 229 10 207 3 c 0
 180 -6 146 -12 110 -12 c 0
 96 -12 82 -12 68 -10 c 0
 66 -10 65 -9 63 -7 c 0
 59 -3 59 3 63 7 c 0
 65 9 69 10 72 10 c 0
 84 8 96 8 110 8 c 0
 144 8 176 13 201 22 c 0
 221 29 237 38 246 47 c 0
 254 55 257 63 257 70 c 0
 257 78 254 85 246 93 c 0
 229 110 193 125 149 130 c 0
 148 130 147 131 146 131 c 0
 141 133 139 139 141 144 c 0
 141 145 141 146 142 147 c 2
 248 270 l 1
 50 270 l 2
 47 270 45 271 43 273 c 0
 39 277 39 283 43 287 c 0
 45 289 47 290 50 290 c 2
 270 290 l 2
 271 290 272 289 273 289 c 0
 278 287 281 282 279 277 c 0
 279 276 279 274 278 273 c 2
 169 147 l 1
EndSplineSet
Ligature2: "FlipCores subtable" esh quotesingle
LCarets2: 1 320
EndChar

StartChar: ddotbelow.flip
Encoding: 65583 -1 89
Width: 320
Flags: HW
AnchorPoint: "Diacritic_right" 320 140 basechar 0
AnchorPoint: "Diacritic_left" 90 140 basechar 0
AnchorPoint: "Diacritic_down" 160 -60 basechar 0
AnchorPoint: "Diacritic_up" 160 360 basechar 0
AnchorPoint: "Extension_down" 40 0 basechar 0
AnchorPoint: "Extension_up" 120 280 basechar 0
LayerCount: 2
Fore
SplineSet
260 126 m 1
 250 136 l 1
 250 132 249 129 249 125 c 1
 252 125 256 125 260 126 c 1
40 -10 m 0
 37 -10 35 -9 33 -7 c 0
 29 -3 29 3 33 7 c 0
 35 9 37 10 40 10 c 0
 132 10 178 27 202 51 c 0
 217 66 224 84 227 105 c 1
 219 106 211 108 204 110 c 0
 187 116 172 125 160 137 c 0
 137 160 125 191 118 218 c 0
 110 252 110 280 110 280 c 2
 110 283 111 285 113 287 c 0
 117 291 123 291 127 287 c 0
 129 285 130 283 130 280 c 2
 130 280 130 254 138 222 c 0
 144 197 155 170 174 151 c 0
 186 139 202 130 221 126 c 0
 224 125 226 125 229 125 c 1
 230 136 230 148 230 160 c 0
 230 161 230 163 231 164 c 0
 233 169 239 171 244 169 c 0
 245 168 246 168 247 167 c 2
 287 127 l 2
 288 126 289 126 289 125 c 0
 292 120 290 114 285 111 c 0
 284 111 283 110 282 110 c 0
 270 107 259 106 248 105 c 1
 245 80 237 57 217 37 c 0
 187 7 134 -10 40 -10 c 0
EndSplineSet
Ligature2: "FlipCores subtable" ddotbelow quotesingle
LCarets2: 1 320
EndChar

StartChar: a
Encoding: 97 97 90
Width: 320
Flags: HW
AnchorPoint: "Diacritic_mkmk" 157 140 mark 0
LayerCount: 2
Fore
SplineSet
170 140 m 0
 170 137 169 134 166 131 c 0
 163 128 160 127 157 127 c 0
 154 127 151 128 148 131 c 0
 145 134 144 137 144 140 c 0
 144 143 145 146 148 149 c 0
 151 152 154 153 157 153 c 0
 160 153 163 152 166 149 c 0
 169 146 170 143 170 140 c 0
EndSplineSet
EndChar

StartChar: e
Encoding: 101 101 91
Width: 320
Flags: HW
AnchorPoint: "Diacritic_mkmk" 190 140 mark 0
LayerCount: 2
Fore
SplineSet
160 130 m 2
 157 130 155 131 153 133 c 0
 149 137 149 143 153 147 c 0
 155 149 157 150 160 150 c 2
 220 150 l 2
 225 150 230 148 234 144 c 0
 238 140 240 135 240 130 c 0
 240 125 238 120 234 116 c 0
 230 112 225 110 220 110 c 0
 217 110 215 111 213 113 c 0
 209 117 209 123 213 127 c 0
 215 129 217 130 220 130 c 0
 160 130 l 2
220 130 m 1
 220 130 l 1
 220 130 l 1
220 130 m 1
 220 130 l 1
 220 130 l 1
 220 130 l 1
 220 130 l 1
220 130 m 1
 220 130 l 1
 220 130 l 1
EndSplineSet
EndChar

StartChar: i
Encoding: 105 105 92
Width: 320
Flags: HW
AnchorPoint: "Diacritic_mkmk" 200 100 mark 0
LayerCount: 2
Fore
SplineSet
153 133 m 2
 149 137 149 143 153 147 c 0
 157 151 163 151 167 147 c 2
 247 67 l 2
 251 63 251 57 247 53 c 0
 243 49 237 49 233 53 c 2
 153 133 l 2
EndSplineSet
EndChar

StartChar: o
Encoding: 111 111 93
Width: 320
Flags: HW
HStem: -88 30<247 268>
VStem: 217 103
AnchorPoint: "Diacritic_mkmk" 140 170 mark 0
LayerCount: 2
Fore
SplineSet
167 133 m 0
 163 129 157 129 153 133 c 0
 149 137 149 143 153 147 c 0
 158 152 161 157 163 162 c 0
 167 171 165 178 160 183 c 0
 154 189 140 194 116 190 c 0
 113 190 110 191 108 193 c 0
 104 197 104 203 108 207 c 0
 110 209 112 210 114 210 c 0
 141 214 162 209 174 197 c 0
 185 186 188 169 182 154 c 0
 179 147 174 140 167 133 c 0
EndSplineSet
EndChar

StartChar: u
Encoding: 117 117 94
Width: 320
Flags: HW
AnchorPoint: "Diacritic_mkmk" 160 110 mark 0
LayerCount: 2
Fore
SplineSet
150 140 m 2
 150 143 151 145 153 147 c 0
 157 151 163 151 167 147 c 0
 169 145 170 143 170 140 c 2
 170 80 l 0
 170 83 171 85 173 87 c 0
 177 91 183 91 187 87 c 0
 189 85 190 83 190 80 c 0
 190 75 188 70 184 66 c 0
 180 62 175 60 170 60 c 0
 165 60 160 62 156 66 c 0
 152 70 150 75 150 80 c 2
 150 140 l 2
170 80 m 1
 170 80 l 1
 170 80 l 1
170 80 m 1
 170 80 l 1
 170 80 l 1
 170 80 l 1
 170 80 l 1
170 80 m 1
 170 80 l 1
 170 80 l 1
EndSplineSet
EndChar

StartChar: adieresis
Encoding: 228 228 95
Width: 320
Flags: HW
AnchorPoint: "Diacritic_mkmk" 200 140 mark 0
LayerCount: 2
Fore
SplineSet
160 130 m 2
 157 130 155 131 153 133 c 0
 149 137 149 143 153 147 c 0
 155 149 157 150 160 150 c 2
 240 150 l 2
 243 150 245 149 247 147 c 0
 251 143 251 137 247 133 c 0
 245 131 243 130 240 130 c 2
 160 130 l 2
EndSplineSet
EndChar

StartChar: edieresis
Encoding: 235 235 96
Width: 320
Flags: HW
AnchorPoint: "Diacritic_mkmk" 130 140 mark 0
LayerCount: 2
Fore
SplineSet
160 150 m 2
 163 150 165 149 167 147 c 0
 171 143 171 137 167 133 c 0
 165 131 163 130 160 130 c 2
 100 130 l 2
 95 130 90 132 86 136 c 0
 82 140 80 145 80 150 c 0
 80 155 82 160 86 164 c 0
 90 168 95 170 100 170 c 0
 103 170 105 169 107 167 c 0
 111 163 111 157 107 153 c 0
 105 151 103 150 100 150 c 0
 160 150 l 2
100 150 m 1
 100 150 l 1
 100 150 l 1
100 150 m 1
 100 150 l 1
 100 150 l 1
 100 150 l 1
 100 150 l 1
100 150 m 1
 100 150 l 1
 100 150 l 1
EndSplineSet
EndChar

StartChar: idieresis
Encoding: 239 239 97
Width: 320
Flags: HW
AnchorPoint: "Diacritic_mkmk" 160 100 mark 0
LayerCount: 2
Fore
SplineSet
150 140 m 2
 150 143 151 145 153 147 c 0
 157 151 163 151 167 147 c 0
 169 145 170 143 170 140 c 2
 170 60 l 2
 170 57 169 55 167 53 c 0
 163 49 157 49 153 53 c 0
 151 55 150 57 150 60 c 2
 150 140 l 2
EndSplineSet
EndChar

StartChar: odieresis
Encoding: 246 246 98
Width: 320
Flags: HW
AnchorPoint: "Diacritic_mkmk" 180 110 mark 0
LayerCount: 2
Fore
SplineSet
153 147 m 0
 157 151 163 151 167 147 c 0
 171 143 171 137 167 133 c 0
 162 128 159 123 157 118 c 0
 153 109 155 102 160 97 c 0
 166 91 180 86 204 90 c 0
 207 90 210 89 212 87 c 0
 216 83 216 77 212 73 c 0
 210 71 208 70 206 70 c 0
 179 66 158 71 146 83 c 0
 135 94 132 111 138 126 c 0
 141 133 146 140 153 147 c 0
EndSplineSet
EndChar

StartChar: udieresis
Encoding: 252 252 99
Width: 320
Flags: HW
AnchorPoint: "Diacritic_mkmk" 160 170 mark 0
LayerCount: 2
Fore
SplineSet
170 140 m 2
 170 137 169 135 167 133 c 0
 163 129 157 129 153 133 c 0
 151 135 150 137 150 140 c 2
 150 200 l 0
 150 197 149 195 147 193 c 0
 143 189 137 189 133 193 c 0
 131 195 130 197 130 200 c 0
 130 205 132 210 136 214 c 0
 140 218 145 220 150 220 c 0
 155 220 160 218 164 214 c 0
 168 210 170 205 170 200 c 2
 170 140 l 2
150 200 m 1
 150 200 l 1
 150 200 l 1
150 200 m 1
 150 200 l 1
 150 200 l 1
 150 200 l 1
 150 200 l 1
150 200 m 1
 150 200 l 1
 150 200 l 1
EndSplineSet
EndChar

StartChar: ohungarumlaut
Encoding: 337 337 100
Width: 320
Flags: HW
AnchorPoint: "Diacritic_mkmk" 180 110 mark 0
LayerCount: 2
Fore
SplineSet
153 147 m 0
 157 151 163 151 167 147 c 0
 171 143 171 137 167 133 c 0
 162 128 159 123 157 118 c 0
 153 109 155 102 160 97 c 0
 166 91 180 86 204 90 c 0
 205 90 206 90 207 90 c 0
 212 89 216 83 215 78 c 0
 215 77 214 75 213 74 c 2
 173 14 l 2
 173 13 172 13 172 13 c 0
 168 9 162 9 158 13 c 0
 155 16 154 22 157 26 c 2
 185 69 l 1
 168 69 155 74 146 83 c 0
 135 94 132 111 138 126 c 0
 141 133 146 140 153 147 c 0
EndSplineSet
EndChar

StartChar: ograve
Encoding: 242 242 102
Width: 320
Flags: HW
AnchorPoint: "Diacritic_mkmk" 120 130 mark 0
LayerCount: 2
Fore
SplineSet
152 146 m 0
 153 147 l 0
 157 151 163 151 167 147 c 0
 171 143 171 138 168 134 c 0
 166 132 165 130 163 128 c 0
 152 117 136 110 120 110 c 0
 104 110 88 117 77 128 c 0
 75 130 74 132 72 134 c 0
 69 138 69 143 73 147 c 0
 77 151 83 151 87 147 c 0
 88 146 l 0
 89 145 91 143 92 142 c 0
 99 135 109 130 120 130 c 0
 131 130 141 135 148 142 c 0
 149 143 151 145 152 146 c 0
EndSplineSet
EndChar

StartChar: oacute
Encoding: 243 243 103
Width: 320
Flags: HW
AnchorPoint: "Diacritic_mkmk" 120 150 mark 0
LayerCount: 2
Fore
SplineSet
168 146 m 0
 171 142 171 137 167 133 c 0
 163 129 157 129 153 133 c 0
 152 134 l 0
 151 135 149 137 148 138 c 0
 141 145 131 150 120 150 c 0
 109 150 99 145 92 138 c 0
 91 137 89 135 88 134 c 0
 87 133 l 0
 83 129 77 129 73 133 c 0
 69 137 69 142 72 146 c 0
 74 148 75 150 77 152 c 0
 88 163 104 170 120 170 c 0
 136 170 152 163 163 152 c 0
 165 150 166 148 168 146 c 0
EndSplineSet
EndChar

StartChar: a_ograve
Encoding: 65584 -1 104
Width: 320
Flags: HW
AnchorPoint: "Diacritic_mkmk" 120 130 mark 0
LayerCount: 2
Fore
SplineSet
107 157 m 0
 107 160 108 163 111 166 c 0
 114 169 117 170 120 170 c 0
 123 170 126 169 129 166 c 0
 132 163 133 160 133 157 c 0
 133 154 132 151 129 148 c 0
 126 145 123 144 120 144 c 0
 117 144 114 145 111 148 c 0
 108 151 107 154 107 157 c 0
152 146 m 0
 153 147 l 0
 157 151 163 151 167 147 c 0
 171 143 171 138 168 134 c 0
 166 132 165 130 163 128 c 0
 152 117 136 110 120 110 c 0
 104 110 88 117 77 128 c 0
 75 130 74 132 72 134 c 0
 69 138 69 143 73 147 c 0
 77 151 83 151 87 147 c 0
 88 146 l 0
 89 145 91 143 92 142 c 0
 99 135 109 130 120 130 c 0
 131 130 141 135 148 142 c 0
 149 143 151 145 152 146 c 0
EndSplineSet
Ligature2: "VowelLigature subtable" ograve a
Ligature2: "VowelLigature subtable" a ograve
LCarets2: 1 160
EndChar

StartChar: a_oacute
Encoding: 65585 -1 105
Width: 320
Flags: HW
AnchorPoint: "Diacritic_mkmk" 200 150 mark 0
LayerCount: 2
Fore
SplineSet
213 123 m 0
 213 120 212 117 209 114 c 0
 206 111 203 110 200 110 c 0
 197 110 194 111 191 114 c 0
 188 117 187 120 187 123 c 0
 187 126 188 129 191 132 c 0
 194 135 197 136 200 136 c 0
 203 136 206 135 209 132 c 0
 212 129 213 126 213 123 c 0
168 134 m 0
 167 133 l 0
 163 129 157 129 153 133 c 0
 149 137 149 142 152 146 c 0
 154 148 155 150 157 152 c 0
 168 163 184 170 200 170 c 0
 216 170 232 163 243 152 c 0
 245 150 246 148 248 146 c 0
 251 142 251 137 247 133 c 0
 243 129 237 129 233 133 c 0
 232 134 l 0
 231 135 229 137 228 138 c 0
 221 145 211 150 200 150 c 0
 189 150 179 145 172 138 c 0
 171 137 169 135 168 134 c 0
EndSplineSet
Ligature2: "VowelLigature subtable" oacute a
Ligature2: "VowelLigature subtable" a oacute
LCarets2: 1 160
EndChar

StartChar: one.thou
Encoding: 65586 -1 106
Width: 320
Flags: HW
AnchorPoint: "Diacritic_mkmk" 40 384 mark 0
LayerCount: 2
Fore
SplineSet
0 374 m 2
 -3 374 -5 375 -7 377 c 0
 -11 381 -11 387 -7 391 c 0
 -5 393 -3 394 -0 394 c 2
 80 394 l 2
 83 394 85 393 87 391 c 0
 91 387 91 381 87 377 c 0
 85 375 83 374 80 374 c 2
 0 374 l 2
EndSplineSet
EndChar

StartChar: two.thou
Encoding: 65587 -1 107
Width: 320
Flags: HW
AnchorPoint: "Diacritic_mkmk" 30 366 mark 0
LayerCount: 2
Fore
SplineSet
-10 384 m 0
 -10 387 -9 389 -7 391 c 0
 -3 395 3 395 7 391 c 0
 9 389 10 387 10 384 c 0
 10 374 13 367 17 363 c 0
 24 356 36 356 43 363 c 0
 47 367 50 374 50 384 c 0
 50 387 51 389 53 391 c 0
 57 395 63 395 67 391 c 0
 69 389 70 387 70 384 c 0
 70 369 65 357 57 349 c 0
 42 334 18 334 3 349 c 0
 -5 357 -10 369 -10 384 c 0
EndSplineSet
EndChar

StartChar: three.thou
Encoding: 65588 -1 108
Width: 320
Flags: HW
AnchorPoint: "Diacritic_mkmk" 30 354 mark 0
LayerCount: 2
Fore
SplineSet
-7 377 m 2
 -11 381 -11 387 -7 391 c 0
 -3 395 3 395 7 391 c 2
 67 331 l 2
 71 327 71 321 67 317 c 0
 63 313 57 313 53 317 c 2
 -7 377 l 2
EndSplineSet
EndChar

StartChar: four.thou
Encoding: 65589 -1 109
Width: 320
Flags: HW
AnchorPoint: "Diacritic_mkmk" -30 354 mark 0
LayerCount: 2
Fore
SplineSet
-7 391 m 2
 -3 395 3 395 7 391 c 0
 11 387 11 381 7 377 c 2
 -53 317 l 2
 -57 313 -63 313 -67 317 c 0
 -71 321 -71 327 -67 331 c 2
 -7 391 l 2
EndSplineSet
EndChar

StartChar: five.thou
Encoding: 65590 -1 110
Width: 320
Flags: HW
AnchorPoint: "Diacritic_mkmk" -30 364 mark 0
LayerCount: 2
Fore
SplineSet
-0 394 m 2
 3 394 5 393 7 391 c 0
 11 387 11 381 7 377 c 0
 5 375 3 374 0 374 c 2
 -36 374 l 1
 -13 351 l 2
 -9 347 -9 341 -13 337 c 0
 -17 333 -23 333 -27 337 c 2
 -67 377 l 2
 -68 378 -68 379 -69 380 c 0
 -71 385 -69 391 -64 393 c 0
 -63 394 -61 394 -60 394 c 2
 -0 394 l 2
EndSplineSet
EndChar

StartChar: six.thou
Encoding: 65591 -1 111
Width: 320
Flags: HW
AnchorPoint: "Diacritic_mkmk" 30 364 mark 0
LayerCount: 2
Fore
SplineSet
36 374 m 1
 0 374 l 2
 -3 374 -5 375 -7 377 c 0
 -11 381 -11 387 -7 391 c 0
 -5 393 -3 394 -0 394 c 2
 60 394 l 2
 61 394 63 394 64 393 c 0
 69 391 71 385 69 380 c 0
 68 379 68 378 67 377 c 2
 27 337 l 2
 23 333 17 333 13 337 c 0
 9 341 9 347 13 351 c 2
 36 374 l 1
EndSplineSet
EndChar

StartChar: seven.thou
Encoding: 65592 -1 112
Width: 320
Flags: HW
AnchorPoint: "Diacritic_mkmk" 18 354 mark 0
LayerCount: 2
Fore
SplineSet
0 374 m 0
 -3 374 -5 375 -7 377 c 0
 -11 381 -11 387 -7 391 c 0
 -5 393 -3 394 -0 394 c 0
 15 394 27 389 35 381 c 0
 50 366 50 342 35 327 c 0
 27 319 15 314 0 314 c 0
 -3 314 -5 315 -7 317 c 0
 -11 321 -11 327 -7 331 c 0
 -5 333 -3 334 -0 334 c 0
 10 334 17 337 21 341 c 0
 28 348 28 360 21 367 c 0
 17 371 10 374 0 374 c 0
EndSplineSet
EndChar

StartChar: eight.thou
Encoding: 65593 -1 113
Width: 320
Flags: HW
AnchorPoint: "Diacritic_mkmk" -18 354 mark 0
LayerCount: 2
Fore
SplineSet
-0 394 m 0
 3 394 5 393 7 391 c 0
 11 387 11 381 7 377 c 0
 5 375 3 374 0 374 c 0
 -10 374 -17 371 -21 367 c 0
 -28 360 -28 348 -21 341 c 0
 -17 337 -10 334 -0 334 c 0
 3 334 5 333 7 331 c 0
 11 327 11 321 7 317 c 0
 5 315 3 314 0 314 c 0
 -15 314 -27 319 -35 327 c 0
 -50 342 -50 366 -35 381 c 0
 -27 389 -15 394 -0 394 c 0
EndSplineSet
EndChar

StartChar: nine.thou
Encoding: 65594 -1 114
Width: 320
Flags: HW
AnchorPoint: "Diacritic_mkmk" 0 384 mark 0
LayerCount: 2
Fore
SplineSet
10 384 m 0
 10 381 9 379 7 377 c 0
 3 373 -3 373 -7 377 c 0
 -9 379 -10 381 -10 384 c 0
 -10 399 -5 411 3 419 c 0
 18 434 42 434 57 419 c 0
 65 411 70 399 70 384 c 0
 70 381 69 379 67 377 c 0
 63 373 57 373 53 377 c 0
 51 379 50 381 50 384 c 0
 50 394 47 401 43 405 c 0
 36 412 24 412 17 405 c 0
 13 401 10 394 10 384 c 0
EndSplineSet
EndChar

StartChar: backslash.flip
Encoding: 65597 -1 122
Width: 320
Flags: HW
AnchorPoint: "Diacritic_right" 260 240 basechar 0
AnchorPoint: "Diacritic_left" 60 80 basechar 0
AnchorPoint: "Extension_down" 300 0 basechar 0
AnchorPoint: "Extension_up" 20 280 basechar 0
AnchorPoint: "Diacritic_up" 160 360 basechar 0
AnchorPoint: "Diacritic_down" 160 -60 basechar 0
LayerCount: 2
Fore
SplineSet
20 270 m 0
 17 270 15 271 13 273 c 0
 9 277 9 283 13 287 c 0
 15 289 17 290 20 290 c 0
 103 290 175 259 227 207 c 0
 279 155 310 83 310 0 c 0
 310 -3 309 -5 307 -7 c 0
 303 -11 297 -11 293 -7 c 0
 291 -5 290 -3 290 -0 c 0
 290 77 261 145 213 193 c 0
 165 241 97 270 20 270 c 0
EndSplineSet
Ligature2: "FlipCores subtable" backslash quotesingle
LCarets2: 1 0
EndChar

StartChar: backslash
Encoding: 92 92 128
Width: 320
Flags: HW
AnchorPoint: "Diacritic_up" 160 360 basechar 0
AnchorPoint: "Diacritic_down" 160 -60 basechar 0
AnchorPoint: "Extension_down" 300 0 basechar 0
AnchorPoint: "Extension_up" 20 280 basechar 0
AnchorPoint: "Diacritic_left" 0 80 basechar 0
AnchorPoint: "Diacritic_right" 260 240 basechar 0
LayerCount: 2
Fore
SplineSet
10 280 m 0
 10 283 11 285 13 287 c 0
 17 291 23 291 27 287 c 0
 29 285 30 283 30 280 c 0
 30 203 59 135 107 87 c 0
 155 39 223 10 300 10 c 0
 303 10 305 9 307 7 c 0
 311 3 311 -3 307 -7 c 0
 305 -9 303 -10 300 -10 c 0
 217 -10 145 21 93 73 c 0
 41 125 10 197 10 280 c 0
EndSplineSet
EndChar

StartChar: colon
Encoding: 58 58 130
Width: 320
Flags: HW
AnchorPoint: "Diacritic_right" 260 240 basechar 0
AnchorPoint: "Diacritic_left" 60 80 basechar 0
AnchorPoint: "Extension_down" 260 0 basechar 0
AnchorPoint: "Extension_up" 60 280 basechar 0
AnchorPoint: "Diacritic_up" 160 360 basechar 0
AnchorPoint: "Diacritic_down" 160 -60 basechar 0
LayerCount: 2
Fore
SplineSet
260 10 m 0
 263 10 265 9 267 7 c 0
 271 3 271 -3 267 -7 c 0
 265 -9 263 -10 260 -10 c 0
 229 -10 201 2 179 24 c 0
 148 55 130 104 130 160 c 0
 130 163 131 165 133 167 c 0
 137 171 143 171 147 167 c 0
 149 165 150 163 150 160 c 0
 150 108 168 65 194 39 c 0
 212 21 235 10 260 10 c 0
60 270 m 0
 57 270 55 271 53 273 c 0
 49 277 49 283 53 287 c 0
 55 289 57 290 60 290 c 0
 91 290 119 278 141 256 c 0
 172 225 190 176 190 120 c 0
 190 117 189 115 187 113 c 0
 183 109 177 109 173 113 c 0
 171 115 170 117 170 120 c 0
 170 172 152 215 126 241 c 0
 108 259 85 270 60 270 c 0
EndSplineSet
EndChar

StartChar: parenleft
Encoding: 40 40 135
Width: 320
Flags: HW
AnchorPoint: "Diacritic_right" 260 240 basechar 0
AnchorPoint: "Diacritic_left" 60 80 basechar 0
AnchorPoint: "Extension_down" 280 0 basechar 0
AnchorPoint: "Extension_up" 40 280 basechar 0
AnchorPoint: "Diacritic_up" 160 360 basechar 0
AnchorPoint: "Diacritic_down" 160 -60 basechar 0
LayerCount: 2
Fore
SplineSet
40 270 m 0
 37 270 35 271 33 273 c 0
 29 277 29 283 33 287 c 0
 35 289 37 290 40 290 c 0
 87 290 118 278 138 258 c 0
 152 244 161 225 165 207 c 0
 169 188 170 168 170 150 c 1
 212 148 239 137 258 118 c 0
 272 104 281 85 285 67 c 0
 290 44 290 21 290 0 c 0
 290 -3 289 -5 287 -7 c 0
 283 -11 277 -11 273 -7 c 0
 271 -5 270 -3 270 -0 c 0
 270 21 270 43 265 63 c 0
 261 79 255 93 244 104 c 0
 229 119 204 130 160 130 c 0
 159 130 l 0
 154 130 150 135 150 140 c 0
 150 161 150 183 145 203 c 0
 141 219 135 233 124 244 c 0
 109 259 84 270 40 270 c 0
EndSplineSet
Ligature2: "FlipCores subtable" parenright quotesingle
LCarets2: 1 160
EndChar

StartChar: parenright
Encoding: 41 41 136
Width: 320
Flags: HW
AnchorPoint: "Diacritic_right" 260 240 basechar 0
AnchorPoint: "Diacritic_left" 60 80 basechar 0
AnchorPoint: "Extension_down" 280 0 basechar 0
AnchorPoint: "Extension_up" 40 280 basechar 0
AnchorPoint: "Diacritic_up" 160 360 basechar 0
AnchorPoint: "Diacritic_down" 160 -60 basechar 0
LayerCount: 2
Fore
SplineSet
30 280 m 0
 30 283 31 285 33 287 c 0
 37 291 43 291 47 287 c 0
 49 285 50 283 50 280 c 0
 50 218 62 186 78 170 c 0
 97 151 127 150 160 150 c 0
 162 150 163 149 165 148 c 0
 168 146 170 143 170 140 c 0
 170 78 182 46 198 30 c 0
 217 11 247 10 280 10 c 0
 283 10 285 9 287 7 c 0
 291 3 291 -3 287 -7 c 0
 285 -9 283 -10 280 -10 c 0
 248 -10 211 -11 184 16 c 0
 163 37 151 72 150 130 c 1
 120 130 88 132 64 156 c 0
 42 178 30 216 30 280 c 0
EndSplineSet
Ligature2: "FlipCores subtable" parenleft quotesingle
LCarets2: 1 160
EndChar

StartChar: adieresis_i
Encoding: 65601 -1 137
Width: 320
Flags: HW
AnchorPoint: "Diacritic_mkmk" 190 170 mark 0
LayerCount: 2
Fore
SplineSet
160 130 m 2
 157 130 155 131 153 133 c 0
 149 137 149 143 153 147 c 0
 155 149 157 150 160 150 c 2
 219 150 l 1
 182 194 l 2
 179 198 179 203 183 207 c 0
 187 211 193 211 197 207 c 0
 198 206 l 2
 248 146 l 2
 249 145 249 144 249 143 c 0
 251 138 248 133 243 131 c 0
 242 131 241 130 240 130 c 2
 160 130 l 2
EndSplineSet
Ligature2: "VowelLigature subtable" i adieresis
Ligature2: "VowelLigature subtable" adieresis i
LCarets2: 1 160
EndChar

StartChar: ellipses.vert
Encoding: 8942 8942 139
Width: 320
Flags: HW
AnchorPoint: "Tertiary_mkmk" 160 220 mark 0
LayerCount: 2
Fore
SplineSet
170 140 m 2
 170 137 169 135 167 133 c 0
 163 129 157 129 153 133 c 0
 151 135 150 137 150 140 c 2
 150 300 l 2
 150 303 151 305 153 307 c 0
 157 311 163 311 167 307 c 0
 169 305 170 303 170 300 c 2
 170 140 l 2
EndSplineSet
Ligature2: "TertiaryLigature subtable" ellipses.vert a idieresis a
LCarets2: 3 160 160 160
EndChar

StartChar: equivalence
Encoding: 8801 8801 146
Width: 320
Flags: HW
AnchorPoint: "Tertiary_down" 160 40 basechar 0
AnchorPoint: "Tertiary_up" 160 240 basechar 0
AnchorPoint: "Diacritic_up" 160 360 basechar 0
AnchorPoint: "Diacritic_down" 160 -60 basechar 0
LayerCount: 2
Fore
SplineSet
60 130 m 2
 57 130 55 131 53 133 c 0
 49 137 49 143 53 147 c 0
 55 149 57 150 60 150 c 2
 260 150 l 2
 263 150 265 149 267 147 c 0
 271 143 271 137 267 133 c 0
 265 131 263 130 260 130 c 2
 60 130 l 2
EndSplineSet
Ligature2: "TertiaryLigature subtable" equivalence a a
LCarets2: 2 160 160
EndChar

StartChar: ithk_valence.CNG
Encoding: 65604 -1 147
Width: 320
Flags: HW
AnchorPoint: "Tertiary_up" 160 240 basechar 0
AnchorPoint: "Tertiary_down" 160 40 basechar 0
AnchorPoint: "Diacritic_up" 160 360 basechar 0
AnchorPoint: "Diacritic_down" 160 -60 basechar 0
LayerCount: 2
Fore
SplineSet
60 130 m 2
 57 130 55 131 53 133 c 0
 49 137 49 143 53 147 c 0
 55 149 57 150 60 150 c 2
 205 150 l 1
 207 157 211 163 216 168 c 0
 223 175 233 180 244 180 c 0
 245 180 245 180 246 180 c 0
 251 179 255 173 254 168 c 0
 254 167 253 167 253 166 c 0
 247 154 247 145 249 138 c 0
 251 133 255 127 258 124 c 0
 262 120 265 119 265 119 c 2
 266 119 266 118 267 117 c 0
 271 113 271 107 267 103 c 0
 264 100 259 99 255 101 c 0
 254 101 250 104 244 110 c 0
 239 115 233 122 230 131 c 0
 228 137 227 145 228 153 c 1
 225 150 224 145 224 140 c 0
 224 139 223 138 223 137 c 0
 222 133 218 130 214 130 c 2
 60 130 l 2
EndSplineSet
Ligature2: "TertiaryLigature subtable" equivalence a v
LCarets2: 2 160 160
EndChar

StartChar: ithk_valence.CPL
Encoding: 65605 -1 148
Width: 320
Flags: HW
AnchorPoint: "Tertiary_down" 160 40 basechar 0
AnchorPoint: "Tertiary_up" 160 240 basechar 0
AnchorPoint: "Diacritic_up" 160 360 basechar 0
AnchorPoint: "Diacritic_down" 160 -60 basechar 0
LayerCount: 2
Fore
SplineSet
70 110 m 0
 70 107 69 105 67 103 c 0
 63 99 57 99 53 103 c 0
 51 105 50 107 50 110 c 0
 50 121 55 131 62 138 c 0
 69 145 79 150 90 150 c 2
 260 150 l 2
 263 150 265 149 267 147 c 0
 271 143 271 137 267 133 c 0
 265 131 263 130 260 130 c 2
 90 130 l 2
 84 130 79 127 76 124 c 0
 73 121 70 116 70 110 c 0
EndSplineSet
Ligature2: "TertiaryLigature subtable" equivalence s a
LCarets2: 2 160 160
EndChar

StartChar: ithk_valence.CRO
Encoding: 65606 -1 149
Width: 320
Flags: HW
AnchorPoint: "Tertiary_down" 160 40 basechar 0
AnchorPoint: "Tertiary_up" 160 240 basechar 0
AnchorPoint: "Diacritic_up" 160 360 basechar 0
AnchorPoint: "Diacritic_down" 160 -60 basechar 0
LayerCount: 2
Fore
SplineSet
50 170 m 0
 50 173 51 175 53 177 c 0
 57 181 63 181 67 177 c 0
 69 175 70 173 70 170 c 0
 70 164 73 159 76 156 c 0
 79 153 84 150 90 150 c 2
 260 150 l 2
 263 150 265 149 267 147 c 0
 271 143 271 137 267 133 c 0
 265 131 263 130 260 130 c 2
 90 130 l 2
 79 130 69 135 62 142 c 0
 55 149 50 159 50 170 c 0
EndSplineSet
Ligature2: "TertiaryLigature subtable" equivalence z a
LCarets2: 2 160 160
EndChar

StartChar: ithk_valence.DEM
Encoding: 65607 -1 150
Width: 320
Flags: HW
AnchorPoint: "Tertiary_down" 160 40 basechar 0
AnchorPoint: "Tertiary_up" 160 240 basechar 0
AnchorPoint: "Diacritic_up" 160 360 basechar 0
AnchorPoint: "Diacritic_down" 160 -60 basechar 0
LayerCount: 2
Fore
SplineSet
60 130 m 2
 57 130 55 131 53 133 c 0
 49 137 49 143 53 147 c 0
 55 149 57 150 60 150 c 2
 211 150 l 1
 212 156 212 162 214 167 c 0
 216 173 220 179 224 183 c 0
 228 187 233 190 240 190 c 0
 247 190 252 187 256 183 c 0
 260 179 264 173 266 167 c 0
 269 159 270 150 270 140 c 0
 270 117 259 97 259 96 c 0
 259 95 258 94 257 93 c 0
 253 89 247 89 243 93 c 0
 240 96 239 100 241 104 c 2
 241 104 250 123 250 140 c 0
 250 148 249 155 247 160 c 0
 245 164 243 168 242 169 c 0
 241 170 240 170 240 170 c 1
 240 170 239 170 238 169 c 0
 237 168 235 164 233 160 c 0
 231 155 230 148 230 140 c 0
 230 139 229 138 229 137 c 0
 228 133 224 130 220 130 c 2
 60 130 l 2
EndSplineSet
Ligature2: "TertiaryLigature subtable" equivalence a f
LCarets2: 2 160 160
EndChar

StartChar: ithk_valence.DUP
Encoding: 65608 -1 151
Width: 320
Flags: HW
AnchorPoint: "Tertiary_down" 160 40 basechar 0
AnchorPoint: "Tertiary_up" 160 240 basechar 0
AnchorPoint: "Diacritic_up" 160 360 basechar 0
AnchorPoint: "Diacritic_down" 160 -60 basechar 0
LayerCount: 2
Fore
SplineSet
60 130 m 2
 57 130 55 131 53 133 c 0
 49 137 49 143 53 147 c 0
 55 149 57 150 60 150 c 2
 230 150 l 2
 236 150 241 153 244 156 c 0
 247 159 250 164 250 170 c 0
 250 173 251 175 253 177 c 0
 257 181 263 181 267 177 c 0
 269 175 270 173 270 170 c 0
 270 159 265 149 258 142 c 0
 251 135 241 130 230 130 c 2
 60 130 l 2
EndSplineSet
Ligature2: "TertiaryLigature subtable" equivalence a s
LCarets2: 2 160 160
EndChar

StartChar: ithk_valence.PRL
Encoding: 65609 -1 152
Width: 320
Flags: HW
AnchorPoint: "Tertiary_down" 160 40 basechar 0
AnchorPoint: "Tertiary_up" 160 240 basechar 0
AnchorPoint: "Diacritic_up" 160 360 basechar 0
AnchorPoint: "Diacritic_down" 160 -60 basechar 0
LayerCount: 2
Fore
SplineSet
60 130 m 2
 57 130 55 131 53 133 c 0
 49 137 49 143 53 147 c 0
 55 149 57 150 60 150 c 2
 230 150 l 2
 241 150 251 145 258 138 c 0
 265 131 270 121 270 110 c 0
 270 107 269 105 267 103 c 0
 263 99 257 99 253 103 c 0
 251 105 250 107 250 110 c 0
 250 116 247 121 244 124 c 0
 241 127 236 130 230 130 c 2
 60 130 l 2
EndSplineSet
Ligature2: "TertiaryLigature subtable" equivalence a z
LCarets2: 2 160 160
EndChar

StartChar: ithk_valence.PTI
Encoding: 65610 -1 153
Width: 320
Flags: HW
AnchorPoint: "Tertiary_down" 160 40 basechar 0
AnchorPoint: "Tertiary_up" 160 240 basechar 0
AnchorPoint: "Diacritic_up" 160 360 basechar 0
AnchorPoint: "Diacritic_down" 160 -60 basechar 0
LayerCount: 2
Fore
SplineSet
211 150 m 1
 212 156 212 162 214 167 c 0
 216 173 220 179 224 183 c 0
 228 187 233 190 240 190 c 0
 247 190 252 187 256 183 c 0
 260 179 264 173 266 167 c 0
 269 159 270 150 270 140 c 0
 270 117 259 97 259 96 c 0
 259 95 258 94 257 93 c 0
 253 89 247 89 243 93 c 0
 240 96 239 100 241 104 c 2
 241 104 250 123 250 140 c 0
 250 148 249 155 247 160 c 0
 245 164 243 168 242 169 c 0
 241 170 240 170 240 170 c 1
 240 170 239 170 238 169 c 0
 237 168 235 164 233 160 c 0
 231 155 230 148 230 140 c 0
 230 139 229 138 229 137 c 0
 228 133 224 130 220 130 c 2
 103 130 l 1
 66 102 l 2
 62 99 57 99 53 103 c 0
 49 107 49 113 53 117 c 0
 54 118 l 2
 94 148 l 2
 96 149 98 150 100 150 c 0
 137 150 174 150 211 150 c 1
EndSplineSet
Ligature2: "TertiaryLigature subtable" equivalence s f
LCarets2: 2 160 160
EndChar

StartChar: ithk_valence.RCP
Encoding: 65611 -1 154
Width: 320
Flags: HW
AnchorPoint: "Tertiary_down" 160 40 basechar 0
AnchorPoint: "Tertiary_up" 160 240 basechar 0
AnchorPoint: "Diacritic_up" 160 360 basechar 0
AnchorPoint: "Diacritic_down" 160 -60 basechar 0
LayerCount: 2
Fore
SplineSet
50 170 m 0
 50 173 51 175 53 177 c 0
 57 181 63 181 67 177 c 0
 69 175 70 173 70 170 c 0
 70 164 73 159 76 156 c 0
 79 153 84 150 90 150 c 2
 230 150 l 2
 241 150 251 145 258 138 c 0
 265 131 270 121 270 110 c 0
 270 107 269 105 267 103 c 0
 263 99 257 99 253 103 c 0
 251 105 250 107 250 110 c 0
 250 116 247 121 244 124 c 0
 241 127 236 130 230 130 c 2
 90 130 l 2
 79 130 69 135 62 142 c 0
 55 149 50 159 50 170 c 0
EndSplineSet
Ligature2: "TertiaryLigature subtable" equivalence z z
LCarets2: 2 160 160
EndChar

StartChar: ithk_phase.FLC
Encoding: 65612 -1 155
Width: 320
Flags: HW
AnchorPoint: "Tertiary_mkmk" 160 220 mark 0
LayerCount: 2
Fore
SplineSet
112 202 m 1
 167 147 l 2
 171 143 171 137 167 133 c 0
 163 129 157 129 153 133 c 2
 93 193 l 2
 90 196 89 201 91 205 c 2
 131 275 l 2
 131 276 132 276 133 277 c 0
 137 281 143 281 147 277 c 0
 150 274 151 269 149 265 c 2
 112 202 l 1
EndSplineSet
Ligature2: "TertiaryLigature subtable" ellipses.vert a idieresis p
LCarets2: 3 160 160 160
EndChar

StartChar: ithk_phase.FRE
Encoding: 65613 -1 156
Width: 320
Flags: HW
AnchorPoint: "Tertiary_mkmk" 160 220 mark 0
LayerCount: 2
Fore
SplineSet
187 167 m 1
 225 189 l 2
 229 191 234 190 237 187 c 0
 241 183 241 177 237 173 c 0
 236 172 236 171 235 171 c 2
 165 131 l 2
 163 130 162 130 160 130 c 0
 157 130 155 131 153 133 c 0
 151 135 150 137 150 140 c 0
 150 142 150 143 151 145 c 2
 188 208 l 1
 143 253 l 2
 139 257 139 263 143 267 c 0
 147 271 153 271 157 267 c 2
 207 217 l 2
 210 214 211 209 209 205 c 2
 187 167 l 1
EndSplineSet
Ligature2: "TertiaryLigature subtable" ellipses.vert p idieresis s
LCarets2: 3 160 160 160
EndChar

StartChar: ithk_phase.FRG
Encoding: 65614 -1 157
Width: 320
Flags: HW
AnchorPoint: "Tertiary_mkmk" 160 220 mark 0
LayerCount: 2
Fore
SplineSet
133 233 m 1
 95 211 l 2
 91 209 86 210 83 213 c 0
 79 217 79 223 83 227 c 0
 84 228 84 229 85 229 c 2
 155 269 l 2
 157 270 158 270 160 270 c 0
 163 270 165 269 167 267 c 0
 169 265 170 263 170 260 c 0
 170 258 170 257 169 255 c 2
 132 192 l 1
 177 147 l 2
 181 143 181 137 177 133 c 0
 173 129 167 129 163 133 c 2
 113 183 l 2
 110 186 109 191 111 195 c 2
 133 233 l 1
EndSplineSet
Ligature2: "TertiaryLigature subtable" ellipses.vert s idieresis p
LCarets2: 3 160 160 160
EndChar

StartChar: ithk_phase.ITM
Encoding: 65615 -1 158
Width: 320
Flags: HW
AnchorPoint: "Tertiary_mkmk" 120 220 mark 0
LayerCount: 2
Fore
SplineSet
160 150 m 0
 163 150 165 149 167 147 c 0
 171 143 171 137 167 133 c 0
 165 131 163 130 160 130 c 0
 146 130 134 136 125 145 c 0
 116 154 110 166 110 180 c 2
 110 260 l 2
 110 268 106 276 101 281 c 0
 96 286 88 290 80 290 c 0
 77 290 75 291 73 293 c 0
 69 297 69 303 73 307 c 0
 75 309 77 310 80 310 c 0
 94 310 106 304 115 295 c 0
 124 286 130 274 130 260 c 2
 130 180 l 2
 130 172 134 164 139 159 c 0
 144 154 152 150 160 150 c 0
EndSplineSet
Ligature2: "TertiaryLigature subtable" ellipses.vert s idieresis s
LCarets2: 3 160 160 160
EndChar

StartChar: ithk_phase.ITR
Encoding: 65616 -1 159
Width: 320
Flags: HW
AnchorPoint: "Tertiary_mkmk" 160 220 mark 0
LayerCount: 2
Fore
SplineSet
170 140 m 2
 170 137 169 135 167 133 c 0
 163 129 157 129 153 133 c 0
 151 135 150 137 150 140 c 2
 150 260 l 2
 150 268 146 276 141 281 c 0
 136 286 128 290 120 290 c 0
 117 290 115 291 113 293 c 0
 109 297 109 303 113 307 c 0
 115 309 117 310 120 310 c 0
 134 310 146 304 155 295 c 0
 164 286 170 274 170 260 c 2
 170 140 l 2
EndSplineSet
Ligature2: "TertiaryLigature subtable" ellipses.vert s idieresis a
LCarets2: 3 160 160 160
EndChar

StartChar: ithk_phase.RCT
Encoding: 65617 -1 160
Width: 320
Flags: HW
AnchorPoint: "Tertiary_mkmk" 200 220 mark 0
LayerCount: 2
Fore
SplineSet
160 130 m 0
 157 130 155 131 153 133 c 0
 149 137 149 143 153 147 c 0
 155 149 157 150 160 150 c 0
 168 150 176 154 181 159 c 0
 186 164 190 172 190 180 c 2
 190 300 l 2
 190 303 191 305 193 307 c 0
 197 311 203 311 207 307 c 0
 209 305 210 303 210 300 c 2
 210 180 l 2
 210 166 204 154 195 145 c 0
 186 136 174 130 160 130 c 0
EndSplineSet
Ligature2: "TertiaryLigature subtable" ellipses.vert a idieresis z
LCarets2: 3 160 160 160
EndChar

StartChar: ithk_phase.REP
Encoding: 65618 -1 161
Width: 320
Flags: HW
AnchorPoint: "Tertiary_mkmk" 120 220 mark 0
LayerCount: 2
Fore
SplineSet
160 150 m 0
 163 150 165 149 167 147 c 0
 171 143 171 137 167 133 c 0
 165 131 163 130 160 130 c 0
 146 130 134 136 125 145 c 0
 116 154 110 166 110 180 c 2
 110 300 l 2
 110 303 111 305 113 307 c 0
 117 311 123 311 127 307 c 0
 129 305 130 303 130 300 c 2
 130 180 l 2
 130 172 134 164 139 159 c 0
 144 154 152 150 160 150 c 0
EndSplineSet
Ligature2: "TertiaryLigature subtable" ellipses.vert a idieresis s
LCarets2: 3 160 160 160
EndChar

StartChar: ithk_phase.VAC
Encoding: 65619 -1 162
Width: 320
Flags: HW
AnchorPoint: "Tertiary_mkmk" 160 220 mark 0
LayerCount: 2
Fore
SplineSet
169 135 m 2
 169 134 168 134 167 133 c 0
 163 129 157 129 153 133 c 0
 150 136 149 141 151 145 c 2
 188 208 l 1
 133 263 l 2
 129 267 129 273 133 277 c 0
 137 281 143 281 147 277 c 2
 207 217 l 2
 210 214 211 209 209 205 c 2
 169 135 l 2
EndSplineSet
Ligature2: "TertiaryLigature subtable" ellipses.vert p idieresis a
LCarets2: 3 160 160 160
EndChar

StartChar: ithk_effect.oneben
Encoding: 65620 -1 163
Width: 320
Flags: HW
AnchorPoint: "Tertiary_mkmk" 120 200 mark 0
LayerCount: 2
Fore
SplineSet
168 146 m 2
 171 142 170 136 167 133 c 0
 163 129 157 129 153 133 c 0
 153 133 152 133 152 134 c 2
 72 254 l 2
 69 258 70 264 73 267 c 0
 77 271 83 271 87 267 c 0
 87 267 88 267 88 266 c 2
 168 146 l 2
EndSplineSet
Ligature2: "TertiaryLigature subtable" ellipses.vert a i a
LCarets2: 3 160 160 160
EndChar

StartChar: ithk_effect.onedet
Encoding: 65621 -1 164
Width: 320
Flags: HW
AnchorPoint: "Tertiary_mkmk" 90 200 mark 0
LayerCount: 2
Fore
SplineSet
160 150 m 2
 163 150 165 149 167 147 c 0
 171 143 171 137 167 133 c 0
 165 131 163 130 160 130 c 2
 130 130 l 2
 127 130 124 131 122 134 c 2
 42 254 l 2
 39 258 40 264 43 267 c 0
 47 271 53 271 57 267 c 0
 57 267 58 267 58 266 c 2
 135 150 l 1
 160 150 l 2
EndSplineSet
Ligature2: "TertiaryLigature subtable" ellipses.vert a i m
LCarets2: 3 160 160 160
EndChar

StartChar: ithk_effect.twoben
Encoding: 65622 -1 165
Width: 320
Flags: HW
AnchorPoint: "Tertiary_mkmk" 120 200 mark 0
LayerCount: 2
Fore
SplineSet
168 146 m 2
 171 142 170 136 167 133 c 0
 163 129 157 129 153 133 c 0
 153 133 152 133 152 134 c 2
 92 224 l 2
 89 228 87 231 85 233 c 0
 79 239 76 238 75 238 c 0
 74 238 72 237 71 236 c 0
 70 235 69 233 69 233 c 0
 69 232 68 232 67 231 c 0
 63 227 57 227 53 231 c 0
 50 234 49 239 51 243 c 0
 51 243 54 247 57 250 c 0
 60 253 64 257 71 258 c 0
 80 260 90 256 99 247 c 0
 102 244 105 241 108 236 c 2
 168 146 l 2
EndSplineSet
Ligature2: "TertiaryLigature subtable" ellipses.vert s i a
LCarets2: 3 160 160 160
EndChar

StartChar: ithk_effect.twodet
Encoding: 65623 -1 166
Width: 320
Flags: HW
AnchorPoint: "Tertiary_mkmk" 120 200 mark 0
LayerCount: 2
Fore
SplineSet
168 146 m 2
 171 142 170 136 167 133 c 0
 163 129 157 129 153 133 c 0
 153 133 152 133 152 134 c 2
 75 250 l 1
 50 250 l 2
 47 250 45 251 43 253 c 0
 39 257 39 263 43 267 c 0
 45 269 47 270 50 270 c 2
 80 270 l 2
 83 270 86 269 88 266 c 2
 168 146 l 2
EndSplineSet
Ligature2: "TertiaryLigature subtable" ellipses.vert m i a
LCarets2: 3 160 160 160
EndChar

StartChar: ithk_effect.threeben
Encoding: 65624 -1 167
Width: 320
Flags: HW
AnchorPoint: "Tertiary_mkmk" 200 188 mark 0
LayerCount: 2
Fore
SplineSet
152 242 m 2
 149 246 150 252 153 255 c 0
 157 259 163 259 167 255 c 0
 167 255 168 255 168 254 c 2
 228 164 l 2
 231 160 233 157 235 155 c 0
 241 149 244 150 245 150 c 0
 246 150 248 151 249 152 c 0
 250 153 251 155 251 155 c 0
 251 156 252 156 253 157 c 0
 257 161 263 161 267 157 c 0
 270 154 271 149 269 145 c 0
 269 145 266 141 263 138 c 0
 260 135 256 131 249 130 c 0
 240 128 230 132 221 141 c 0
 218 144 215 147 212 152 c 2
 152 242 l 2
EndSplineSet
Ligature2: "TertiaryLigature subtable" ellipses.vert a i s
LCarets2: 3 160 160 160
EndChar

StartChar: ithk_effect.threedet
Encoding: 65625 -1 168
Width: 320
Flags: HW
AnchorPoint: "Tertiary_mkmk" 90 200 mark 0
LayerCount: 2
Fore
SplineSet
50 242 m 1
 34 218 l 2
 34 217 33 217 33 217 c 0
 29 213 23 213 19 217 c 0
 16 220 15 226 18 230 c 2
 42 266 l 2
 44 269 48 271 52 270 c 0
 55 269 57 268 58 266 c 2
 135 150 l 1
 160 150 l 2
 163 150 165 149 167 147 c 0
 171 143 171 137 167 133 c 0
 165 131 163 130 160 130 c 2
 130 130 l 2
 127 130 124 131 122 134 c 2
 50 242 l 1
EndSplineSet
Ligature2: "TertiaryLigature subtable" ellipses.vert s i m
LCarets2: 3 160 160 160
EndChar

StartChar: ithk_effect.slfben
Encoding: 65626 -1 169
Width: 320
Flags: HW
AnchorPoint: "Tertiary_mkmk" 180 188 mark 0
LayerCount: 2
Fore
SplineSet
129 221 m 0
 129 220 128 220 127 219 c 0
 123 215 117 215 113 219 c 0
 110 222 109 227 111 231 c 0
 111 231 114 235 117 238 c 0
 120 241 124 245 131 246 c 0
 140 248 150 244 159 235 c 0
 162 232 165 229 168 224 c 2
 168 224 l 1
 208 164 l 2
 211 160 213 157 215 155 c 0
 221 149 224 150 225 150 c 0
 226 150 228 151 229 152 c 0
 230 153 231 155 231 155 c 0
 231 156 232 156 233 157 c 0
 237 161 243 161 247 157 c 0
 250 154 251 149 249 145 c 0
 249 145 246 141 243 138 c 0
 240 135 236 131 229 130 c 0
 220 128 210 132 201 141 c 0
 198 144 195 147 192 152 c 2
 152 212 l 2
 149 216 147 219 145 221 c 0
 139 227 136 226 135 226 c 0
 134 226 132 225 131 224 c 0
 130 223 129 221 129 221 c 0
EndSplineSet
Ligature2: "TertiaryLigature subtable" ellipses.vert s i s
LCarets2: 3 160 160 160
EndChar

StartChar: ithk_effect.slfdet
Encoding: 65627 -1 170
Width: 320
Flags: HW
AnchorPoint: "Tertiary_mkmk" 200 210 mark 0
LayerCount: 2
Fore
SplineSet
152 264 m 2
 149 268 150 274 153 277 c 0
 157 281 163 281 167 277 c 0
 167 277 168 277 168 276 c 2
 228 186 l 2
 236 175 239 164 237 155 c 0
 236 148 232 143 228 139 c 0
 222 133 217 131 216 131 c 0
 212 129 208 130 205 133 c 0
 201 137 201 143 205 147 c 0
 206 148 207 149 208 149 c 2
 208 149 211 150 214 153 c 0
 216 155 217 157 217 159 c 0
 218 162 218 166 212 174 c 0
 212 174 l 2
 152 264 l 2
EndSplineSet
Ligature2: "TertiaryLigature subtable" ellipses.vert a i z
LCarets2: 3 160 160 160
EndChar

StartChar: ithk_effect.unk
Encoding: 65628 -1 171
Width: 320
Flags: HW
AnchorPoint: "Tertiary_mkmk" 120 200 mark 0
LayerCount: 2
Fore
SplineSet
168 146 m 2
 171 142 170 136 167 133 c 0
 163 129 157 129 153 133 c 0
 153 133 152 133 152 134 c 2
 92 224 l 2
 84 235 81 246 83 255 c 0
 84 262 88 267 92 271 c 0
 98 277 103 279 104 279 c 0
 108 281 112 280 115 277 c 0
 119 273 119 267 115 263 c 0
 114 262 113 261 112 261 c 2
 112 261 109 260 106 257 c 0
 104 255 103 253 103 251 c 0
 102 248 102 244 108 236 c 0
 108 236 l 2
 168 146 l 2
EndSplineSet
Ligature2: "TertiaryLigature subtable" ellipses.vert z i a
LCarets2: 3 160 160 160
EndChar

StartChar: ddotbelow
Encoding: 7693 7693 176
Width: 320
Flags: HW
AnchorPoint: "Diacritic_left" 10 140 basechar 0
AnchorPoint: "Diacritic_right" 250 140 basechar 0
AnchorPoint: "Diacritic_up" 160 360 basechar 0
AnchorPoint: "Diacritic_down" 160 -60 basechar 0
AnchorPoint: "Extension_up" 280 280 basechar 0
AnchorPoint: "Extension_down" 200 0 basechar 0
LayerCount: 2
Fore
SplineSet
60 154 m 1
 70 144 l 1
 70 148 71 151 71 155 c 1
 68 155 64 155 60 154 c 1
280 290 m 0
 283 290 285 289 287 287 c 0
 291 283 291 277 287 273 c 0
 285 271 283 270 280 270 c 0
 188 270 142 253 118 229 c 0
 103 214 96 196 93 175 c 1
 101 174 109 172 116 170 c 0
 133 164 148 155 160 143 c 0
 183 120 195 89 202 62 c 0
 210 28 210 0 210 0 c 2
 210 -3 209 -5 207 -7 c 0
 203 -11 197 -11 193 -7 c 0
 191 -5 190 -3 190 -0 c 2
 190 0 190 26 182 58 c 0
 176 83 165 110 146 129 c 0
 134 141 118 150 99 154 c 0
 96 155 94 155 91 155 c 1
 90 144 90 132 90 120 c 0
 90 119 90 117 89 116 c 0
 87 111 81 109 76 111 c 0
 75 112 74 112 73 113 c 2
 33 153 l 2
 32 154 31 154 31 155 c 0
 28 160 30 166 35 169 c 0
 36 169 37 170 38 170 c 0
 50 173 61 174 72 175 c 1
 75 200 83 223 103 243 c 0
 133 273 186 290 280 290 c 0
EndSplineSet
Substitution2: "Single Substitution lookup 19 subtable" ddotbelow.ext.up
Substitution2: "Single Substitution lookup 18 subtable" ddotbelow.ext.down
EndChar

StartChar: ithk_aspect.ATP
Encoding: 65629 -1 177
Width: 320
Flags: HW
AnchorPoint: "Tertiary_mkmk" 120 140 mark 0
LayerCount: 2
Fore
SplineSet
168 104 m 2
 168 103 167 103 167 103 c 0
 163 99 157 99 153 103 c 0
 150 106 149 112 152 116 c 2
 161 130 l 1
 60 130 l 2
 59 130 59 130 58 130 c 0
 53 131 50 135 50 140 c 0
 50 169 60 189 74 203 c 0
 86 215 100 222 112 226 c 0
 127 230 139 230 140 230 c 0
 143 230 145 229 147 227 c 0
 151 223 151 217 147 213 c 0
 145 211 143 210 140 210 c 2
 140 210 109 210 88 189 c 0
 79 180 72 169 70 150 c 1
 107 150 143 150 180 150 c 0
 181 150 182 150 183 150 c 0
 188 148 192 142 190 137 c 0
 190 136 189 135 188 134 c 2
 168 104 l 2
EndSplineSet
Ligature2: "TertiaryLigature subtable" ellipses.vert f adieresis z
LCarets2: 3 160 160 160
EndChar

StartChar: ithk_aspect.CCL
Encoding: 65630 -1 178
Width: 320
Flags: HW
AnchorPoint: "Tertiary_mkmk" 220 140 mark 0
LayerCount: 2
Fore
SplineSet
160 170 m 0
 157 170 155 171 153 173 c 0
 149 177 149 183 153 187 c 0
 155 189 157 190 160 190 c 0
 168 190 176 186 181 181 c 0
 186 176 190 168 190 160 c 0
 190 156 189 153 188 150 c 1
 280 150 l 2
 283 150 285 149 287 147 c 0
 291 143 291 137 287 133 c 0
 285 131 283 130 280 130 c 2
 160 130 l 2
 154 130 150 134 150 140 c 0
 150 146 154 150 160 150 c 0
 163 150 165 151 167 153 c 0
 169 155 170 157 170 160 c 0
 170 163 169 165 167 167 c 0
 165 169 163 170 160 170 c 0
EndSplineSet
Ligature2: "TertiaryLigature subtable" ellipses.vert g adieresis a
LCarets2: 3 160 160 160
EndChar

StartChar: ithk_aspect.CLM
Encoding: 65631 -1 179
Width: 320
Flags: HW
AnchorPoint: "Tertiary_mkmk" 100 160 mark 0
LayerCount: 2
Fore
SplineSet
160 130 m 0
 163 130 165 129 167 127 c 0
 171 123 171 117 167 113 c 0
 165 111 163 110 160 110 c 0
 152 110 144 114 139 119 c 0
 134 124 130 132 130 140 c 0
 130 144 131 147 132 150 c 1
 40 150 l 2
 37 150 35 151 33 153 c 0
 29 157 29 163 33 167 c 0
 35 169 37 170 40 170 c 2
 160 170 l 2
 166 170 170 166 170 160 c 0
 170 154 166 150 160 150 c 0
 157 150 155 149 153 147 c 0
 151 145 150 143 150 140 c 0
 150 137 151 135 153 133 c 0
 155 131 157 130 160 130 c 0
EndSplineSet
Ligature2: "TertiaryLigature subtable" ellipses.vert a adieresis g
LCarets2: 3 160 160 160
EndChar

StartChar: ithk_aspect.CNT
Encoding: 65632 -1 180
Width: 320
Flags: HW
AnchorPoint: "Tertiary_mkmk" 90 220 mark 0
LayerCount: 2
Fore
SplineSet
79 210 m 1
 87 205 94 201 100 195 c 0
 115 180 120 162 120 140 c 0
 120 137 119 135 117 133 c 0
 113 129 107 129 103 133 c 0
 101 135 100 137 100 140 c 0
 100 158 95 170 85 180 c 0
 74 191 56 201 27 211 c 0
 25 212 23 212 22 214 c 0
 19 218 20 225 24 228 c 0
 26 229 28 230 30 230 c 2
 126 230 l 1
 153 257 l 2
 157 261 163 261 167 257 c 0
 171 253 171 247 167 243 c 2
 137 213 l 2
 135 211 133 210 130 210 c 0
 113 210 96 210 79 210 c 1
EndSplineSet
Ligature2: "TertiaryLigature subtable" ellipses.vert ddotbelow adieresis s
LCarets2: 3 160 160 160
EndChar

StartChar: ithk_aspect.CSS
Encoding: 65633 -1 181
Width: 320
Flags: HW
AnchorPoint: "Tertiary_mkmk" 100 220 mark 0
LayerCount: 2
Fore
SplineSet
160 230 m 2
 163 230 165 229 167 227 c 0
 171 223 171 217 167 213 c 0
 165 211 163 210 160 210 c 2
 50 210 l 1
 52 191 59 180 68 171 c 0
 89 150 120 150 120 150 c 2
 123 150 125 149 127 147 c 0
 131 143 131 137 127 133 c 0
 125 131 123 130 120 130 c 0
 119 130 107 130 92 134 c 0
 80 138 66 145 54 157 c 0
 40 171 30 191 30 220 c 0
 30 221 l 0
 30 226 35 230 40 230 c 2
 160 230 l 2
EndSplineSet
Ligature2: "TertiaryLigature subtable" ellipses.vert tcedilla adieresis a
LCarets2: 3 160 160 160
EndChar

StartChar: ithk_aspect.CUL
Encoding: 65634 -1 182
Width: 320
Flags: HW
AnchorPoint: "Tertiary_mkmk" 180 140 mark 0
LayerCount: 2
Fore
SplineSet
150 200 m 0
 150 203 151 205 153 207 c 0
 157 211 163 211 167 207 c 0
 169 205 170 203 170 200 c 0
 170 178 159 161 149 150 c 1
 240 150 l 2
 243 150 245 149 247 147 c 0
 251 143 251 137 247 133 c 0
 245 131 243 130 240 130 c 2
 120 130 l 2
 118 130 117 131 115 132 c 0
 110 135 109 140 112 145 c 0
 113 147 114 148 116 149 c 2
 116 149 124 153 133 162 c 0
 142 171 150 184 150 200 c 0
EndSplineSet
Ligature2: "TertiaryLigature subtable" ellipses.vert approxequal adieresis a
LCarets2: 3 160 160 160
EndChar

StartChar: ithk_aspect.DCL
Encoding: 65635 -1 183
Width: 320
Flags: HW
AnchorPoint: "Tertiary_mkmk" 220 140 mark 0
LayerCount: 2
Fore
SplineSet
200 190 m 2
 206 190 210 186 210 180 c 0
 210 174 206 170 200 170 c 0
 197 170 195 169 193 167 c 0
 191 165 190 163 190 160 c 0
 190 157 191 155 193 153 c 0
 195 151 197 150 200 150 c 2
 280 150 l 2
 283 150 285 149 287 147 c 0
 291 143 291 137 287 133 c 0
 285 131 283 130 280 130 c 2
 200 130 l 2
 192 130 184 134 179 139 c 0
 174 144 170 152 170 160 c 0
 170 164 171 167 172 170 c 1
 160 170 l 2
 157 170 155 171 153 173 c 0
 149 177 149 183 153 187 c 0
 155 189 157 190 160 190 c 2
 200 190 l 2
EndSplineSet
Ligature2: "TertiaryLigature subtable" ellipses.vert k adieresis a
LCarets2: 3 160 160 160
EndChar

StartChar: ithk_aspect.DLT
Encoding: 65636 -1 184
Width: 320
Flags: HW
AnchorPoint: "Tertiary_mkmk" 140 180 mark 0
LayerCount: 2
Fore
SplineSet
170 120 m 0
 170 117 169 115 167 113 c 0
 163 109 157 109 153 113 c 0
 151 115 150 117 150 120 c 0
 150 142 161 159 171 170 c 1
 80 170 l 2
 77 170 75 171 73 173 c 0
 69 177 69 183 73 187 c 0
 75 189 77 190 80 190 c 2
 200 190 l 2
 202 190 203 189 205 188 c 0
 210 185 211 180 208 175 c 0
 207 173 206 172 204 171 c 2
 204 171 196 167 187 158 c 0
 178 149 170 136 170 120 c 0
EndSplineSet
Ligature2: "TertiaryLigature subtable" ellipses.vert a adieresis approxequal
LCarets2: 3 160 160 160
EndChar

StartChar: ithk_aspect.EPD
Encoding: 65637 -1 185
Width: 320
Flags: HW
AnchorPoint: "Tertiary_mkmk" 220 170 mark 0
LayerCount: 2
Fore
SplineSet
272 158 m 1
 273 158 276 158 277 158 c 0
 283 157 288 154 292 150 c 0
 299 143 300 134 296 125 c 0
 294 121 291 117 287 113 c 0
 283 109 277 109 273 113 c 0
 269 117 269 123 273 127 c 0
 276 130 278 133 278 134 c 0
 278 136 277 136 277 136 c 0
 277 136 276 138 273 138 c 0
 268 139 257 138 244 131 c 0
 242 130 240 130 238 130 c 0
 233 131 229 137 230 142 c 0
 230 144 232 146 233 147 c 2
 246 160 l 1
 160 160 l 2
 157 160 155 161 153 163 c 0
 149 167 149 173 153 177 c 0
 155 179 157 180 160 180 c 2
 270 180 l 2
 271 180 273 180 274 179 c 0
 279 177 281 171 279 166 c 0
 278 165 278 164 277 163 c 2
 272 158 l 1
EndSplineSet
Ligature2: "TertiaryLigature subtable" ellipses.vert a adieresis rcaron
LCarets2: 3 160 160 160
EndChar

StartChar: ithk_aspect.EXP
Encoding: 65638 -1 186
Width: 320
Flags: HW
AnchorPoint: "Tertiary_mkmk" 200 220 mark 0
LayerCount: 2
Fore
SplineSet
250 210 m 1
 159 210 l 1
 168 196 l 2
 171 192 170 186 167 183 c 0
 163 179 157 179 153 183 c 0
 153 183 152 183 152 184 c 2
 132 214 l 2
 131 215 130 216 130 217 c 0
 128 222 132 228 137 230 c 0
 138 230 139 230 140 230 c 2
 260 230 l 2
 261 230 263 230 264 229 c 0
 268 227 270 224 270 220 c 0
 270 191 260 171 246 157 c 0
 234 145 220 138 208 134 c 0
 193 130 181 130 180 130 c 0
 177 130 175 131 173 133 c 0
 169 137 169 143 173 147 c 0
 175 149 177 150 180 150 c 2
 180 150 211 150 232 171 c 0
 241 180 248 191 250 210 c 1
EndSplineSet
Ligature2: "TertiaryLigature subtable" ellipses.vert i adieresis f
LCarets2: 3 160 160 160
EndChar

StartChar: ithk_aspect.HAB
Encoding: 65639 -1 187
Width: 320
Flags: HW
AnchorPoint: "Tertiary_mkmk" 220 140 mark 0
LayerCount: 2
Fore
SplineSet
160 130 m 2
 157 130 155 131 153 133 c 0
 149 137 149 143 153 147 c 0
 155 149 157 150 160 150 c 2
 231 150 l 1
 223 155 216 159 210 165 c 0
 195 180 190 198 190 220 c 0
 190 223 191 225 193 227 c 0
 197 231 203 231 207 227 c 0
 209 225 210 223 210 220 c 0
 210 202 215 190 225 180 c 0
 236 169 254 159 283 149 c 0
 285 148 287 148 288 146 c 0
 291 142 290 135 286 132 c 0
 284 131 282 130 280 130 c 2
 160 130 l 2
EndSplineSet
Ligature2: "TertiaryLigature subtable" ellipses.vert a adieresis ddotbelow
LCarets2: 3 160 160 160
EndChar

StartChar: ithk_aspect.ICS
Encoding: 65640 -1 188
Width: 320
Flags: HW
AnchorPoint: "Tertiary_mkmk" 220 220 mark 0
LayerCount: 2
Fore
SplineSet
270 210 m 1
 160 210 l 2
 157 210 155 211 153 213 c 0
 149 217 149 223 153 227 c 0
 155 229 157 230 160 230 c 2
 280 230 l 2
 281 230 283 230 284 229 c 0
 288 227 290 224 290 220 c 0
 290 191 280 171 266 157 c 0
 254 145 240 138 228 134 c 0
 213 130 201 130 200 130 c 0
 197 130 195 131 193 133 c 0
 189 137 189 143 193 147 c 0
 195 149 197 150 200 150 c 2
 200 150 231 150 252 171 c 0
 261 180 268 191 270 210 c 1
EndSplineSet
Ligature2: "TertiaryLigature subtable" ellipses.vert a adieresis f
LCarets2: 3 160 160 160
EndChar

StartChar: ithk_aspect.IMD
Encoding: 65641 -1 189
Width: 320
Flags: HW
AnchorPoint: "Tertiary_mkmk" 220 150 mark 0
LayerCount: 2
Fore
SplineSet
170 155 m 1
 176 158 183 160 190 160 c 2
 280 160 l 2
 283 160 285 159 287 157 c 0
 291 153 291 147 287 143 c 0
 285 141 283 140 280 140 c 2
 190 140 l 2
 184 140 179 137 176 134 c 0
 173 131 170 126 170 120 c 0
 170 114 166 110 160 110 c 0
 154 110 150 114 150 120 c 2
 150 180 l 2
 150 183 151 185 153 187 c 0
 157 191 163 191 167 187 c 0
 169 185 170 183 170 180 c 2
 170 155 l 1
EndSplineSet
Ligature2: "TertiaryLigature subtable" ellipses.vert scaron adieresis a
LCarets2: 3 160 160 160
EndChar

StartChar: ithk_aspect.IMM
Encoding: 65642 -1 190
Width: 320
Flags: HW
AnchorPoint: "Tertiary_mkmk" 230 140 mark 0
LayerCount: 2
Fore
SplineSet
280 150 m 1
 278 169 271 180 262 189 c 0
 241 210 210 210 210 210 c 2
 207 210 205 211 203 213 c 0
 199 217 199 223 203 227 c 0
 205 229 207 230 210 230 c 0
 211 230 223 230 238 226 c 0
 250 222 264 215 276 203 c 0
 290 189 300 169 300 140 c 0
 300 138 299 137 298 135 c 0
 296 132 293 130 290 130 c 2
 194 130 l 1
 167 103 l 2
 163 99 157 99 153 103 c 0
 149 107 149 113 153 117 c 2
 183 147 l 2
 185 149 187 150 190 150 c 0
 220 150 250 150 280 150 c 1
EndSplineSet
Ligature2: "TertiaryLigature subtable" ellipses.vert s adieresis tcedilla
LCarets2: 3 160 160 160
EndChar

StartChar: ithk_aspect.IRP
Encoding: 65643 -1 191
Width: 320
Flags: HW
AnchorPoint: "Tertiary_mkmk" 200 220 mark 0
LayerCount: 2
Fore
SplineSet
152 256 m 2
 152 257 153 257 153 257 c 0
 157 261 163 261 167 257 c 0
 170 254 171 248 168 244 c 2
 159 230 l 1
 260 230 l 2
 261 230 263 230 264 229 c 0
 268 227 270 224 270 220 c 0
 270 191 260 171 246 157 c 0
 234 145 220 138 208 134 c 0
 193 130 181 130 180 130 c 0
 177 130 175 131 173 133 c 0
 169 137 169 143 173 147 c 0
 175 149 177 150 180 150 c 2
 180 150 211 150 232 171 c 0
 241 180 248 191 250 210 c 1
 213 210 177 210 140 210 c 0
 139 210 138 210 137 210 c 0
 132 212 128 218 130 223 c 0
 130 224 131 225 132 226 c 2
 152 256 l 2
EndSplineSet
Ligature2: "TertiaryLigature subtable" ellipses.vert z adieresis f
LCarets2: 3 160 160 160
EndChar

StartChar: ithk_aspect.ITC
Encoding: 65644 -1 192
Width: 320
Flags: HW
AnchorPoint: "Tertiary_mkmk" 100 140 mark 0
LayerCount: 2
Fore
SplineSet
48 152 m 1
 47 152 44 152 43 152 c 0
 37 153 32 156 28 160 c 0
 21 167 20 176 24 185 c 0
 26 189 29 193 33 197 c 0
 37 201 43 201 47 197 c 0
 51 193 51 187 47 183 c 0
 44 180 42 177 42 176 c 0
 42 174 43 174 43 174 c 0
 43 174 44 172 47 172 c 0
 52 171 63 172 76 179 c 0
 78 180 80 180 82 180 c 0
 87 179 91 173 90 168 c 0
 90 166 88 164 87 163 c 2
 74 150 l 1
 160 150 l 2
 163 150 165 149 167 147 c 0
 171 143 171 137 167 133 c 0
 165 131 163 130 160 130 c 2
 50 130 l 2
 49 130 47 130 46 131 c 0
 41 133 39 139 41 144 c 0
 42 145 42 146 43 147 c 2
 48 152 l 1
EndSplineSet
Ligature2: "TertiaryLigature subtable" ellipses.vert rcaron adieresis a
LCarets2: 3 160 160 160
EndChar

StartChar: ithk_aspect.LIM
Encoding: 65645 -1 193
Width: 320
Flags: HW
AnchorPoint: "Tertiary_mkmk" 220 140 mark 0
LayerCount: 2
Fore
SplineSet
248 150 m 1
 243 159 240 169 240 180 c 0
 240 183 241 185 243 187 c 0
 247 191 253 191 257 187 c 0
 259 185 260 183 260 180 c 0
 260 169 264 160 269 155 c 0
 272 152 276 150 280 150 c 0
 286 150 290 146 290 140 c 0
 290 134 286 130 280 130 c 2
 160 130 l 2
 157 130 155 131 153 133 c 0
 149 137 149 143 153 147 c 0
 155 149 157 150 160 150 c 2
 248 150 l 1
EndSplineSet
Ligature2: "TertiaryLigature subtable" ellipses.vert a adieresis t
LCarets2: 3 160 160 160
EndChar

StartChar: ithk_aspect.MTV
Encoding: 65646 -1 194
Width: 320
Flags: HW
AnchorPoint: "Tertiary_mkmk" 220 140 mark 0
LayerCount: 2
Fore
SplineSet
169 136 m 0
 169 135 168 134 167 133 c 0
 163 129 157 129 153 133 c 0
 150 136 149 140 151 144 c 0
 155 153 160 160 166 166 c 0
 176 176 190 183 202 179 c 0
 205 178 208 176 211 173 c 0
 217 167 219 159 219 150 c 1
 280 150 l 2
 283 150 285 149 287 147 c 0
 291 143 291 137 287 133 c 0
 285 131 283 130 280 130 c 2
 208 130 l 2
 207 130 l 0
 202 131 197 136 198 141 c 0
 198 142 l 0
 200 153 198 158 197 159 c 0
 196 160 l 0
 194 160 189 160 181 152 c 0
 177 148 173 143 169 136 c 0
EndSplineSet
Ligature2: "TertiaryLigature subtable" ellipses.vert x adieresis a
LCarets2: 3 160 160 160
EndChar

StartChar: ithk_aspect.PAU
Encoding: 65647 -1 195
Width: 320
Flags: HW
AnchorPoint: "Tertiary_mkmk" 100 220 mark 0
LayerCount: 2
Fore
SplineSet
160 230 m 2
 163 230 165 229 167 227 c 0
 171 223 171 217 167 213 c 0
 165 211 163 210 160 210 c 2
 89 210 l 1
 97 205 104 201 110 195 c 0
 125 180 130 162 130 140 c 0
 130 137 129 135 127 133 c 0
 123 129 117 129 113 133 c 0
 111 135 110 137 110 140 c 0
 110 158 105 170 95 180 c 0
 84 191 66 201 37 211 c 0
 35 212 33 212 32 214 c 0
 29 218 30 225 34 228 c 0
 36 229 38 230 40 230 c 2
 160 230 l 2
EndSplineSet
Ligature2: "TertiaryLigature subtable" ellipses.vert ddotbelow adieresis a
LCarets2: 3 160 160 160
EndChar

StartChar: ithk_aspect.PCL
Encoding: 65648 -1 196
Width: 320
Flags: HW
AnchorPoint: "Tertiary_mkmk" 90 220 mark 0
LayerCount: 2
Fore
SplineSet
40 210 m 1
 42 191 49 180 58 171 c 0
 79 150 110 150 110 150 c 2
 113 150 115 149 117 147 c 0
 121 143 121 137 117 133 c 0
 115 131 113 130 110 130 c 0
 109 130 97 130 82 134 c 0
 70 138 56 145 44 157 c 0
 30 171 20 191 20 220 c 0
 20 221 l 0
 20 226 25 230 30 230 c 2
 126 230 l 1
 153 257 l 2
 157 261 163 261 167 257 c 0
 171 253 171 247 167 243 c 2
 137 213 l 2
 135 211 133 210 130 210 c 0
 100 210 70 210 40 210 c 1
EndSplineSet
Ligature2: "TertiaryLigature subtable" ellipses.vert tcedilla adieresis s
LCarets2: 3 160 160 160
EndChar

StartChar: ithk_aspect.PCS
Encoding: 65649 -1 197
Width: 320
Flags: HW
AnchorPoint: "Tertiary_mkmk" 230 140 mark 0
LayerCount: 2
Fore
SplineSet
241 150 m 1
 233 155 226 159 220 165 c 0
 205 180 200 198 200 220 c 0
 200 223 201 225 203 227 c 0
 207 231 213 231 217 227 c 0
 219 225 220 223 220 220 c 0
 220 202 225 190 235 180 c 0
 246 169 264 159 293 149 c 0
 295 148 297 148 298 146 c 0
 301 142 300 135 296 132 c 0
 294 131 292 130 290 130 c 2
 194 130 l 1
 167 103 l 2
 163 99 157 99 153 103 c 0
 149 107 149 113 153 117 c 2
 183 147 l 2
 185 149 187 150 190 150 c 0
 207 150 224 150 241 150 c 1
EndSplineSet
Ligature2: "TertiaryLigature subtable" ellipses.vert s adieresis ddotbelow
LCarets2: 3 160 160 160
EndChar

StartChar: ithk_aspect.PMP
Encoding: 65650 -1 198
Width: 320
Flags: HW
AnchorPoint: "Tertiary_mkmk" 100 180 mark 0
LayerCount: 2
Fore
SplineSet
120 130 m 2
 114 130 110 134 110 140 c 0
 110 146 114 150 120 150 c 0
 123 150 125 151 127 153 c 0
 129 155 130 157 130 160 c 0
 130 163 129 165 127 167 c 0
 125 169 123 170 120 170 c 2
 40 170 l 2
 37 170 35 171 33 173 c 0
 29 177 29 183 33 187 c 0
 35 189 37 190 40 190 c 2
 120 190 l 2
 128 190 136 186 141 181 c 0
 146 176 150 168 150 160 c 0
 150 156 149 153 148 150 c 1
 160 150 l 2
 163 150 165 149 167 147 c 0
 171 143 171 137 167 133 c 0
 165 131 163 130 160 130 c 2
 120 130 l 2
EndSplineSet
Ligature2: "TertiaryLigature subtable" ellipses.vert a adieresis k
LCarets2: 3 160 160 160
EndChar

StartChar: ithk_aspect.PPR
Encoding: 65651 -1 199
Width: 320
Flags: HW
AnchorPoint: "Tertiary_mkmk" 100 160 mark 0
LayerCount: 2
Fore
SplineSet
170 120 m 2
 170 117 169 115 167 113 c 0
 163 109 157 109 153 113 c 0
 151 115 150 117 150 120 c 2
 150 150 l 1
 40 150 l 2
 37 150 35 151 33 153 c 0
 29 157 29 163 33 167 c 0
 35 169 37 170 40 170 c 2
 160 170 l 2
 160 170 l 0
 165 170 170 165 170 160 c 2
 170 120 l 2
EndSplineSet
Ligature2: "TertiaryLigature subtable" ellipses.vert a adieresis equal
LCarets2: 3 160 160 160
EndChar

StartChar: ithk_aspect.PRG
Encoding: 65652 -1 200
Width: 320
Flags: HW
AnchorPoint: "Tertiary_mkmk" 230 140 mark 0
LayerCount: 2
Fore
SplineSet
266 150 m 1
 203 213 l 2
 199 217 199 223 203 227 c 0
 207 231 213 231 217 227 c 2
 297 147 l 2
 298 146 298 145 299 144 c 0
 301 139 299 133 294 131 c 0
 293 130 291 130 290 130 c 2
 194 130 l 1
 167 103 l 2
 163 99 157 99 153 103 c 0
 149 107 149 113 153 117 c 2
 183 147 l 2
 185 149 187 150 190 150 c 0
 215 150 241 150 266 150 c 1
EndSplineSet
Ligature2: "TertiaryLigature subtable" ellipses.vert s adieresis i
LCarets2: 3 160 160 160
EndChar

StartChar: ithk_aspect.PRS
Encoding: 65653 -1 201
Width: 320
Flags: HW
AnchorPoint: "Tertiary_mkmk" 220 140 mark 0
LayerCount: 2
Fore
SplineSet
160 130 m 2
 157 130 155 131 153 133 c 0
 149 137 149 143 153 147 c 0
 155 149 157 150 160 150 c 2
 270 150 l 1
 268 169 261 180 252 189 c 0
 231 210 200 210 200 210 c 2
 197 210 195 211 193 213 c 0
 189 217 189 223 193 227 c 0
 195 229 197 230 200 230 c 0
 201 230 213 230 228 226 c 0
 240 222 254 215 266 203 c 0
 280 189 290 169 290 140 c 0
 290 138 290 137 289 135 c 0
 287 132 283 130 280 130 c 2
 160 130 l 2
EndSplineSet
Ligature2: "TertiaryLigature subtable" ellipses.vert a adieresis tcedilla
LCarets2: 3 160 160 160
EndChar

StartChar: ithk_aspect.PTC
Encoding: 65654 -1 202
Width: 320
Flags: HW
AnchorPoint: "Tertiary_mkmk" 100 140 mark 0
LayerCount: 2
Fore
SplineSet
151 144 m 0
 151 145 152 146 153 147 c 0
 157 151 163 151 167 147 c 0
 170 144 171 140 169 136 c 0
 165 127 160 120 154 114 c 0
 144 104 130 97 118 101 c 0
 115 102 112 104 109 107 c 0
 103 113 101 121 101 130 c 1
 40 130 l 2
 37 130 35 131 33 133 c 0
 29 137 29 143 33 147 c 0
 35 149 37 150 40 150 c 2
 112 150 l 2
 113 150 l 0
 118 149 123 144 122 139 c 0
 122 138 l 0
 120 127 122 122 123 121 c 0
 124 120 l 0
 126 120 131 120 139 128 c 0
 143 132 147 137 151 144 c 0
EndSplineSet
Ligature2: "TertiaryLigature subtable" ellipses.vert a adieresis x
LCarets2: 3 160 160 160
EndChar

StartChar: ithk_aspect.REG
Encoding: 65655 -1 203
Width: 320
Flags: HW
AnchorPoint: "Tertiary_mkmk" 100 140 mark 0
LayerCount: 2
Fore
SplineSet
50 150 m 1
 160 150 l 2
 163 150 165 149 167 147 c 0
 171 143 171 137 167 133 c 0
 165 131 163 130 160 130 c 2
 40 130 l 2
 39 130 39 130 38 130 c 0
 33 131 30 135 30 140 c 0
 30 169 40 189 54 203 c 0
 66 215 80 222 92 226 c 0
 107 230 119 230 120 230 c 0
 123 230 125 229 127 227 c 0
 131 223 131 217 127 213 c 0
 125 211 123 210 120 210 c 2
 120 210 89 210 68 189 c 0
 59 180 52 169 50 150 c 1
EndSplineSet
Ligature2: "TertiaryLigature subtable" ellipses.vert f adieresis a
LCarets2: 3 160 160 160
EndChar

StartChar: ithk_aspect.RGR
Encoding: 65656 -1 204
Width: 320
Flags: HW
AnchorPoint: "Tertiary_mkmk" 90 220 mark 0
LayerCount: 2
Fore
SplineSet
54 210 m 1
 117 147 l 2
 121 143 121 137 117 133 c 0
 113 129 107 129 103 133 c 2
 23 213 l 2
 22 214 22 215 21 216 c 0
 19 221 21 227 26 229 c 0
 27 230 29 230 30 230 c 2
 126 230 l 1
 153 257 l 2
 157 261 163 261 167 257 c 0
 171 253 171 247 167 243 c 2
 137 213 l 2
 135 211 133 210 130 210 c 0
 105 210 79 210 54 210 c 1
EndSplineSet
Ligature2: "TertiaryLigature subtable" ellipses.vert i adieresis s
LCarets2: 3 160 160 160
EndChar

StartChar: ithk_aspect.RSM
Encoding: 65657 -1 205
Width: 320
Flags: HW
AnchorPoint: "Tertiary_mkmk" 100 220 mark 0
LayerCount: 2
Fore
SplineSet
160 230 m 2
 163 230 165 229 167 227 c 0
 171 223 171 217 167 213 c 0
 165 211 163 210 160 210 c 2
 64 210 l 1
 127 147 l 2
 131 143 131 137 127 133 c 0
 123 129 117 129 113 133 c 2
 33 213 l 2
 32 214 32 215 31 216 c 0
 29 221 31 227 36 229 c 0
 37 230 39 230 40 230 c 2
 160 230 l 2
EndSplineSet
Ligature2: "TertiaryLigature subtable" ellipses.vert i adieresis a
LCarets2: 3 160 160 160
EndChar

StartChar: ithk_aspect.RTR
Encoding: 65658 -1 206
Width: 320
Flags: HW
AnchorPoint: "Tertiary_mkmk" 220 140 mark 0
LayerCount: 2
Fore
SplineSet
160 130 m 2
 157 130 155 131 153 133 c 0
 149 137 149 143 153 147 c 0
 155 149 157 150 160 150 c 2
 256 150 l 1
 193 213 l 2
 189 217 189 223 193 227 c 0
 197 231 203 231 207 227 c 2
 287 147 l 2
 288 146 288 145 289 144 c 0
 291 139 289 133 284 131 c 0
 283 130 281 130 280 130 c 2
 160 130 l 2
EndSplineSet
Ligature2: "TertiaryLigature subtable" ellipses.vert a adieresis i
LCarets2: 3 160 160 160
EndChar

StartChar: ithk_aspect.SMM
Encoding: 65659 -1 207
Width: 320
Flags: HW
AnchorPoint: "Tertiary_mkmk" 120 140 mark 0
LayerCount: 2
Fore
SplineSet
70 150 m 1
 161 150 l 1
 152 164 l 2
 149 168 150 174 153 177 c 0
 157 181 163 181 167 177 c 0
 167 177 168 177 168 176 c 2
 188 146 l 2
 189 145 190 144 190 143 c 0
 192 138 188 132 183 130 c 0
 182 130 181 130 180 130 c 2
 60 130 l 2
 59 130 59 130 58 130 c 0
 53 131 50 135 50 140 c 0
 50 169 60 189 74 203 c 0
 86 215 100 222 112 226 c 0
 127 230 139 230 140 230 c 0
 143 230 145 229 147 227 c 0
 151 223 151 217 147 213 c 0
 145 211 143 210 140 210 c 2
 140 210 109 210 88 189 c 0
 79 180 72 169 70 150 c 1
EndSplineSet
Ligature2: "TertiaryLigature subtable" ellipses.vert f adieresis i
LCarets2: 3 160 160 160
EndChar

StartChar: ithk_aspect.SQN
Encoding: 65660 -1 208
Width: 320
Flags: HW
AnchorPoint: "Tertiary_mkmk" 220 140 mark 0
LayerCount: 2
Fore
SplineSet
150 180 m 2
 150 183 151 185 153 187 c 0
 157 191 163 191 167 187 c 0
 169 185 170 183 170 180 c 2
 170 150 l 1
 280 150 l 2
 283 150 285 149 287 147 c 0
 291 143 291 137 287 133 c 0
 285 131 283 130 280 130 c 2
 160 130 l 2
 159 130 l 0
 154 130 150 135 150 140 c 2
 150 180 l 2
EndSplineSet
Ligature2: "TertiaryLigature subtable" ellipses.vert equal adieresis a
LCarets2: 3 160 160 160
EndChar

StartChar: ithk_aspect.TMP
Encoding: 65661 -1 209
Width: 320
Flags: HW
AnchorPoint: "Tertiary_mkmk" 100 170 mark 0
LayerCount: 2
Fore
SplineSet
150 165 m 1
 144 162 137 160 130 160 c 2
 40 160 l 2
 37 160 35 161 33 163 c 0
 29 167 29 173 33 177 c 0
 35 179 37 180 40 180 c 2
 130 180 l 2
 136 180 141 183 144 186 c 0
 147 189 150 194 150 200 c 0
 150 206 154 210 160 210 c 0
 166 210 170 206 170 200 c 2
 170 140 l 2
 170 137 169 135 167 133 c 0
 163 129 157 129 153 133 c 0
 151 135 150 137 150 140 c 2
 150 165 l 1
EndSplineSet
Ligature2: "TertiaryLigature subtable" ellipses.vert a adieresis scaron
LCarets2: 3 160 160 160
EndChar

StartChar: ithk_aspect.TNS
Encoding: 65662 -1 210
Width: 320
Flags: HW
AnchorPoint: "Tertiary_mkmk" 100 160 mark 0
LayerCount: 2
Fore
SplineSet
72 150 m 1
 77 141 80 131 80 120 c 0
 80 117 79 115 77 113 c 0
 73 109 67 109 63 113 c 0
 61 115 60 117 60 120 c 0
 60 131 56 140 51 145 c 0
 48 148 44 150 40 150 c 0
 34 150 30 154 30 160 c 0
 30 166 34 170 40 170 c 2
 160 170 l 2
 163 170 165 169 167 167 c 0
 171 163 171 157 167 153 c 0
 165 151 163 150 160 150 c 2
 72 150 l 1
EndSplineSet
Ligature2: "TertiaryLigature subtable" ellipses.vert t adieresis a
LCarets2: 3 160 160 160
EndChar

StartChar: ithk_aspect.TRD
Encoding: 65663 -1 211
Width: 320
Flags: HW
AnchorPoint: "Tertiary_mkmk" 220 150 mark 0
LayerCount: 2
Fore
SplineSet
151 146 m 0
 149 150 150 154 153 157 c 0
 157 161 163 161 167 157 c 0
 168 156 169 155 169 154 c 0
 173 147 177 142 181 138 c 0
 189 130 194 130 196 130 c 0
 197 131 l 0
 198 132 200 137 198 148 c 0
 198 149 l 0
 197 154 202 159 207 160 c 0
 208 160 l 2
 280 160 l 2
 283 160 285 159 287 157 c 0
 291 153 291 147 287 143 c 0
 285 141 283 140 280 140 c 2
 219 140 l 1
 219 131 217 123 211 117 c 0
 208 114 205 112 202 111 c 0
 190 107 176 114 166 124 c 0
 160 130 155 137 151 146 c 0
EndSplineSet
Ligature2: "TertiaryLigature subtable" ellipses.vert p adieresis a
LCarets2: 3 160 160 160
EndChar

StartChar: ithk_aspect.XPD
Encoding: 65664 -1 212
Width: 320
Flags: HW
AnchorPoint: "Tertiary_mkmk" 100 140 mark 0
LayerCount: 2
Fore
SplineSet
169 144 m 0
 171 140 170 136 167 133 c 0
 163 129 157 129 153 133 c 0
 152 134 151 135 151 136 c 0
 147 143 143 148 139 152 c 0
 131 160 126 160 124 160 c 0
 123 159 l 0
 122 158 120 153 122 142 c 0
 122 141 l 0
 123 136 118 131 113 130 c 0
 112 130 l 2
 40 130 l 2
 37 130 35 131 33 133 c 0
 29 137 29 143 33 147 c 0
 35 149 37 150 40 150 c 2
 101 150 l 1
 101 159 103 167 109 173 c 0
 112 176 115 178 118 179 c 0
 130 183 144 176 154 166 c 0
 160 160 165 153 169 144 c 0
EndSplineSet
Ligature2: "TertiaryLigature subtable" ellipses.vert a adieresis p
LCarets2: 3 160 160 160
EndChar

StartChar: .notdef
Encoding: 65665 -1 213
Width: 320
Flags: HW
AnchorPoint: "Diacritic_right" 320 140 basechar 0
AnchorPoint: "Diacritic_left" 0 140 basechar 0
AnchorPoint: "Diacritic_down" 160 -60 basechar 0
AnchorPoint: "Diacritic_up" 160 360 basechar 0
AnchorPoint: "Extension_up" 60 280 basechar 0
AnchorPoint: "Extension_down" 260 0 basechar 0
LayerCount: 2
Fore
SplineSet
260 -10 m 2
 60 -10 l 2
 59 -10 l 0
 54 -10 50 -5 50 -0 c 2
 50 280 l 2
 50 283 51 285 53 287 c 0
 55 289 57 290 60 290 c 1
 260 290 l 2
 262 290 263 290 265 289 c 0
 268 287 270 283 270 280 c 2
 270 -0 l 0
 270 -3 269 -5 267 -7 c 0
 265 -9 263 -10 260 -10 c 2
250 10 m 1
 250 270 l 1
 70 270 l 1
 70 10 l 1
 250 10 l 1
EndSplineSet
EndChar

StartChar: glottal.ext.up
Encoding: 65667 -1 215
Width: 320
VWidth: 408
Flags: HW
AnchorPoint: "Extension_mkmk" 0 384 mark 0
LayerCount: 2
Fore
SplineSet
-44 370 m 1
 -44 371 -43 372 -43 373 c 0
 -42 377 -41 384 -40 391 c 0
 -40 395 -39 398 -39 402 c 1
 -41 401 -42 400 -44 398 c 0
 -47 395 -50 390 -50 384 c 0
 -50 379 -47 373 -44 370 c 1
10 384 m 0
 10 381 9 379 7 377 c 0
 3 373 -3 373 -7 377 c 0
 -9 379 -10 381 -10 384 c 0
 -10 390 -13 395 -16 398 c 0
 -17 399 -18 400 -19 401 c 1
 -19 397 -20 393 -20 389 c 0
 -21 381 -22 373 -24 367 c 0
 -26 362 -27 358 -31 354 c 0
 -35 350 -41 348 -47 349 c 0
 -51 350 -55 353 -58 356 c 0
 -65 363 -70 373 -70 384 c 0
 -70 395 -65 405 -58 412 c 0
 -53 417 -47 421 -39 423 c 1
 -39 430 -39 437 -40 443 c 0
 -40 446 -39 449 -37 451 c 0
 -33 455 -27 455 -23 451 c 0
 -21 449 -20 447 -20 445 c 0
 -19 438 -19 430 -19 422 c 1
 -12 420 -7 417 -2 412 c 0
 5 405 10 395 10 384 c 0
EndSplineSet
Substitution2: "Single Substitution lookup 26 subtable" glottal.ext.left
Substitution2: "Single Substitution lookup 25 subtable" glottal.ext.right
Substitution2: "Single Substitution lookup 22 subtable" glottal.ext.left
Substitution2: "Single Substitution lookup 21 subtable" glottal.ext.right
EndChar

StartChar: ncaron.ext.up
Encoding: 65668 -1 216
Width: 320
VWidth: 408
Flags: HW
AnchorPoint: "Extension_mkmk" 0 384 mark 0
LayerCount: 2
Fore
SplineSet
10 384 m 0
 10 381 9 379 7 377 c 0
 3 373 -3 373 -7 377 c 0
 -9 379 -10 381 -10 384 c 0
 -10 391 -13 397 -16 400 c 0
 -18 402 -19 402 -20 402 c 0
 -21 402 -22 402 -24 400 c 0
 -27 397 -30 391 -30 384 c 0
 -30 379 -34 374 -39 374 c 0
 -40 374 l 2
 -68 374 l 2
 -71 374 -73 375 -75 377 c 0
 -79 381 -79 387 -75 391 c 0
 -73 393 -71 394 -68 394 c 2
 -49 394 l 1
 -47 402 -44 409 -39 414 c 0
 -34 419 -27 422 -20 422 c 0
 -13 422 -6 419 -1 414 c 0
 6 407 10 396 10 384 c 0
EndSplineSet
Substitution2: "Single Substitution lookup 26 subtable" ncaron.ext.left
Substitution2: "Single Substitution lookup 25 subtable" ncaron.ext.right
Substitution2: "Single Substitution lookup 22 subtable" ncaron.ext.left
Substitution2: "Single Substitution lookup 21 subtable" ncaron.ext.right
EndChar

StartChar: scaron.ext.up
Encoding: 65669 -1 217
Width: 320
VWidth: 408
Flags: HW
AnchorPoint: "Extension_mkmk" 0 384 mark 0
LayerCount: 2
Fore
SplineSet
-9 380 m 1
 -21 369 l 2
 -22 368 -23 368 -24 367 c 0
 -29 365 -35 367 -37 372 c 0
 -38 373 -38 375 -38 376 c 2
 -38 444 l 2
 -38 447 -37 449 -35 451 c 0
 -31 455 -25 455 -21 451 c 0
 -19 449 -18 447 -18 444 c 2
 -18 400 l 1
 2 421 l 2
 4 423 5 424 7 426 c 0
 9 428 12 430 14 432 c 0
 16 433 18 434 21 434 c 0
 27 434 30 429 30 423 c 0
 30 420 29 419 27 417 c 2
 17 407 l 1
 13 401 10 394 10 384 c 0
 10 381 9 379 7 377 c 0
 3 373 -3 373 -7 377 c 0
 -8 378 -9 379 -9 380 c 1
EndSplineSet
Substitution2: "Single Substitution lookup 26 subtable" scaron.ext.left
Substitution2: "Single Substitution lookup 25 subtable" scaron.ext.right
Substitution2: "Single Substitution lookup 22 subtable" scaron.ext.left
Substitution2: "Single Substitution lookup 21 subtable" scaron.ext.right
EndChar

StartChar: ddotbelow.ext.up
Encoding: 65670 -1 218
Width: 320
VWidth: 408
Flags: HW
AnchorPoint: "Extension_mkmk" 0 384 mark 0
LayerCount: 2
Fore
SplineSet
-10 384 m 0
 -10 387 -9 389 -7 391 c 0
 -3 395 3 395 7 391 c 0
 9 389 10 387 10 384 c 0
 10 369 16 357 23 350 c 0
 28 345 34 342 40 342 c 0
 46 342 52 345 57 350 c 0
 64 357 70 369 70 384 c 0
 70 387 71 389 73 391 c 0
 77 395 83 395 87 391 c 0
 89 389 90 387 90 384 c 0
 90 365 83 348 71 336 c 0
 63 328 52 322 40 322 c 0
 28 322 17 328 9 336 c 0
 -3 348 -10 365 -10 384 c 0
EndSplineSet
Substitution2: "Single Substitution lookup 26 subtable" ddotbelow.ext.left
Substitution2: "Single Substitution lookup 25 subtable" ddotbelow.ext.right
Substitution2: "Single Substitution lookup 22 subtable" ddotbelow.ext.left
Substitution2: "Single Substitution lookup 21 subtable" ddotbelow.ext.right
EndChar

StartChar: tcedilla.ext.up
Encoding: 65671 -1 219
Width: 320
VWidth: 408
Flags: HW
AnchorPoint: "Extension_mkmk" 0 384 mark 0
LayerCount: 2
Fore
SplineSet
6 376 m 0
 2 373 -4 374 -7 377 c 0
 -11 381 -11 387 -7 391 c 0
 -7 391 -7 392 -6 392 c 0
 11 403 24 408 36 407 c 0
 42 406 48 405 52 401 c 0
 56 397 58 391 58 386 c 0
 59 375 54 364 46 356 c 0
 41 351 35 346 27 344 c 0
 24 343 20 344 17 347 c 0
 13 351 13 357 17 361 c 0
 18 362 19 364 21 364 c 0
 25 365 29 367 32 370 c 0
 37 375 39 381 39 384 c 0
 39 386 38 387 38 387 c 0
 38 387 37 388 35 388 c 0
 31 388 21 386 6 376 c 0
EndSplineSet
Substitution2: "Single Substitution lookup 26 subtable" tcedilla.ext.left
Substitution2: "Single Substitution lookup 25 subtable" tcedilla.ext.right
Substitution2: "Single Substitution lookup 22 subtable" tcedilla.ext.left
Substitution2: "Single Substitution lookup 21 subtable" tcedilla.ext.right
EndChar

StartChar: ccedilla.ext.up
Encoding: 65672 -1 220
Width: 320
VWidth: 408
Flags: HW
AnchorPoint: "Extension_mkmk" 0 384 mark 0
LayerCount: 2
Fore
SplineSet
-6 376 m 2
 -7 377 l 0
 -11 381 -11 387 -7 391 c 0
 -3 395 2 395 6 392 c 2
 48 358 l 1
 62 378 l 2
 63 379 l 0
 67 383 73 383 77 379 c 0
 81 375 81 370 78 366 c 2
 58 338 l 2
 58 338 l 0
 55 334 48 333 44 336 c 0
 44 336 l 2
 -6 376 l 2
EndSplineSet
Substitution2: "Single Substitution lookup 26 subtable" ccedilla.ext.left
Substitution2: "Single Substitution lookup 25 subtable" ccedilla.ext.right
Substitution2: "Single Substitution lookup 22 subtable" ccedilla.ext.left
Substitution2: "Single Substitution lookup 21 subtable" ccedilla.ext.right
EndChar

StartChar: ccaron.ext.up
Encoding: 65673 -1 221
Width: 320
VWidth: 408
Flags: HW
AnchorPoint: "Extension_mkmk" 0 384 mark 0
LayerCount: 2
Fore
SplineSet
10 384 m 0
 10 381 9 379 7 377 c 0
 3 373 -3 373 -7 377 c 0
 -9 379 -10 381 -10 384 c 0
 -10 391 -8 397 -5 403 c 1
 -6 403 -7 403 -8 403 c 0
 -12 403 -16 404 -19 405 c 0
 -22 406 -25 406 -28 409 c 0
 -30 411 -32 414 -32 417 c 0
 -32 419 -32 422 -31 424 c 0
 -30 427 -27 430 -25 432 c 0
 -22 435 -17 438 -11 442 c 0
 -7 444 -2 444 1 441 c 0
 5 437 5 431 1 427 c 0
 0 426 0 426 -1 426 c 0
 -2 425 -4 424 -5 423 c 1
 1 423 10 424 17 424 c 0
 22 424 26 424 30 424 c 0
 36 424 40 420 40 414 c 0
 40 408 36 404 30 404 c 0
 24 404 19 401 16 398 c 0
 13 395 10 390 10 384 c 0
EndSplineSet
Substitution2: "Single Substitution lookup 26 subtable" ccaron.ext.left
Substitution2: "Single Substitution lookup 25 subtable" ccaron.ext.right
Substitution2: "Single Substitution lookup 22 subtable" ccaron.ext.left
Substitution2: "Single Substitution lookup 21 subtable" ccaron.ext.right
EndChar

StartChar: lcedilla.ext.up
Encoding: 65674 -1 222
Width: 320
VWidth: 408
Flags: HW
AnchorPoint: "Extension_mkmk" 0 384 mark 0
LayerCount: 2
Fore
SplineSet
0 374 m 2
 -3 374 -5 375 -7 377 c 0
 -11 381 -11 387 -7 391 c 0
 -5 393 -3 394 -0 394 c 2
 40 394 l 2
 43 394 45 393 47 391 c 0
 51 387 51 381 47 377 c 0
 45 375 43 374 40 374 c 2
 0 374 l 2
EndSplineSet
Substitution2: "Single Substitution lookup 26 subtable" lcedilla.ext.left
Substitution2: "Single Substitution lookup 25 subtable" lcedilla.ext.right
Substitution2: "Single Substitution lookup 22 subtable" lcedilla.ext.left
Substitution2: "Single Substitution lookup 21 subtable" lcedilla.ext.right
EndChar

StartChar: zdotaccent.ext.up
Encoding: 65675 -1 223
Width: 320
VWidth: 408
Flags: HW
AnchorPoint: "Extension_mkmk" 0 384 mark 0
LayerCount: 2
Fore
SplineSet
-10 384 m 0
 -10 387 -9 389 -7 391 c 0
 -3 395 3 395 7 391 c 0
 9 389 10 387 10 384 c 0
 10 365 4 349 -5 340 c 0
 -9 336 -13 333 -19 332 c 0
 -26 331 -33 334 -38 339 c 0
 -43 344 -47 352 -50 361 c 0
 -52 368 -54 372 -56 374 c 0
 -58 376 -58 376 -58 376 c 0
 -58 376 -60 375 -61 374 c 0
 -65 370 -70 359 -70 344 c 0
 -70 341 -71 339 -73 337 c 0
 -77 333 -83 333 -87 337 c 0
 -89 339 -90 341 -90 344 c 0
 -90 363 -84 379 -75 388 c 0
 -71 392 -67 395 -61 396 c 0
 -54 397 -47 394 -42 389 c 0
 -37 384 -33 376 -30 367 c 0
 -28 360 -26 356 -24 354 c 0
 -22 352 -22 352 -22 352 c 0
 -22 352 -20 353 -19 354 c 0
 -15 358 -10 369 -10 384 c 0
EndSplineSet
Substitution2: "Single Substitution lookup 26 subtable" zdotaccent.ext.left
Substitution2: "Single Substitution lookup 25 subtable" zdotaccent.ext.right
Substitution2: "Single Substitution lookup 22 subtable" zdotaccent.ext.left
Substitution2: "Single Substitution lookup 21 subtable" zdotaccent.ext.right
EndChar

StartChar: zcaron.ext.up
Encoding: 65676 -1 224
Width: 320
VWidth: 408
Flags: HW
AnchorPoint: "Extension_mkmk" 0 384 mark 0
LayerCount: 2
Fore
SplineSet
10 384 m 0
 10 381 9 379 7 377 c 0
 3 373 -3 373 -7 377 c 0
 -9 379 -10 381 -10 384 c 0
 -10 396 -13 402 -15 404 c 2
 -15 404 l 2
 -15 404 l 0
 -17 402 -20 396 -20 384 c 0
 -20 378 -24 374 -30 374 c 0
 -36 374 -40 378 -40 384 c 0
 -40 396 -43 402 -45 404 c 2
 -45 404 l 2
 -45 404 l 0
 -47 402 -50 396 -50 384 c 0
 -50 381 -51 379 -53 377 c 0
 -57 373 -63 373 -67 377 c 0
 -69 379 -70 381 -70 384 c 0
 -70 399 -66 411 -59 418 c 0
 -55 422 -49 425 -43 424 c 0
 -38 424 -34 421 -31 418 c 0
 -30 417 l 1
 -29 418 l 0
 -25 422 -19 425 -13 424 c 0
 -8 424 -4 421 -1 418 c 0
 6 411 10 399 10 384 c 0
EndSplineSet
Substitution2: "Single Substitution lookup 26 subtable" zcaron.ext.left
Substitution2: "Single Substitution lookup 25 subtable" zcaron.ext.right
Substitution2: "Single Substitution lookup 22 subtable" zcaron.ext.left
Substitution2: "Single Substitution lookup 21 subtable" zcaron.ext.right
EndChar

StartChar: rcaron.ext.up
Encoding: 65677 -1 225
Width: 320
VWidth: 408
Flags: HW
AnchorPoint: "Extension_mkmk" 0 384 mark 0
LayerCount: 2
Fore
SplineSet
0 374 m 0
 -3 374 -5 375 -7 377 c 0
 -11 381 -11 387 -7 391 c 0
 -5 393 -3 394 -0 394 c 0
 6 394 11 396 14 399 c 1
 7 398 1 398 -5 399 c 0
 -14 401 -22 406 -30 414 c 0
 -32 416 -35 419 -38 422 c 0
 -41 426 -41 432 -37 436 c 0
 -33 440 -27 440 -23 436 c 0
 -22 436 l 0
 -20 433 -18 431 -16 429 c 0
 -10 423 -5 420 -1 419 c 0
 4 418 13 418 27 423 c 0
 28 423 27 424 28 424 c 0
 33 425 39 421 40 416 c 0
 40 415 40 415 40 414 c 0
 40 403 35 393 28 386 c 0
 21 379 11 374 0 374 c 0
EndSplineSet
Substitution2: "Single Substitution lookup 26 subtable" rcaron.ext.left
Substitution2: "Single Substitution lookup 25 subtable" rcaron.ext.right
Substitution2: "Single Substitution lookup 22 subtable" rcaron.ext.left
Substitution2: "Single Substitution lookup 21 subtable" rcaron.ext.right
EndChar

StartChar: b.ext.up
Encoding: 65678 -1 226
Width: 320
VWidth: 408
Flags: HW
AnchorPoint: "Extension_mkmk" 0 384 mark 0
LayerCount: 2
Fore
SplineSet
10 384 m 0
 10 381 9 379 7 377 c 0
 3 373 -3 373 -7 377 c 0
 -9 379 -10 381 -10 384 c 0
 -10 390 -13 395 -16 398 c 0
 -19 401 -24 404 -30 404 c 0
 -36 404 -41 401 -44 398 c 0
 -47 395 -50 390 -50 384 c 0
 -50 378 -54 374 -60 374 c 0
 -66 374 -70 378 -70 384 c 2
 -70 444 l 2
 -70 447 -69 449 -67 451 c 0
 -63 455 -57 455 -53 451 c 0
 -51 449 -50 447 -50 444 c 2
 -50 419 l 1
 -44 422 -37 424 -30 424 c 0
 -19 424 -9 419 -2 412 c 0
 5 405 10 395 10 384 c 0
EndSplineSet
Substitution2: "Single Substitution lookup 26 subtable" b.ext.left
Substitution2: "Single Substitution lookup 25 subtable" b.ext.right
Substitution2: "Single Substitution lookup 22 subtable" b.ext.left
Substitution2: "Single Substitution lookup 21 subtable" b.ext.right
EndChar

StartChar: c.ext.up
Encoding: 65679 -1 227
Width: 320
VWidth: 408
Flags: HW
AnchorPoint: "Extension_mkmk" 0 384 mark 0
LayerCount: 2
Fore
SplineSet
-10 384 m 0
 -10 387 -9 389 -7 391 c 0
 -3 395 3 395 7 391 c 0
 9 389 10 387 10 384 c 0
 10 369 6 357 -1 350 c 0
 -5 346 -11 343 -17 344 c 0
 -22 344 -26 347 -29 350 c 0
 -30 351 l 1
 -31 349 l 0
 -35 345 -39 344 -44 343 c 0
 -50 342 -57 345 -61 349 c 0
 -67 355 -70 364 -70 374 c 2
 -70 375 l 2
 -70 380 -68 385 -64 389 c 0
 -62 391 -60 392 -58 393 c 0
 -54 395 -50 394 -47 391 c 0
 -43 387 -43 381 -47 377 c 0
 -48 376 -49 375 -50 375 c 0
 -50 375 l 2
 -50 374 l 2
 -50 367 -48 364 -47 363 c 0
 -47 363 l 0
 -47 363 -46 363 -45 364 c 0
 -43 366 -40 372 -40 384 c 0
 -40 390 -36 394 -30 394 c 0
 -24 394 -20 390 -20 384 c 0
 -20 372 -17 366 -15 364 c 0
 -15 364 l 2
 -15 364 l 2
 -13 366 -10 372 -10 384 c 0
EndSplineSet
Substitution2: "Single Substitution lookup 26 subtable" c.ext.left
Substitution2: "Single Substitution lookup 25 subtable" c.ext.right
Substitution2: "Single Substitution lookup 22 subtable" c.ext.left
Substitution2: "Single Substitution lookup 21 subtable" c.ext.right
EndChar

StartChar: equal.ext.up
Encoding: 65680 -1 228
Width: 320
VWidth: 408
Flags: HW
AnchorPoint: "Extension_mkmk" 0 384 mark 0
LayerCount: 2
Fore
SplineSet
-30 394 m 1
 -0 394 l 2
 3 394 5 393 7 391 c 0
 11 387 11 381 7 377 c 0
 5 375 3 374 0 374 c 2
 -40 374 l 2
 -45 374 -50 379 -50 384 c 0
 -50 384 l 2
 -50 414 l 2
 -50 417 -49 419 -47 421 c 0
 -43 425 -37 425 -33 421 c 0
 -31 419 -30 417 -30 414 c 2
 -30 394 l 1
EndSplineSet
Substitution2: "Single Substitution lookup 26 subtable" equal.ext.left
Substitution2: "Single Substitution lookup 25 subtable" equal.ext.right
Substitution2: "Single Substitution lookup 22 subtable" equal.ext.left
Substitution2: "Single Substitution lookup 21 subtable" equal.ext.right
EndChar

StartChar: d.ext.up
Encoding: 65681 -1 229
Width: 320
VWidth: 408
Flags: HW
AnchorPoint: "Extension_mkmk" 0 384 mark 0
LayerCount: 2
Fore
SplineSet
-40 414 m 0
 -46 414 -50 418 -50 424 c 0
 -50 430 -46 434 -40 434 c 2
 20 434 l 2
 23 434 25 433 27 431 c 0
 31 427 31 421 27 417 c 0
 25 415 23 414 20 414 c 2
 -0 414 l 1
 6 406 10 395 10 384 c 0
 10 381 9 379 7 377 c 0
 3 373 -3 373 -7 377 c 0
 -9 379 -10 381 -10 384 c 0
 -10 392 -14 400 -19 405 c 0
 -24 410 -32 414 -40 414 c 0
EndSplineSet
Substitution2: "Single Substitution lookup 26 subtable" d.ext.left
Substitution2: "Single Substitution lookup 25 subtable" d.ext.right
Substitution2: "Single Substitution lookup 22 subtable" d.ext.left
Substitution2: "Single Substitution lookup 21 subtable" d.ext.right
EndChar

StartChar: D.ext.up
Encoding: 65682 -1 230
Width: 320
VWidth: 408
Flags: HW
AnchorPoint: "Extension_mkmk" 0 384 mark 0
LayerCount: 2
Fore
SplineSet
-8 377 m 0
 -11 381 -11 387 -7 391 c 0
 -3 395 3 395 7 391 c 0
 8 391 l 0
 9 389 l 0
 14 384 22 380 30 380 c 0
 38 380 46 384 51 389 c 0
 52 391 l 0
 52 391 53 392 54 392 c 0
 58 395 65 394 68 390 c 0
 68 389 69 389 69 388 c 0
 78 370 68 353 59 344 c 0
 56 341 53 339 50 337 c 0
 47 336 44 334 40 334 c 0
 37 334 35 335 33 337 c 0
 29 341 29 347 33 351 c 0
 35 353 37 354 39 354 c 0
 40 354 43 356 45 358 c 0
 47 360 49 362 50 364 c 1
 44 361 37 360 30 360 c 0
 16 360 4 366 -5 375 c 0
 -6 376 -7 376 -8 377 c 0
EndSplineSet
Substitution2: "Single Substitution lookup 26 subtable" D.ext.left
Substitution2: "Single Substitution lookup 25 subtable" D.ext.right
Substitution2: "Single Substitution lookup 22 subtable" D.ext.left
Substitution2: "Single Substitution lookup 21 subtable" D.ext.right
EndChar

StartChar: glottal.flip.ext.up
Encoding: 65683 -1 231
Width: 320
VWidth: 408
Flags: HW
AnchorPoint: "Extension_mkmk" 0 384 mark 0
LayerCount: 2
Fore
SplineSet
-4 393 m 0
 0 395 4 394 7 391 c 0
 11 387 11 381 7 377 c 0
 6 376 5 375 4 375 c 0
 -7 369 -14 365 -18 361 c 0
 -20 359 -21 357 -21 356 c 0
 -21 356 -20 355 -19 355 c 0
 -17 354 -14 355 -10 355 c 0
 -1 356 10 359 19 368 c 0
 24 373 28 380 31 388 c 0
 31 389 32 390 33 391 c 0
 37 395 43 395 47 391 c 0
 50 388 50 384 49 380 c 0
 45 369 40 361 33 354 c 0
 18 339 -1 334 -16 335 c 0
 -23 335 -31 337 -36 342 c 0
 -41 347 -42 354 -40 361 c 0
 -39 366 -36 371 -32 375 c 0
 -26 381 -16 387 -4 393 c 0
EndSplineSet
Substitution2: "Single Substitution lookup 26 subtable" glottal.flip.ext.left
Substitution2: "Single Substitution lookup 25 subtable" glottal.flip.ext.right
Substitution2: "Single Substitution lookup 22 subtable" glottal.flip.ext.left
Substitution2: "Single Substitution lookup 21 subtable" glottal.flip.ext.right
EndChar

StartChar: approxequal.ext.up
Encoding: 65684 -1 232
Width: 320
VWidth: 408
Flags: HW
AnchorPoint: "Extension_mkmk" 0 384 mark 0
LayerCount: 2
Fore
SplineSet
10 384 m 0
 10 381 9 379 7 377 c 0
 3 373 -3 373 -7 377 c 0
 -9 379 -10 381 -10 384 c 0
 -10 397 -6 408 2 416 c 0
 7 421 13 424 20 424 c 0
 24 424 27 423 30 422 c 1
 30 444 l 2
 30 447 31 449 33 451 c 0
 37 455 43 455 47 451 c 0
 49 449 50 447 50 444 c 2
 50 384 l 2
 50 378 46 374 40 374 c 0
 34 374 30 378 30 384 c 0
 30 392 27 399 24 402 c 0
 22 404 21 404 20 404 c 0
 19 404 18 404 16 402 c 0
 13 399 10 392 10 384 c 0
EndSplineSet
Substitution2: "Single Substitution lookup 26 subtable" approxequal.ext.left
Substitution2: "Single Substitution lookup 25 subtable" approxequal.ext.right
Substitution2: "Single Substitution lookup 22 subtable" approxequal.ext.left
Substitution2: "Single Substitution lookup 21 subtable" approxequal.ext.right
EndChar

StartChar: f.ext.up
Encoding: 65685 -1 233
Width: 320
VWidth: 408
Flags: HW
AnchorPoint: "Extension_mkmk" 0 384 mark 0
LayerCount: 2
Fore
SplineSet
-4 393 m 0
 0 395 4 394 7 391 c 0
 11 387 11 381 7 377 c 0
 6 376 5 375 4 375 c 0
 -10 368 -23 368 -32 377 c 0
 -37 382 -39 388 -40 394 c 0
 -41 406 -37 419 -27 429 c 0
 -21 435 -12 440 -2 442 c 0
 1 443 5 441 7 439 c 0
 11 435 11 429 7 425 c 0
 6 424 4 422 2 422 c 0
 -4 421 -9 418 -12 415 c 0
 -18 409 -21 401 -20 396 c 0
 -20 393 -19 392 -18 391 c 0
 -17 390 -14 388 -4 393 c 0
EndSplineSet
Substitution2: "Single Substitution lookup 26 subtable" f.ext.left
Substitution2: "Single Substitution lookup 25 subtable" f.ext.right
Substitution2: "Single Substitution lookup 22 subtable" f.ext.left
Substitution2: "Single Substitution lookup 21 subtable" f.ext.right
EndChar

StartChar: g.ext.up
Encoding: 65686 -1 234
Width: 320
VWidth: 408
Flags: HW
AnchorPoint: "Extension_mkmk" 0 384 mark 0
LayerCount: 2
Fore
SplineSet
10 384 m 0
 10 381 9 379 7 377 c 0
 3 373 -3 373 -7 377 c 0
 -9 379 -10 381 -10 384 c 0
 -10 398 -5 411 4 420 c 0
 7 423 12 427 16 429 c 1
 -18 452 l 2
 -19 453 l 0
 -23 457 -23 463 -19 467 c 0
 -16 470 -10 471 -6 468 c 2
 46 432 l 2
 47 431 48 430 49 429 c 0
 52 424 50 418 45 415 c 0
 44 414 42 414 40 414 c 0
 30 414 23 411 18 406 c 0
 13 401 10 394 10 384 c 0
EndSplineSet
Substitution2: "Single Substitution lookup 26 subtable" g.ext.left
Substitution2: "Single Substitution lookup 25 subtable" g.ext.right
Substitution2: "Single Substitution lookup 22 subtable" g.ext.left
Substitution2: "Single Substitution lookup 21 subtable" g.ext.right
EndChar

StartChar: G.ext.up
Encoding: 65687 -1 235
Width: 320
VWidth: 408
Flags: HW
AnchorPoint: "Extension_mkmk" 0 384 mark 0
LayerCount: 2
Fore
SplineSet
1 394 m 1
 0 396 0 399 0 401 c 0
 0 406 3 410 6 413 c 0
 7 414 l 1
 6 415 l 0
 2 419 -1 425 0 431 c 0
 0 436 3 440 6 443 c 0
 13 450 25 454 40 454 c 0
 43 454 45 453 47 451 c 0
 51 447 51 441 47 437 c 0
 45 435 43 434 40 434 c 0
 28 434 22 431 20 429 c 0
 20 429 l 2
 20 429 l 2
 22 427 28 424 40 424 c 0
 46 424 50 420 50 414 c 0
 50 408 46 404 40 404 c 0
 28 404 22 401 20 399 c 0
 20 399 l 2
 20 399 l 2
 22 397 28 394 40 394 c 0
 46 394 50 390 50 384 c 0
 50 378 46 374 40 374 c 2
 0 374 l 2
 -3 374 -5 375 -7 377 c 0
 -11 381 -11 387 -7 391 c 0
 -5 393 -3 394 -0 394 c 2
 1 394 l 1
EndSplineSet
Substitution2: "Single Substitution lookup 26 subtable" G.ext.left
Substitution2: "Single Substitution lookup 25 subtable" G.ext.right
Substitution2: "Single Substitution lookup 22 subtable" G.ext.left
Substitution2: "Single Substitution lookup 21 subtable" G.ext.right
EndChar

StartChar: h.ext.up
Encoding: 65688 -1 236
Width: 320
VWidth: 408
Flags: HW
AnchorPoint: "Extension_mkmk" 0 384 mark 0
LayerCount: 2
Fore
SplineSet
10 384 m 0
 10 381 9 379 7 377 c 0
 3 373 -3 373 -7 377 c 0
 -9 379 -10 381 -10 384 c 0
 -10 403 -4 419 5 428 c 0
 9 432 13 435 19 436 c 0
 26 437 33 434 38 429 c 0
 43 424 47 416 50 407 c 0
 52 400 54 396 56 394 c 0
 58 392 58 392 58 392 c 0
 58 392 60 393 61 394 c 0
 65 398 70 409 70 424 c 0
 70 427 71 429 73 431 c 0
 77 435 83 435 87 431 c 0
 89 429 90 427 90 424 c 0
 90 405 84 389 75 380 c 0
 71 376 67 373 61 372 c 0
 54 371 47 374 42 379 c 0
 37 384 33 392 30 401 c 0
 28 408 26 412 24 414 c 0
 22 416 22 416 22 416 c 0
 22 416 20 415 19 414 c 0
 15 410 10 399 10 384 c 0
EndSplineSet
Substitution2: "Single Substitution lookup 26 subtable" h.ext.left
Substitution2: "Single Substitution lookup 25 subtable" h.ext.right
Substitution2: "Single Substitution lookup 22 subtable" h.ext.left
Substitution2: "Single Substitution lookup 21 subtable" h.ext.right
EndChar

StartChar: j.ext.up
Encoding: 65689 -1 237
Width: 320
VWidth: 408
Flags: HW
AnchorPoint: "Extension_mkmk" 0 384 mark 0
LayerCount: 2
Fore
SplineSet
10 384 m 0
 10 381 9 379 7 377 c 0
 3 373 -3 373 -7 377 c 0
 -9 379 -10 381 -10 384 c 0
 -10 397 -5 408 2 417 c 1
 -8 416 -16 411 -20 407 c 0
 -23 404 -24 402 -24 401 c 0
 -23 398 -24 394 -27 391 c 0
 -31 387 -37 387 -41 391 c 0
 -42 392 -43 394 -43 395 c 0
 -45 400 -44 404 -43 408 c 0
 -41 413 -38 418 -34 422 c 0
 -21 435 4 444 34 429 c 0
 36 428 37 427 38 425 c 0
 41 420 40 414 35 411 c 0
 33 410 32 410 30 410 c 0
 25 410 21 408 18 405 c 0
 14 401 10 393 10 384 c 0
EndSplineSet
Substitution2: "Single Substitution lookup 26 subtable" j.ext.left
Substitution2: "Single Substitution lookup 25 subtable" j.ext.right
Substitution2: "Single Substitution lookup 22 subtable" j.ext.left
Substitution2: "Single Substitution lookup 21 subtable" j.ext.right
EndChar

StartChar: k.ext.up
Encoding: 65690 -1 238
Width: 320
VWidth: 408
Flags: HW
AnchorPoint: "Extension_mkmk" 0 384 mark 0
LayerCount: 2
Fore
SplineSet
10 384 m 0
 10 381 9 379 7 377 c 0
 3 373 -3 373 -7 377 c 0
 -9 379 -10 381 -10 384 c 0
 -10 395 -6 406 0 414 c 1
 -20 414 l 2
 -23 414 -25 415 -27 417 c 0
 -31 421 -31 427 -27 431 c 0
 -25 433 -23 434 -20 434 c 2
 40 434 l 2
 46 434 50 430 50 424 c 0
 50 418 46 414 40 414 c 0
 32 414 24 410 19 405 c 0
 14 400 10 392 10 384 c 0
EndSplineSet
Substitution2: "Single Substitution lookup 26 subtable" k.ext.left
Substitution2: "Single Substitution lookup 25 subtable" k.ext.right
Substitution2: "Single Substitution lookup 22 subtable" k.ext.left
Substitution2: "Single Substitution lookup 21 subtable" k.ext.right
EndChar

StartChar: l.ext.up
Encoding: 65691 -1 239
Width: 320
VWidth: 408
Flags: HW
AnchorPoint: "Extension_mkmk" 0 384 mark 0
LayerCount: 2
Fore
SplineSet
10 384 m 0
 10 381 9 379 7 377 c 0
 3 373 -3 374 -7 377 c 1
 -8 375 -10 373 -11 372 c 0
 -11 371 l 0
 -11 370 -12 370 -13 369 c 0
 -15 367 -17 366 -20 366 c 0
 -21 366 -21 366 -23 366 c 0
 -24 366 -25 367 -27 369 c 0
 -28 370 -30 373 -30 375 c 0
 -30 377 -30 378 -30 379 c 0
 -29 381 -28 381 -28 382 c 0
 -27 383 -27 384 -27 384 c 0
 -26 385 -26 385 -26 385 c 0
 -25 386 l 0
 -24 387 -21 390 -20 394 c 0
 -18 399 -18 407 -22 421 c 0
 -23 423 -22 424 -22 426 c 0
 -21 431 -15 435 -10 434 c 0
 -8 434 -6 432 -5 431 c 0
 1 425 5 419 7 412 c 0
 10 403 10 395 10 384 c 0
EndSplineSet
Substitution2: "Single Substitution lookup 26 subtable" l.ext.left
Substitution2: "Single Substitution lookup 25 subtable" l.ext.right
Substitution2: "Single Substitution lookup 22 subtable" l.ext.left
Substitution2: "Single Substitution lookup 21 subtable" l.ext.right
EndChar

StartChar: m.ext.up
Encoding: 65692 -1 240
Width: 320
VWidth: 408
Flags: HW
AnchorPoint: "Extension_mkmk" 0 384 mark 0
LayerCount: 2
Fore
SplineSet
-0 394 m 2
 3 394 5 393 7 391 c 0
 11 387 11 381 7 377 c 0
 5 375 3 374 0 374 c 2
 -40 374 l 2
 -43 374 -45 375 -47 377 c 0
 -51 381 -51 387 -47 391 c 0
 -45 393 -43 394 -40 394 c 2
 -0 394 l 2
EndSplineSet
Substitution2: "Single Substitution lookup 26 subtable" m.ext.left
Substitution2: "Single Substitution lookup 25 subtable" m.ext.right
Substitution2: "Single Substitution lookup 22 subtable" m.ext.left
Substitution2: "Single Substitution lookup 21 subtable" m.ext.right
EndChar

StartChar: n.ext.up
Encoding: 65693 -1 241
Width: 320
VWidth: 408
Flags: HW
AnchorPoint: "Extension_mkmk" 0 384 mark 0
LayerCount: 2
Fore
SplineSet
-21 394 m 1
 -0 394 l 2
 3 394 5 393 7 391 c 0
 11 387 11 381 7 377 c 0
 5 375 3 374 0 374 c 2
 -40 374 l 2
 -41 374 -42 374 -43 374 c 0
 -48 376 -52 382 -50 387 c 0
 -50 388 -49 389 -48 390 c 2
 -24 426 l 2
 -24 427 -23 427 -23 427 c 0
 -19 431 -13 431 -9 427 c 0
 -6 424 -5 418 -8 414 c 2
 -21 394 l 1
EndSplineSet
Substitution2: "Single Substitution lookup 26 subtable" n.ext.left
Substitution2: "Single Substitution lookup 25 subtable" n.ext.right
Substitution2: "Single Substitution lookup 22 subtable" n.ext.left
Substitution2: "Single Substitution lookup 21 subtable" n.ext.right
EndChar

StartChar: p.ext.up
Encoding: 65694 -1 242
Width: 320
VWidth: 408
Flags: HW
AnchorPoint: "Extension_mkmk" 0 384 mark 0
LayerCount: 2
Fore
SplineSet
-10 384 m 0
 -10 387 -9 389 -7 391 c 0
 -3 395 3 395 7 391 c 0
 9 389 10 387 10 384 c 0
 10 365 3 348 -9 336 c 0
 -17 328 -28 322 -40 322 c 0
 -52 322 -63 328 -71 336 c 0
 -83 348 -90 365 -90 384 c 0
 -90 387 -89 389 -87 391 c 0
 -83 395 -77 395 -73 391 c 0
 -71 389 -70 387 -70 384 c 0
 -70 369 -64 357 -57 350 c 0
 -52 345 -46 342 -40 342 c 0
 -34 342 -28 345 -23 350 c 0
 -16 357 -10 369 -10 384 c 0
EndSplineSet
Substitution2: "Single Substitution lookup 26 subtable" p.ext.left
Substitution2: "Single Substitution lookup 25 subtable" p.ext.right
Substitution2: "Single Substitution lookup 22 subtable" p.ext.left
Substitution2: "Single Substitution lookup 21 subtable" p.ext.right
EndChar

StartChar: P.ext.up
Encoding: 65695 -1 243
Width: 320
VWidth: 408
Flags: HW
AnchorPoint: "Extension_mkmk" 0 384 mark 0
LayerCount: 2
Fore
SplineSet
-0 394 m 0
 3 394 5 393 7 391 c 0
 11 387 11 381 7 377 c 0
 5 375 3 374 0 374 c 0
 -15 374 -27 378 -34 385 c 0
 -38 389 -41 395 -40 401 c 0
 -40 406 -37 410 -34 413 c 0
 -33 414 l 1
 -34 415 l 0
 -38 419 -41 425 -40 431 c 0
 -40 436 -37 440 -34 443 c 0
 -27 450 -15 454 -0 454 c 0
 3 454 5 453 7 451 c 0
 11 447 11 441 7 437 c 0
 5 435 3 434 0 434 c 0
 -12 434 -18 431 -20 429 c 0
 -20 429 l 2
 -20 429 l 2
 -18 427 -12 424 -0 424 c 0
 6 424 10 420 10 414 c 0
 10 408 6 404 0 404 c 0
 -12 404 -18 401 -20 399 c 0
 -20 399 l 2
 -20 399 l 2
 -18 397 -12 394 -0 394 c 0
EndSplineSet
Substitution2: "Single Substitution lookup 26 subtable" P.ext.left
Substitution2: "Single Substitution lookup 25 subtable" P.ext.right
Substitution2: "Single Substitution lookup 22 subtable" P.ext.left
Substitution2: "Single Substitution lookup 21 subtable" P.ext.right
EndChar

StartChar: r.upsidedown.ext.up
Encoding: 65696 -1 244
Width: 320
VWidth: 408
Flags: HW
AnchorPoint: "Extension_mkmk" 0 384 mark 0
LayerCount: 2
Fore
SplineSet
10 384 m 0
 10 381 9 379 7 377 c 0
 3 373 -3 373 -7 377 c 0
 -9 379 -10 381 -10 384 c 0
 -10 385 -10 387 -13 390 c 0
 -16 393 -23 397 -29 400 c 0
 -37 403 -42 404 -42 404 c 2
 -44 405 -47 406 -48 408 c 0
 -51 412 -50 419 -46 422 c 0
 -44 423 -42 424 -40 424 c 0
 -16 424 -1 432 9 442 c 0
 14 447 18 452 21 458 c 0
 21 459 22 460 23 461 c 0
 27 465 33 465 37 461 c 0
 40 458 41 454 39 450 c 0
 35 443 30 435 23 428 c 0
 15 420 6 414 -6 410 c 1
 -4 408 -1 406 1 404 c 0
 6 399 10 393 10 384 c 0
EndSplineSet
Substitution2: "Single Substitution lookup 26 subtable" r.upsidedown.ext.left
Substitution2: "Single Substitution lookup 25 subtable" r.upsidedown.ext.right
Substitution2: "Single Substitution lookup 22 subtable" r.upsidedown.ext.left
Substitution2: "Single Substitution lookup 21 subtable" r.upsidedown.ext.right
EndChar

StartChar: r.ext.up
Encoding: 65697 -1 245
Width: 320
VWidth: 408
Flags: HW
AnchorPoint: "Extension_mkmk" 0 384 mark 0
LayerCount: 2
Fore
SplineSet
-9 380 m 1
 -21 369 l 2
 -25 365 -31 365 -35 369 c 0
 -39 373 -39 379 -35 383 c 2
 2 421 l 2
 4 423 5 424 7 426 c 0
 9 428 12 430 14 432 c 0
 16 433 18 434 21 434 c 0
 27 434 30 429 30 423 c 0
 30 420 29 419 27 417 c 2
 17 407 l 1
 13 401 10 394 10 384 c 0
 10 381 9 379 7 377 c 0
 3 373 -3 373 -7 377 c 0
 -8 378 -9 379 -9 380 c 1
EndSplineSet
Substitution2: "Single Substitution lookup 26 subtable" r.ext.left
Substitution2: "Single Substitution lookup 25 subtable" r.ext.right
Substitution2: "Single Substitution lookup 22 subtable" r.ext.left
Substitution2: "Single Substitution lookup 21 subtable" r.ext.right
EndChar

StartChar: s.ext.up
Encoding: 65698 -1 246
Width: 320
VWidth: 408
Flags: HW
AnchorPoint: "Extension_mkmk" 0 384 mark 0
LayerCount: 2
Fore
SplineSet
10 384 m 0
 10 381 9 379 7 377 c 0
 3 373 -3 373 -7 377 c 0
 -9 379 -10 381 -10 384 c 0
 -10 398 -14 406 -17 409 c 0
 -19 411 -20 411 -21 411 c 0
 -22 411 -24 410 -26 408 c 0
 -28 406 -29 404 -31 400 c 0
 -31 399 -32 398 -33 397 c 0
 -37 393 -43 393 -47 397 c 0
 -50 400 -51 404 -49 408 c 0
 -47 414 -44 418 -40 422 c 0
 -35 427 -30 429 -24 430 c 0
 -16 431 -9 429 -3 423 c 0
 5 415 10 401 10 384 c 0
EndSplineSet
Substitution2: "Single Substitution lookup 26 subtable" s.ext.left
Substitution2: "Single Substitution lookup 25 subtable" s.ext.right
Substitution2: "Single Substitution lookup 22 subtable" s.ext.left
Substitution2: "Single Substitution lookup 21 subtable" s.ext.right
EndChar

StartChar: t.ext.up
Encoding: 65699 -1 247
Width: 320
VWidth: 408
Flags: HW
AnchorPoint: "Extension_mkmk" 0 384 mark 0
LayerCount: 2
Fore
SplineSet
-10 384 m 0
 -10 387 -9 389 -7 391 c 0
 -3 395 3 395 7 391 c 0
 9 389 10 387 10 384 c 0
 10 373 12 367 16 363 c 0
 18 361 22 359 28 357 c 0
 35 355 46 354 60 354 c 0
 63 354 65 353 67 351 c 0
 71 347 71 341 67 337 c 0
 65 335 63 334 60 334 c 0
 45 334 32 335 22 338 c 0
 14 340 7 344 2 349 c 0
 -7 358 -10 370 -10 384 c 0
EndSplineSet
Substitution2: "Single Substitution lookup 26 subtable" t.ext.left
Substitution2: "Single Substitution lookup 25 subtable" t.ext.right
Substitution2: "Single Substitution lookup 22 subtable" t.ext.left
Substitution2: "Single Substitution lookup 21 subtable" t.ext.right
EndChar

StartChar: v.ext.up
Encoding: 65700 -1 248
Width: 320
VWidth: 408
Flags: HW
AnchorPoint: "Extension_mkmk" 0 384 mark 0
LayerCount: 2
Fore
SplineSet
-12 386 m 1
 -7 391 l 2
 -3 395 3 395 7 391 c 0
 11 387 11 381 7 377 c 2
 -23 347 l 2
 -24 346 -26 344 -28 344 c 0
 -33 343 -39 347 -40 352 c 0
 -40 354 -40 356 -39 358 c 0
 -32 371 -31 382 -32 387 c 0
 -32 390 -34 391 -34 391 c 0
 -34 391 -34 392 -36 392 c 0
 -37 392 -40 390 -43 387 c 0
 -47 383 -53 383 -57 387 c 0
 -61 391 -61 397 -57 401 c 0
 -53 405 -49 408 -45 410 c 0
 -36 414 -27 413 -20 406 c 0
 -16 402 -13 397 -12 391 c 0
 -12 390 -12 387 -12 386 c 1
EndSplineSet
Substitution2: "Single Substitution lookup 26 subtable" v.ext.left
Substitution2: "Single Substitution lookup 25 subtable" v.ext.right
Substitution2: "Single Substitution lookup 22 subtable" v.ext.left
Substitution2: "Single Substitution lookup 21 subtable" v.ext.right
EndChar

StartChar: velar.ext.up
Encoding: 65701 -1 249
Width: 320
VWidth: 408
Flags: HW
AnchorPoint: "Extension_mkmk" 0 384 mark 0
LayerCount: 2
Fore
SplineSet
-4 375 m 0
 -5 375 -6 376 -7 377 c 0
 -11 381 -11 387 -7 391 c 0
 -4 394 0 395 4 393 c 0
 16 387 26 381 32 375 c 0
 36 371 39 366 40 361 c 0
 42 354 41 347 36 342 c 0
 31 337 23 335 16 335 c 0
 1 334 -18 339 -33 354 c 0
 -40 361 -45 369 -49 380 c 0
 -50 384 -50 388 -47 391 c 0
 -43 395 -37 395 -33 391 c 0
 -32 390 -31 389 -31 388 c 0
 -28 380 -24 373 -19 368 c 0
 -10 359 1 356 10 355 c 0
 14 355 17 354 19 355 c 0
 20 355 21 356 21 356 c 0
 21 357 20 359 18 361 c 0
 14 365 7 369 -4 375 c 0
EndSplineSet
Substitution2: "Single Substitution lookup 26 subtable" velar.ext.left
Substitution2: "Single Substitution lookup 25 subtable" velar.ext.right
Substitution2: "Single Substitution lookup 22 subtable" velar.ext.left
Substitution2: "Single Substitution lookup 21 subtable" velar.ext.right
EndChar

StartChar: w.ext.up
Encoding: 65702 -1 250
Width: 320
VWidth: 408
Flags: HW
AnchorPoint: "Extension_mkmk" 0 384 mark 0
LayerCount: 2
Fore
SplineSet
10 384 m 0
 10 381 9 379 7 377 c 0
 3 373 -3 373 -7 377 c 0
 -9 379 -10 381 -10 384 c 0
 -10 389 -12 393 -14 395 c 0
 -16 397 -18 398 -20 398 c 0
 -22 398 -24 397 -26 395 c 0
 -28 393 -30 389 -30 384 c 0
 -30 378 -34 374 -40 374 c 0
 -46 374 -50 378 -50 384 c 2
 -50 408 l 2
 -50 422 -44 434 -35 443 c 0
 -26 452 -14 458 -0 458 c 0
 3 458 5 457 7 455 c 0
 11 451 11 445 7 441 c 0
 5 439 3 438 0 438 c 0
 -8 438 -16 434 -21 429 c 0
 -24 426 -28 422 -29 417 c 1
 -26 418 -23 418 -20 418 c 0
 -12 418 -5 415 -0 410 c 0
 6 404 10 394 10 384 c 0
EndSplineSet
Substitution2: "Single Substitution lookup 26 subtable" w.ext.left
Substitution2: "Single Substitution lookup 25 subtable" w.ext.right
Substitution2: "Single Substitution lookup 22 subtable" w.ext.left
Substitution2: "Single Substitution lookup 21 subtable" w.ext.right
EndChar

StartChar: x.ext.up
Encoding: 65703 -1 251
Width: 320
VWidth: 408
Flags: HW
AnchorPoint: "Extension_mkmk" 0 384 mark 0
LayerCount: 2
Fore
SplineSet
1 374 m 0
 -2 374 -5 375 -7 377 c 0
 -11 381 -11 387 -7 391 c 0
 -5 393 -3 394 -1 394 c 0
 8 395 14 396 18 398 c 0
 21 399 23 400 24 401 c 0
 23 402 l 0
 22 403 19 406 15 407 c 0
 10 409 4 409 -2 409 c 0
 -11 409 -20 406 -27 399 c 0
 -29 397 l 0
 -29 397 l 0
 -33 393 -39 393 -43 397 c 0
 -47 401 -47 407 -43 411 c 0
 -42 412 -42 412 -41 413 c 0
 -30 424 -16 428 -3 429 c 0
 6 429 15 428 22 425 c 0
 28 423 34 420 38 416 c 0
 41 413 43 410 44 405 c 0
 45 399 42 391 38 387 c 0
 35 384 31 382 26 380 c 0
 20 377 11 375 1 374 c 0
EndSplineSet
Substitution2: "Single Substitution lookup 26 subtable" x.ext.left
Substitution2: "Single Substitution lookup 25 subtable" x.ext.right
Substitution2: "Single Substitution lookup 22 subtable" x.ext.left
Substitution2: "Single Substitution lookup 21 subtable" x.ext.right
EndChar

StartChar: y.ext.up
Encoding: 65704 -1 252
Width: 320
VWidth: 408
Flags: HW
AnchorPoint: "Extension_mkmk" 0 384 mark 0
LayerCount: 2
Fore
SplineSet
10 384 m 0
 10 381 9 379 7 377 c 0
 3 373 -3 373 -7 377 c 0
 -9 379 -10 381 -10 384 c 0
 -10 387 -11 389 -13 391 c 0
 -15 393 -17 394 -20 394 c 0
 -22 394 -23 394 -25 395 c 0
 -30 398 -31 404 -28 409 c 0
 -27 411 -26 412 -24 413 c 0
 -23 414 -22 415 -22 415 c 0
 -22 415 l 0
 -24 417 -30 419 -34 418 c 0
 -37 417 -40 418 -43 421 c 0
 -47 425 -47 431 -43 435 c 0
 -42 436 -40 438 -38 438 c 0
 -26 441 -15 436 -8 429 c 0
 -5 426 -3 423 -2 418 c 0
 -1 415 -2 411 -3 408 c 0
 -2 407 0 406 1 405 c 0
 6 400 10 392 10 384 c 0
EndSplineSet
Substitution2: "Single Substitution lookup 26 subtable" y.ext.left
Substitution2: "Single Substitution lookup 25 subtable" y.ext.right
Substitution2: "Single Substitution lookup 22 subtable" y.ext.left
Substitution2: "Single Substitution lookup 21 subtable" y.ext.right
EndChar

StartChar: z.ext.up
Encoding: 65705 -1 253
Width: 320
VWidth: 408
Flags: HW
AnchorPoint: "Extension_mkmk" 0 384 mark 0
LayerCount: 2
Fore
SplineSet
10 384 m 0
 10 381 9 379 7 377 c 0
 3 373 -3 373 -7 377 c 0
 -9 379 -10 381 -10 384 c 0
 -10 399 -5 413 5 423 c 0
 12 430 20 434 30 434 c 0
 33 434 35 433 37 431 c 0
 41 427 41 421 37 417 c 0
 35 415 33 414 30 414 c 0
 26 414 22 412 19 409 c 0
 14 404 10 395 10 384 c 0
EndSplineSet
Substitution2: "Single Substitution lookup 26 subtable" z.ext.left
Substitution2: "Single Substitution lookup 25 subtable" z.ext.right
Substitution2: "Single Substitution lookup 22 subtable" z.ext.left
Substitution2: "Single Substitution lookup 21 subtable" z.ext.right
EndChar

StartChar: glottal.ext.right
Encoding: 65706 -1 254
Width: 320
VWidth: 408
Flags: HW
AnchorPoint: "Extension_mkmk" 0 384 mark 0
LayerCount: 2
Fore
SplineSet
-14 428 m 1
 -13 428 -12 427 -11 427 c 0
 -7 426 0 425 7 424 c 0
 11 424 14 423 18 423 c 1
 17 425 16 426 14 428 c 0
 11 431 6 434 0 434 c 0
 -5 434 -11 431 -14 428 c 1
0 374 m 0
 -3 374 -5 375 -7 377 c 0
 -11 381 -11 387 -7 391 c 0
 -5 393 -3 394 -0 394 c 0
 6 394 11 397 14 400 c 0
 15 401 16 402 17 403 c 1
 13 403 9 404 5 404 c 0
 -3 405 -11 406 -17 408 c 0
 -22 410 -26 411 -30 415 c 0
 -34 419 -36 425 -35 431 c 0
 -34 435 -31 439 -28 442 c 0
 -21 449 -11 454 -0 454 c 0
 11 454 21 449 28 442 c 0
 33 437 37 431 39 423 c 1
 46 423 53 423 59 424 c 0
 62 424 65 423 67 421 c 0
 71 417 71 411 67 407 c 0
 65 405 63 404 61 404 c 0
 54 403 46 403 38 403 c 1
 36 396 33 391 28 386 c 0
 21 379 11 374 0 374 c 0
EndSplineSet
EndChar

StartChar: ncaron.ext.right
Encoding: 65707 -1 255
Width: 320
VWidth: 408
Flags: HW
AnchorPoint: "Extension_mkmk" 0 384 mark 0
LayerCount: 2
Fore
SplineSet
-10 384 m 2
 -10 387 -9 389 -7 391 c 0
 -3 395 3 395 7 391 c 0
 9 389 10 387 10 384 c 2
 10 363 l 1
 30 376 l 2
 34 379 40 378 43 375 c 0
 47 371 47 365 43 361 c 0
 43 361 43 360 42 360 c 2
 6 336 l 2
 5 335 4 334 3 334 c 0
 -2 332 -8 336 -10 341 c 0
 -10 342 -10 343 -10 344 c 2
 -10 384 l 2
EndSplineSet
EndChar

StartChar: scaron.ext.right
Encoding: 65708 -1 256
Width: 320
VWidth: 408
Flags: HW
AnchorPoint: "Extension_mkmk" 0 384 mark 0
LayerCount: 2
Fore
SplineSet
30 424 m 0
 30 430 34 434 40 434 c 0
 46 434 50 430 50 424 c 2
 50 356 l 2
 50 353 49 351 47 349 c 0
 43 345 37 345 33 349 c 0
 31 351 30 353 30 356 c 2
 30 384 l 1
 22 378 11 374 0 374 c 0
 -3 374 -5 375 -7 377 c 0
 -11 381 -11 387 -7 391 c 0
 -5 393 -3 394 -0 394 c 0
 8 394 16 398 21 403 c 0
 26 408 30 416 30 424 c 0
EndSplineSet
EndChar

StartChar: ddotbelow.ext.right
Encoding: 65709 -1 257
Width: 320
VWidth: 408
Flags: HW
AnchorPoint: "Extension_mkmk" 0 384 mark 0
LayerCount: 2
Fore
SplineSet
-0 394 m 0
 3 394 5 393 7 391 c 0
 11 387 11 381 7 377 c 0
 5 375 3 374 0 374 c 0
 -11 374 -21 379 -28 386 c 0
 -35 393 -40 403 -40 414 c 0
 -40 425 -35 435 -28 442 c 0
 -21 449 -11 454 -0 454 c 0
 3 454 5 453 7 451 c 0
 11 447 11 441 7 437 c 0
 5 435 3 434 0 434 c 0
 -6 434 -11 431 -14 428 c 0
 -17 425 -20 420 -20 414 c 0
 -20 408 -17 403 -14 400 c 0
 -11 397 -6 394 -0 394 c 0
EndSplineSet
EndChar

StartChar: tcedilla.ext.right
Encoding: 65710 -1 258
Width: 320
VWidth: 408
Flags: HW
AnchorPoint: "Extension_mkmk" 0 384 mark 0
LayerCount: 2
Fore
SplineSet
9 380 m 0
 9 379 8 378 7 377 c 0
 3 373 -3 373 -7 377 c 0
 -10 380 -11 384 -9 388 c 0
 -1 404 0 414 -1 419 c 0
 -1 421 -2 423 -2 423 c 0
 -2 423 -4 424 -5 424 c 0
 -7 424 -12 423 -16 419 c 0
 -18 417 -20 414 -21 411 c 0
 -21 410 -22 408 -23 407 c 0
 -27 403 -33 403 -37 407 c 0
 -40 410 -40 414 -39 417 c 0
 -37 423 -34 429 -30 433 c 0
 -23 440 -12 445 -2 444 c 0
 3 443 8 441 12 437 c 0
 16 433 18 428 19 422 c 0
 21 411 18 397 9 380 c 0
EndSplineSet
EndChar

StartChar: ccedilla.ext.right
Encoding: 65711 -1 259
Width: 320
VWidth: 408
Flags: HW
AnchorPoint: "Extension_mkmk" 0 384 mark 0
LayerCount: 2
Fore
SplineSet
-26 432 m 1
 8 390 l 2
 11 386 11 381 7 377 c 0
 3 373 -3 373 -7 377 c 0
 -8 378 l 2
 -48 428 l 2
 -48 428 l 0
 -51 432 -50 439 -46 442 c 0
 -46 442 l 2
 -18 462 l 2
 -14 465 -9 465 -5 461 c 0
 -1 457 -1 451 -5 447 c 0
 -6 446 l 2
 -26 432 l 1
EndSplineSet
EndChar

StartChar: ccaron.ext.right
Encoding: 65712 -1 260
Width: 320
VWidth: 408
Flags: HW
AnchorPoint: "Extension_mkmk" 0 384 mark 0
LayerCount: 2
Fore
SplineSet
0 374 m 0
 -3 374 -5 375 -7 377 c 0
 -11 381 -11 387 -7 391 c 0
 -5 393 -3 394 -0 394 c 0
 11 394 19 393 26 391 c 0
 31 389 35 388 39 384 c 0
 41 382 43 378 44 375 c 0
 45 371 45 367 44 364 c 1
 60 364 l 2
 61 364 62 364 63 364 c 0
 68 363 71 356 70 351 c 0
 70 350 69 350 69 349 c 2
 51 317 l 2
 51 316 50 316 49 315 c 0
 45 311 39 311 35 315 c 0
 32 318 31 323 33 327 c 2
 43 344 l 1
 37 344 30 344 24 344 c 0
 23 344 21 344 20 345 c 0
 15 347 13 353 15 358 c 0
 16 359 17 361 18 362 c 0
 19 363 19 363 20 364 c 0
 22 366 25 369 25 370 c 0
 24 370 22 371 20 372 c 0
 16 373 10 374 0 374 c 0
EndSplineSet
EndChar

StartChar: lcedilla.ext.right
Encoding: 65713 -1 261
Width: 320
VWidth: 408
Flags: HW
AnchorPoint: "Extension_mkmk" 0 384 mark 0
LayerCount: 2
Fore
SplineSet
0 374 m 0
 -3 374 -5 375 -7 377 c 0
 -11 381 -11 387 -7 391 c 0
 -5 393 -3 394 -0 394 c 0
 6 394 11 397 14 400 c 0
 17 403 20 408 20 414 c 0
 20 416 20 417 21 418 c 0
 23 423 29 425 34 423 c 0
 35 422 37 421 38 420 c 2
 68 380 l 2
 71 376 71 371 67 367 c 0
 63 363 57 363 53 367 c 0
 52 368 l 2
 34 392 l 1
 32 390 30 388 28 386 c 0
 21 379 11 374 0 374 c 0
EndSplineSet
EndChar

StartChar: zdotaccent.ext.right
Encoding: 65714 -1 262
Width: 320
VWidth: 408
Flags: HW
AnchorPoint: "Extension_mkmk" 0 384 mark 0
LayerCount: 2
Fore
SplineSet
-0 394 m 0
 3 394 5 393 7 391 c 0
 11 387 11 381 7 377 c 0
 5 375 3 374 0 374 c 0
 -19 374 -35 380 -44 389 c 0
 -48 393 -51 397 -52 403 c 0
 -53 410 -50 417 -45 422 c 0
 -40 427 -32 431 -23 434 c 0
 -16 436 -12 438 -10 440 c 0
 -7 443 -8 442 -8 442 c 0
 -8 442 -9 444 -10 445 c 0
 -14 449 -25 454 -40 454 c 0
 -43 454 -45 455 -47 457 c 0
 -51 461 -51 467 -47 471 c 0
 -45 473 -43 474 -40 474 c 0
 -21 474 -5 468 4 459 c 0
 8 455 11 451 12 445 c 0
 13 438 10 431 5 426 c 0
 0 421 -8 417 -17 414 c 0
 -24 412 -28 410 -30 408 c 0
 -33 405 -32 406 -32 406 c 0
 -32 406 -31 404 -30 403 c 0
 -26 399 -15 394 -0 394 c 0
EndSplineSet
EndChar

StartChar: zcaron.ext.right
Encoding: 65715 -1 263
Width: 320
VWidth: 408
Flags: HW
AnchorPoint: "Extension_mkmk" 0 384 mark 0
LayerCount: 2
Fore
SplineSet
-10 384 m 0
 -10 387 -9 389 -7 391 c 0
 -3 395 3 395 7 391 c 0
 9 389 10 387 10 384 c 0
 10 372 13 366 15 364 c 2
 15 364 l 2
 15 364 l 0
 17 366 20 372 20 384 c 0
 20 390 24 394 30 394 c 0
 36 394 40 390 40 384 c 0
 40 372 43 366 45 364 c 0
 46 363 47 363 47 363 c 0
 47 363 l 0
 48 364 50 367 50 374 c 2
 50 375 l 2
 50 375 l 0
 49 375 48 376 47 377 c 0
 43 381 43 387 47 391 c 0
 50 394 54 395 58 393 c 0
 60 392 62 391 64 389 c 0
 68 385 70 380 70 375 c 2
 70 374 l 2
 70 364 67 355 61 349 c 0
 57 345 50 342 44 343 c 0
 39 344 35 345 31 349 c 0
 30 351 l 1
 29 350 l 0
 26 347 22 344 17 344 c 0
 11 343 5 346 1 350 c 0
 -6 357 -10 369 -10 384 c 0
EndSplineSet
EndChar

StartChar: rcaron.ext.right
Encoding: 65716 -1 264
Width: 320
VWidth: 408
Flags: HW
AnchorPoint: "Extension_mkmk" 0 384 mark 0
LayerCount: 2
Fore
SplineSet
-7 391 m 2
 -3 395 3 395 7 391 c 0
 11 387 11 381 7 377 c 2
 -0 370 l 1
 2 370 3 369 5 369 c 0
 14 367 22 362 30 354 c 0
 32 352 35 349 38 346 c 0
 41 342 41 336 37 332 c 0
 33 328 27 328 23 332 c 0
 22 332 l 0
 20 335 18 337 16 339 c 0
 10 345 5 348 1 349 c 0
 -4 350 -13 350 -27 345 c 0
 -29 344 -30 344 -32 344 c 0
 -37 345 -41 351 -40 356 c 0
 -40 358 -38 360 -37 361 c 2
 -7 391 l 2
EndSplineSet
EndChar

StartChar: b.ext.right
Encoding: 65717 -1 265
Width: 320
VWidth: 408
Flags: HW
AnchorPoint: "Extension_mkmk" 0 384 mark 0
LayerCount: 2
Fore
SplineSet
0 374 m 0
 -3 374 -5 375 -7 377 c 0
 -11 381 -11 387 -7 391 c 0
 -5 393 -3 394 -0 394 c 0
 3 394 5 395 7 397 c 0
 9 399 10 401 10 404 c 0
 10 407 9 409 7 411 c 0
 5 413 3 414 0 414 c 0
 -6 414 -10 418 -10 424 c 0
 -10 430 -6 434 -0 434 c 2
 40 434 l 2
 43 434 45 433 47 431 c 0
 51 427 51 421 47 417 c 0
 45 415 43 414 40 414 c 2
 28 414 l 1
 29 411 30 408 30 404 c 0
 30 396 26 388 21 383 c 0
 16 378 8 374 0 374 c 0
EndSplineSet
EndChar

StartChar: c.ext.right
Encoding: 65718 -1 266
Width: 320
VWidth: 408
Flags: HW
AnchorPoint: "Extension_mkmk" 0 384 mark 0
LayerCount: 2
Fore
SplineSet
10 384 m 0
 10 381 9 379 7 377 c 0
 3 373 -3 373 -7 377 c 0
 -9 379 -10 381 -10 384 c 0
 -10 399 -6 411 1 418 c 0
 4 421 8 424 13 424 c 0
 19 425 25 422 29 418 c 0
 30 417 l 1
 31 419 l 0
 35 423 39 424 44 425 c 0
 50 426 57 423 61 419 c 0
 67 413 70 404 70 394 c 2
 70 393 l 2
 70 388 68 383 64 379 c 0
 62 377 60 376 58 375 c 0
 54 373 50 374 47 377 c 0
 43 381 43 387 47 391 c 0
 48 392 49 393 50 393 c 0
 50 393 l 2
 50 394 l 2
 50 401 48 404 47 405 c 0
 47 405 l 0
 47 405 46 405 45 404 c 0
 43 402 40 396 40 384 c 0
 40 378 36 374 30 374 c 0
 24 374 20 378 20 384 c 0
 20 396 17 402 15 404 c 0
 15 404 l 2
 15 404 l 2
 13 402 10 396 10 384 c 0
EndSplineSet
EndChar

StartChar: equal.ext.right
Encoding: 65719 -1 267
Width: 320
VWidth: 408
Flags: HW
AnchorPoint: "Extension_mkmk" 0 384 mark 0
LayerCount: 2
Fore
SplineSet
0 374 m 0
 -3 374 -5 375 -7 377 c 0
 -11 381 -11 387 -7 391 c 0
 -5 393 -3 394 -0 394 c 0
 13 394 24 390 31 383 c 0
 41 373 41 358 32 349 c 0
 24 341 11 339 -1 345 c 0
 -7 348 -14 353 -20 359 c 0
 -31 370 -42 387 -54 410 c 0
 -56 414 -55 418 -52 421 c 0
 -48 425 -42 425 -38 421 c 0
 -37 420 -36 419 -36 418 c 0
 -25 396 -15 382 -6 373 c 0
 -1 368 3 365 7 363 c 0
 14 360 16 362 17 363 c 0
 18 364 19 366 16 369 c 0
 14 371 10 374 0 374 c 0
EndSplineSet
EndChar

StartChar: d.ext.right
Encoding: 65720 -1 268
Width: 320
VWidth: 408
Flags: HW
AnchorPoint: "Extension_mkmk" 0 384 mark 0
LayerCount: 2
Fore
SplineSet
3 393 m 2
 4 393 6 392 7 391 c 0
 11 387 11 381 7 377 c 0
 4 374 0 374 -3 375 c 0
 -4 375 -15 379 -25 389 c 0
 -33 397 -40 408 -40 424 c 0
 -40 427 -39 429 -37 431 c 0
 -33 435 -27 435 -23 431 c 0
 -21 429 -20 427 -20 424 c 0
 -20 414 -16 408 -11 403 c 0
 -4 396 3 393 3 393 c 2
EndSplineSet
EndChar

StartChar: D.ext.right
Encoding: 65721 -1 269
Width: 320
VWidth: 408
Flags: HW
AnchorPoint: "Extension_mkmk" 0 384 mark 0
LayerCount: 2
Fore
SplineSet
-0 394 m 0
 3 394 5 393 7 391 c 0
 11 387 11 381 7 377 c 0
 5 375 3 374 0 374 c 0
 -6 374 -13 371 -18 366 c 0
 -25 359 -30 348 -30 334 c 0
 -30 333 -30 332 -30 331 c 0
 -32 326 -38 322 -43 324 c 0
 -44 324 -45 325 -46 326 c 0
 -50 329 -53 331 -56 334 c 0
 -79 357 -68 381 -67 382 c 0
 -67 383 -66 384 -65 385 c 0
 -61 389 -55 389 -51 385 c 0
 -48 382 -47 378 -49 374 c 0
 -49 374 -50 370 -50 365 c 0
 -50 362 -49 359 -47 355 c 1
 -44 365 -39 373 -32 380 c 0
 -24 388 -12 394 -0 394 c 0
EndSplineSet
EndChar

StartChar: glottal.flip.ext.right
Encoding: 65722 -1 270
Width: 320
VWidth: 408
Flags: HW
AnchorPoint: "Extension_mkmk" 0 384 mark 0
LayerCount: 2
Fore
SplineSet
9 388 m 0
 11 384 10 380 7 377 c 0
 3 373 -3 373 -7 377 c 0
 -8 378 -9 379 -9 380 c 0
 -15 391 -19 398 -23 402 c 0
 -25 404 -27 405 -28 405 c 0
 -28 405 -29 404 -29 403 c 0
 -30 401 -29 398 -29 394 c 0
 -28 385 -25 374 -16 365 c 0
 -11 360 -4 356 4 353 c 0
 5 353 6 352 7 351 c 0
 11 347 11 341 7 337 c 0
 4 334 0 334 -4 335 c 0
 -15 339 -23 344 -30 351 c 0
 -45 366 -50 385 -49 400 c 0
 -49 407 -47 415 -42 420 c 0
 -37 425 -30 426 -23 424 c 0
 -18 423 -13 420 -9 416 c 0
 -3 410 3 400 9 388 c 0
EndSplineSet
EndChar

